<svg width="509" height="50" viewBox="0 0 509 50" fill="none" xmlns="http://www.w3.org/2000/svg">
<path d="M129.09 21.2374C94.6 21.266 60.5374 21.2676 26.4751 21.3692C23.3696 21.3785 20.1727 21.6687 17.179 22.4491C7.75574 24.9056 3.02728 31.2751 2.57025 41.5537C2.46091 44.0127 2.33363 46.4709 2.2146 48.9294C1.76332 48.9673 1.31204 49.0051 0.860756 49.043C0.602134 47.713 0.131385 46.385 0.120069 45.0529C0.0569195 37.6198 0.359162 30.1739 0.0157068 22.7566C-0.177421 18.5858 1.403 17.7139 5.16961 17.7286C38.8048 17.8592 72.4406 17.8451 106.076 17.858C210.974 17.8982 315.872 17.9362 420.769 17.9622C435.305 17.9658 449.841 17.8876 464.378 17.8658C472.055 17.8542 479.502 16.572 485.802 12.0128C489.765 9.14454 493.059 5.34595 496.66 1.97138C497.312 1.36021 497.994 0.781472 498.874 0C498.874 4.68564 497.699 9.3846 499.222 12.9091C500.6 16.0971 504.926 18.0027 508.887 21.2376C381.645 21.2376 255.582 21.2376 129.09 21.2374Z" fill="#D81F38"/>
</svg>
