<svg width="139" height="162" viewBox="0 0 139 162" fill="none" xmlns="http://www.w3.org/2000/svg">
<path d="M20.522 5.94472C24.451 -0.155045 23.7272 -1.9126 18.9711 2.32622C14.8353 5.94472 18.9711 2.32622 11.7375 8.4375C9.89185 30.0586 0.241379 14.6222 7.62939e-05 14.2877C0.11319 79.2539 0.405548 116.051 0.87709 116.051C1.39407 116.051 2.11781 114.707 2.42801 112.949C2.73819 111.295 3.35855 108.503 3.66873 106.746C4.28911 103.231 8.52827 99.5089 11.8369 99.5089C17.9372 99.5089 22.2797 107.47 20.7288 115.74C19.2813 123.288 14.6285 128.147 5.11626 132.179C4.22627 132.551 3.29483 132.853 1.19067 133.101V137.359C19.4594 137.21 29.9309 137.028 29.9309 136.831C29.9309 136.314 28.5868 135.384 26.8291 134.66C24.1408 133.523 23.7272 132.799 23.7272 129.594C23.7272 122.564 32.1022 113.983 42.545 110.261C49.4724 107.78 63.3273 108.09 70.6683 110.881C80.4907 114.603 87.8317 122.461 87.8317 129.284C87.8317 134.557 87.3148 134.66 60.2254 134.66C38.616 134.66 35.1006 134.867 35.1006 136.211C35.1006 137.348 36.238 137.762 38.7194 137.762C46.7842 137.762 52.4709 143.861 51.2301 151.098C50.92 153.166 50.403 156.164 50.0928 157.922L49.4724 161.023L51.8505 157.922C56.0897 152.339 61.9831 147.377 68.0834 144.172C78.733 138.485 83.3858 137.762 112.44 137.762C132.912 137.762 138.598 137.451 138.288 136.418C137.978 135.591 133.532 134.97 123.399 134.557C115.541 134.247 107.063 133.626 104.788 133.213C97.2406 131.869 93.8286 126.596 95.9999 119.876C97.5508 115.224 100.136 113.052 106.649 110.778C109.648 109.847 112.233 108.503 112.44 107.987C112.646 107.366 104.065 106.746 90.2098 106.436C65.9121 105.919 61.7764 105.195 56.71 100.439C49.4724 93.7193 55.8829 80.8994 66.5325 80.8994C71.2886 80.8994 69.4275 78.4182 61.673 74.6963C56.2965 72.1116 52.0573 69.0101 46.3706 63.3238C37.6855 54.6394 33.5497 47.6092 31.6886 37.5808C31.0682 34.0657 30.1377 31.2742 29.7241 31.2742C29.2071 31.2742 28.897 39.8553 28.897 50.4006C28.897 69.1134 29.0003 69.527 30.8614 68.4931C36.0312 65.8051 44.4061 68.5965 48.1283 74.1794C50.7132 78.2114 50.5064 86.689 47.6113 91.8583C44.5095 97.4412 40.0636 99.9224 33.5497 99.9224C16.3863 99.819 2.73819 77.4877 4.3925 52.3649C5.52983 36.2368 10.5962 21.6594 20.522 5.94472Z" fill="#D81F38"/>
</svg>
