<svg width="106" height="171" viewBox="0 0 106 171" fill="none" xmlns="http://www.w3.org/2000/svg">
<path fill-rule="evenodd" clip-rule="evenodd" d="M14.3235 116.476C13.7008 113.365 12.8132 109.812 9.31022 109.68C5.59561 109.54 4.0644 112.971 2.88527 116.237C2.61162 116.995 2.43731 117.793 2.25775 118.615C1.87283 120.377 1.46374 122.25 5.87993e-05 124.079V47.7539C1.53148 49.0978 1.52709 50.7243 1.52282 52.3086L1.52246 52.4616L1.52238 52.5799L1.52239 52.5998C1.52243 52.6399 1.52254 52.6799 1.52273 52.7199C1.57251 63.2804 2.46751 73.7887 3.9554 84.2212C4.05573 84.9247 4.14909 85.6326 4.24267 86.3423C4.94268 91.6503 5.65528 97.0538 9.39033 101.403C15.0762 108.025 22.8859 107.038 26.4356 99.0909C29.6288 91.9421 30.3084 84.4083 28.7132 76.7154C27.4701 70.7208 23.7358 67.1883 17.83 65.8328C17.5749 65.7743 17.3036 65.7524 17.0289 65.7303C16.1806 65.662 15.3004 65.5911 14.7682 64.4285C15.7185 63.67 16.8514 63.4756 17.9687 63.2838C18.4218 63.2061 18.8723 63.1288 19.307 63.0145C23.7332 61.8509 27.5379 59.6883 30.5961 56.2717C38.7337 47.1803 35.5522 32.4946 24.6445 28.7534C19.4879 26.9848 16.1147 28.4483 13.8533 33.3898C11.9432 37.5639 11.1662 42.0193 10.3889 46.4763C10.2719 47.147 10.1549 47.8176 10.0341 48.4874C9.99112 48.7257 9.97627 48.9765 9.96118 49.2315C9.90281 50.2176 9.8407 51.2669 8.1342 51.8994C8.19106 49.814 8.27799 47.7275 8.36856 45.6435L8.40749 44.7513C9.01087 30.9495 9.6095 17.2564 2.52962 4.44686C3.59248 5.13115 4.6261 5.86116 5.65285 6.58631C9.74662 9.47758 13.7327 12.2928 19.0415 11.8359C24.6431 11.3538 27.2824 7.22393 29.9279 3.08448C30.5972 2.03729 31.2668 0.98956 31.9849 0C32.9987 1.31036 32.5358 2.2934 32.115 3.18699C32.0116 3.40651 31.9108 3.62065 31.835 3.83292C28.8894 12.0848 29.4449 20.0582 33.656 27.73C35.9106 31.8375 38.9987 35.2013 43.4026 37.0321C49.7145 39.6561 56.2354 35.1903 55.9723 28.3828C55.8233 24.5276 54.1508 21.3219 50.9867 18.9274C50.7834 18.7736 50.5399 18.648 50.2884 18.5184C49.4421 18.082 48.5059 17.5993 48.7121 15.8372C55.1302 16.5368 61.5581 16.4171 67.9891 16.2974C74.5473 16.1752 81.1087 16.0531 87.6664 16.7996C85.8784 17.6784 84.0633 18.1167 82.2377 18.5058C77.4589 19.5243 72.973 21.2786 68.986 24.1092C65.9393 26.2722 63.3922 28.8741 62.5476 32.7578C61.0604 39.5969 63.712 44.7468 69.1811 48.5416C75.8547 53.1722 83.5359 54.886 91.4986 55.3039C94.7497 55.4745 98.012 55.4314 101.288 55.3882C102.765 55.3687 104.244 55.3492 105.727 55.3492C105.588 56.5078 104.858 56.6028 104.188 56.6898C103.998 56.7146 103.813 56.7386 103.647 56.7862C88.6253 61.1105 76.4564 69.7312 66.3826 81.4987C45.5695 105.811 37.5357 134.658 36.4269 165.967C36.4155 166.287 36.3868 167.959 36.3868 168.486C36.3868 169.805 35.4016 170.859 35.2346 170.33C34.3968 167.674 34.2495 165.045 34.1037 162.442C34.0544 161.562 34.0053 160.685 33.9296 159.81C33.8799 159.235 33.8307 158.659 33.7815 158.084L33.7809 158.077C33.1604 150.816 32.5384 143.537 30.724 136.459C30.6559 136.194 30.589 135.923 30.5213 135.648C29.7645 132.582 28.9111 129.126 25.2175 128.471C21.463 127.805 15.4953 136.498 13.711 139.219C11.9267 141.939 12.3927 139.746 12.3927 139.746C14.3848 134.143 15.5167 122.439 14.3235 116.476ZM22.9126 116.495C22.9222 121.032 24.6058 123.068 29.2175 123.992C34.5095 123.146 37.206 119.834 39.344 115.984C42.3399 110.588 43.5397 104.615 44.5157 98.6031C44.6743 97.6263 44.5967 96.552 44.3681 95.5841C44.2974 95.2844 44.2364 94.9737 44.1749 94.6605C43.8414 92.9603 43.4926 91.1827 41.4716 90.6429C39.3972 90.0887 37.8688 91.5236 36.5164 92.8724C31.2529 98.1218 27.3718 104.341 24.1219 110.966C23.2887 112.665 22.9084 114.549 22.9126 116.495ZM50.8353 85.6085C41.7818 87.9396 35.7899 84.7231 34.0261 76.3919C33.1272 72.1454 33.4069 67.8231 34.1071 62.8981C34.1401 62.7666 34.172 62.6348 34.2035 62.5029L34.2174 62.4445L34.2377 62.3587L34.2546 62.2869L34.2763 62.1949C34.3955 61.689 34.5147 61.1831 34.6668 60.6872C36.6716 54.1517 40.0654 48.6784 47.3378 47.478C55.4312 46.1421 61.8996 49.6746 67.1036 55.6513C68.6381 57.4138 68.9986 59.7495 69.0003 62.0884C69.0074 71.7037 60.1202 83.2179 50.8353 85.6085Z" fill="white"/>
</svg>
