<svg width="139" height="162" viewBox="0 0 139 162" fill="none" xmlns="http://www.w3.org/2000/svg">
<path d="M20.5218 5.94472C24.4508 -0.155045 23.727 -1.9126 18.9709 2.32622C14.8351 5.94472 18.9709 2.32622 11.7373 8.4375C9.8916 30.0586 0.241135 14.6222 -0.000167847 14.2877C0.112946 79.2539 0.405304 116.051 0.876846 116.051C1.39383 116.051 2.11757 114.707 2.42776 112.949C2.73795 111.295 3.35831 108.503 3.66849 106.746C4.28886 103.231 8.52803 99.5089 11.8366 99.5089C17.9369 99.5089 22.2795 107.47 20.7286 115.74C19.281 123.288 14.6283 128.147 5.11601 132.179C4.22603 132.551 3.29459 132.853 1.19043 133.101V137.359C19.4591 137.21 29.9307 137.028 29.9307 136.831C29.9307 136.314 28.5865 135.384 26.8288 134.66C24.1406 133.523 23.727 132.799 23.727 129.594C23.727 122.564 32.1019 113.983 42.5448 110.261C49.4722 107.78 63.327 108.09 70.668 110.881C80.4905 114.603 87.8315 122.461 87.8315 129.284C87.8315 134.557 87.3145 134.66 60.2252 134.66C38.6158 134.66 35.1004 134.867 35.1004 136.211C35.1004 137.348 36.2377 137.762 38.7192 137.762C46.7839 137.762 52.4706 143.861 51.2299 151.098C50.9197 153.166 50.4027 156.164 50.0926 157.922L49.4722 161.023L51.8503 157.922C56.0894 152.339 61.9829 147.377 68.0832 144.172C78.7328 138.485 83.3855 137.762 112.439 137.762C132.911 137.762 138.598 137.451 138.288 136.418C137.978 135.591 133.532 134.97 123.399 134.557C115.541 134.247 107.063 133.626 104.788 133.213C97.2404 131.869 93.8284 126.596 95.9996 119.876C97.5506 115.224 100.135 113.052 106.649 110.778C109.648 109.847 112.233 108.503 112.439 107.987C112.646 107.366 104.064 106.746 90.2096 106.436C65.9119 105.919 61.7761 105.195 56.7098 100.439C49.4722 93.7193 55.8826 80.8994 66.5322 80.8994C71.2884 80.8994 69.4273 78.4182 61.6727 74.6963C56.2962 72.1116 52.057 69.0101 46.3704 63.3238C37.6852 54.6394 33.5495 47.6092 31.6884 37.5808C31.068 34.0657 30.1374 31.2742 29.7239 31.2742C29.2069 31.2742 28.8967 39.8553 28.8967 50.4006C28.8967 69.1134 29.0001 69.527 30.8612 68.4931C36.0309 65.8051 44.4059 68.5965 48.1281 74.1794C50.7129 78.2114 50.5061 86.689 47.6111 91.8583C44.5093 97.4412 40.0633 99.9224 33.5495 99.9224C16.386 99.819 2.73795 77.4877 4.39226 52.3649C5.52959 36.2368 10.5959 21.6594 20.5218 5.94472Z" fill="white"/>
</svg>
