<svg width="1366" height="1366" viewBox="0 0 1366 1366" fill="none" xmlns="http://www.w3.org/2000/svg">
<path d="M390 433.6C388.667 616.8 387.067 1147.2 387.867 1148.13C388.267 1148.67 520.133 1149.47 680.8 1150L972.933 1150.93L973.733 938.533C974.267 821.733 974.667 633.333 974.667 520V313.6L891.733 312.8C846 312.4 714.667 311.733 599.867 311.333L390.933 310.666L390 433.6ZM750 325.2L962 326L961.6 542.666C961.467 661.866 960.933 844.4 960.533 948.266L959.6 1137.33H812.8C732.133 1137.33 606 1136.93 532.8 1136.4L399.6 1135.6L400.4 1022.8C400.933 960.8 401.6 781.6 402 624.666C402.4 467.733 403.067 335.6 403.467 331.2L404.133 322.933L471.067 323.6C507.867 324 633.467 324.666 750 325.2Z" fill="white"/>
<path d="M216 329.333C216 359.733 211.2 385.866 204.667 390.133C200.8 392.666 197.867 391.866 191.2 386.533C188.4 384.266 185.867 383.066 185.6 383.733C185.333 384.533 187.867 388.8 191.2 393.333C201.2 406.933 207.867 422.666 211.467 441.066C217.467 472.666 206.4 503.2 184.933 513.866C164.133 524.266 142.933 509.333 148 488C150 479.466 154.533 475.333 161.733 475.466C164.8 475.466 168.4 475.866 169.733 476.533C171.867 477.6 172 476 172 453.6C172 439.466 171.467 429.2 170.667 428.666C170 428.266 169.067 429.2 168.8 430.933C166 444.666 164.4 448.933 160.133 455.6C150.933 469.733 132.267 484.8 118.4 489.333C111.467 491.466 112 493.333 119.467 493.333C127.067 493.333 132.667 496.533 135.467 502.533C137.467 506.666 137.6 510.666 136.8 536.666C136.267 553.733 135.067 570.133 133.867 576C130.133 594.8 120.667 609.6 109.867 614.133C104.667 616.266 88.4 616.666 83.2 614.666C77.6 612.4 76.1333 609.466 76 600C76 578.666 83.0667 559.333 96 545.466C99.6 541.6 102.667 537.733 102.667 537.066C102.667 536.266 100.533 536.133 97.3333 536.666C90.6667 537.733 83.4667 535.466 80 531.066C76.2667 526.266 76.4 512 80.5333 495.866C84.4 480.4 90 468 98 456.4C101.333 451.6 103.733 447.333 103.333 446.933C102.933 446.533 100 448.133 96.8 450.4C93.6 452.8 89.8667 454.666 88.6667 454.666C78.2667 454.666 73.0667 438.133 71.2 398.933C69.4667 360.666 68 378.666 67.8667 440.266C67.8667 474.266 67.3333 553.333 66.8 616C66.1333 678.666 65.8667 730.4 66.2667 730.933C66.5333 731.333 70 729.733 74.1333 727.333C83.0667 721.866 96.4 718.666 109.733 718.666C128 718.666 141.867 725.466 146.933 736.933C150.4 744.8 149.333 750.533 143.2 757.333C137.333 763.733 129.333 767.733 118.667 769.466C103.867 771.866 81.2 766.933 71.0667 759.2C68.5333 757.333 66.2667 756 66 756.133C65.8667 756.4 64.9333 864 64.1333 995.333C62.9333 1180.27 62.1333 1236.8 60.8 1246.67C57.8667 1267.73 53.4667 1281.47 46.1333 1293.2C42.1333 1299.33 42.1333 1299.33 48.9333 1296.67C64.9333 1290.4 67.7333 1290.27 143.067 1289.73L214.667 1289.2V1271.87C214.667 1255.47 213.467 1251.2 211.333 1259.6C208.133 1272.67 190.133 1279.87 159.867 1280C143.067 1280 135.067 1277.6 128.8 1270.67C124.8 1266.13 124 1264.4 124 1259.2C124 1244.93 132.933 1239.47 159.6 1237.33C179.6 1235.73 191.467 1232.53 199.2 1226.67L204.4 1222.8L200.8 1221.33C193.2 1218.53 193.2 1208 200.667 1206.13C205.467 1204.93 210.533 1208.27 211.6 1213.47C213.867 1225.2 214.667 1214.4 214.667 1170.4L214.533 1122L212 1126.8C208.533 1133.33 203.2 1135.47 196.933 1132.8C181.733 1126.53 187.2 1101.33 203.733 1101.33C207.867 1101.33 210.933 1103.33 212.933 1107.07C214.667 1110.27 216 1008 216 883.733C216 797.866 215.467 782.133 212.667 794.533C212.267 796.666 209.733 800.8 207.2 803.733C190.533 823.333 150.4 821.066 141.733 800.133C137.2 789.466 140.533 773.066 148.8 764.8C156.933 756.8 161.733 755.333 179.333 755.333C198 755.333 210 758.4 221.2 765.866C224.933 768.4 228 770.133 228 769.733C228 767.333 215.733 755.2 208.533 750.533C203.867 747.466 200 744.8 200 744.533C200 744.266 203.467 741.733 207.733 738.933C215.867 733.333 228.8 720.4 227.467 719.066C227.067 718.533 225.333 719.466 223.6 721.066C212.267 731.6 181.467 737.733 164.8 732.8C150.133 728.4 141.6 718.4 140.4 704C139.067 689.866 146 678.533 158.533 674C167.2 671.066 183.6 671.333 192.8 674.8C201.867 678.266 211.6 687.066 212.8 693.066C213.333 695.466 214.133 697.6 214.667 698C215.867 698.666 217.067 612.933 218 473.333C218.4 415.733 219.067 356.533 219.467 341.6C220.133 317.733 219.867 314.666 218.133 314.666C216.267 314.666 216 316.933 216 329.333ZM208.133 571.333C208 596.266 207.2 619.6 206.4 623.066C203.867 634.933 192.933 642.933 182.533 640.666C178.8 639.866 177.067 641.6 180 643.333C182.133 644.666 181.6 656.4 179.2 659.733C176.267 664 170.4 666.666 161.733 667.466C151.733 668.4 145.867 665.466 141.733 657.333C138.8 651.6 138.667 650.266 138.667 614.666C138.8 571.866 139.867 560.8 144.933 550.8C149.6 541.733 155.333 538.266 164.4 539.066C169.6 539.466 171.733 540.533 176 544.666C186 554.4 192 574.533 192 598C192 604.933 192.533 610.8 193.2 611.2C193.867 611.6 194.8 594.4 195.333 572.266C196.4 527.733 197.067 524.8 205.2 525.6L208.533 526L208.133 571.333ZM95.0667 626C111.067 632.4 121.733 645.2 126 662.8C131.2 685.066 125.067 698.8 106.133 707.466C99.6 710.4 86 713.333 78.4 713.333H74.6667V675.466C74.6667 654.8 75.0667 634 75.6 629.333L76.4 621.066L81.6 621.866C84.4 622.4 90.5333 624.266 95.0667 626ZM86.9333 776C105.2 778.666 118.4 786.266 124.133 797.466C126 801.2 126.667 805.333 126.667 812.533C126.667 841.6 107.867 863.866 81.0667 866.4L72.9333 867.066L73.7333 845.866C74.2667 834.266 74.6667 813.466 74.6667 799.6C74.6667 780.533 75.0667 774.666 76.4 774.666C77.2 774.666 82 775.333 86.9333 776ZM173.067 824.666C180.533 829.2 183.2 840.266 178.4 846.266C176.8 848.266 177.067 848.266 186.133 848C192.133 847.866 193.733 848.4 197.867 852C206.4 859.6 206.667 861.866 206.667 931.6C206.667 975.6 206.267 993.333 205.2 993.333C202.8 993.333 196.4 985.733 189.733 974.933C182.133 962.4 182.8 963.333 181.733 964.4C181.333 964.933 184.267 972.133 188.4 980.266C197.067 997.466 205.467 1022.13 208.667 1039.47C211.733 1055.33 211.067 1081.87 207.467 1087.2C202 1095.73 187.867 1096.67 179.2 1089.07C176.667 1086.8 174.267 1085.33 173.867 1085.73C173.467 1086.13 174.4 1090 176 1094.27C179.733 1104.4 180.933 1118 178.667 1126.13C177.6 1129.73 174.267 1135.6 171.067 1139.6C167.867 1143.47 165.333 1146.93 165.333 1147.33C165.333 1147.73 168.267 1146.53 171.733 1144.8C182.4 1139.33 191.333 1139.6 198 1145.6C220.8 1165.6 206.267 1205.6 172.267 1216C166.8 1217.73 159.867 1218.67 153.067 1218.67C107.2 1218.67 72.4 1181.87 75.0667 1136C75.4667 1129.2 76.8 1121.73 78.5333 1117.33C84.6667 1101.07 101.467 1092.13 115.067 1097.87C124.533 1101.73 132 1115.47 132 1128.8C132 1132 132.533 1134.8 133.2 1135.2C133.733 1135.6 134.667 1129.6 135.2 1121.73C136.4 1100.8 136.133 973.333 134.8 973.333C134.267 973.333 133.333 977.733 132.933 982.933C131.733 995.866 128.667 1005.87 124.133 1010.93C120.933 1014.53 119.467 1015.07 114.133 1015.07C109.2 1015.07 106.533 1014.13 101.867 1010.8C98.4 1008.4 95.4667 1006.8 95.0667 1007.2C94.6667 1007.47 96.2667 1010.4 98.4 1013.6C106.133 1024.8 106.533 1033.73 99.7333 1040.93C93.8667 1047.2 82.9333 1045.73 77.8667 1038C72.9333 1030.4 78.6667 1006.8 89.2 990.8C93.6 984.133 93.4667 982 88.6667 984.266C86.2667 985.333 84.4 985.333 81.3333 984C74.6667 981.2 73.3333 978.133 73.3333 965.066V953.333H77.0667C81.0667 953.333 90.2667 957.2 96.1333 961.466C100.8 964.8 101.067 963.733 96.9333 958.133C91.0667 950.4 82.9333 935.333 79.4667 925.6C75.3333 914.133 72.6667 894.4 74 884.4C74.8 878.133 75.4667 876.8 79.0667 874.533C85.2 870.933 101.067 870.933 108.8 874.8C123.333 881.733 132.133 900.4 134.133 928.266C136 955.2 137.333 939.6 137.333 889.6C137.333 842.266 137.6 837.6 139.867 832.533C141.2 829.6 144 825.733 146.133 824.133C149.6 821.466 151.067 821.066 159.467 821.6C165.333 822 170.4 823.2 173.067 824.666ZM90.4 1055.2C99.6 1060 103.2 1069.47 99.4667 1079.33C95.8667 1088.53 84 1097.33 75.2 1097.33C72 1097.33 72 1097.07 72 1084.93C72 1078.27 72.4 1067.87 72.8 1061.87L73.7333 1051.07L80 1052.13C83.6 1052.67 88.2667 1054 90.4 1055.2ZM95.6 1211.6C100.933 1215.73 107.333 1223.47 108.533 1227.6C111.067 1235.87 104.133 1240.53 90.9333 1239.73C83.2 1239.2 81.8667 1238.67 78.5333 1234.93C75.3333 1231.33 74.6667 1229.47 74.6667 1223.87C74.6667 1208.27 84 1202.8 95.6 1211.6ZM102.667 1254.4C105.2 1255.6 108.133 1258.4 109.067 1260.4C110.667 1263.6 110.533 1264.67 108.8 1267.33C101.6 1278.27 78.6667 1275.87 78.6667 1264.4C78.6667 1254.13 91.4667 1248.8 102.667 1254.4Z" fill="white"/>
<path d="M216 329.333C216 359.733 211.2 385.866 204.667 390.133C200.8 392.666 197.867 391.866 191.2 386.533C188.4 384.266 185.867 383.066 185.6 383.733C185.333 384.533 187.867 388.8 191.2 393.333C201.2 406.933 207.867 422.666 211.467 441.066C217.467 472.666 206.4 503.2 184.933 513.866C164.133 524.266 142.933 509.333 148 488C150 479.466 154.533 475.333 161.733 475.466C164.8 475.466 168.4 475.866 169.733 476.533C171.867 477.6 172 476 172 453.6C172 439.466 171.467 429.2 170.667 428.666C170 428.266 169.067 429.2 168.8 430.933C166 444.666 164.4 448.933 160.133 455.6C150.933 469.733 132.267 484.8 118.4 489.333C111.467 491.466 112 493.333 119.467 493.333C127.067 493.333 132.667 496.533 135.467 502.533C137.467 506.666 137.6 510.666 136.8 536.666C136.267 553.733 135.067 570.133 133.867 576C130.133 594.8 120.667 609.6 109.867 614.133C104.667 616.266 88.4 616.666 83.2 614.666C77.6 612.4 76.1333 609.466 76 600C76 578.666 83.0667 559.333 96 545.466C99.6 541.6 102.667 537.733 102.667 537.066C102.667 536.266 100.533 536.133 97.3333 536.666C90.6667 537.733 83.4667 535.466 80 531.066C76.2667 526.266 76.4 512 80.5333 495.866C84.4 480.4 90 468 98 456.4C101.333 451.6 103.733 447.333 103.333 446.933C102.933 446.533 100 448.133 96.8 450.4C93.6 452.8 89.8667 454.666 88.6667 454.666C78.2667 454.666 73.0667 438.133 71.2 398.933C69.4667 360.666 68 378.666 67.8667 440.266C67.8667 474.266 67.3333 553.333 66.8 616C66.1333 678.666 65.8667 730.4 66.2667 730.933C66.5333 731.333 70 729.733 74.1333 727.333C83.0667 721.866 96.4 718.666 109.733 718.666C128 718.666 141.867 725.466 146.933 736.933C150.4 744.8 149.333 750.533 143.2 757.333C137.333 763.733 129.333 767.733 118.667 769.466C103.867 771.866 81.2 766.933 71.0667 759.2C68.5333 757.333 66.2667 756 66 756.133C65.8667 756.4 64.9333 864 64.1333 995.333C62.9333 1180.27 62.1333 1236.8 60.8 1246.67C57.8667 1267.73 53.4667 1281.47 46.1333 1293.2C42.1333 1299.33 42.1333 1299.33 48.9333 1296.67C64.9333 1290.4 67.7333 1290.27 143.067 1289.73L214.667 1289.2V1271.87C214.667 1255.47 213.467 1251.2 211.333 1259.6C208.133 1272.67 190.133 1279.87 159.867 1280C143.067 1280 135.067 1277.6 128.8 1270.67C124.8 1266.13 124 1264.4 124 1259.2C124 1244.93 132.933 1239.47 159.6 1237.33C179.6 1235.73 191.467 1232.53 199.2 1226.67L204.4 1222.8L200.8 1221.33C193.2 1218.53 193.2 1208 200.667 1206.13C205.467 1204.93 210.533 1208.27 211.6 1213.47C213.867 1225.2 214.667 1214.4 214.667 1170.4L214.533 1122L212 1126.8C208.533 1133.33 203.2 1135.47 196.933 1132.8C181.733 1126.53 187.2 1101.33 203.733 1101.33C207.867 1101.33 210.933 1103.33 212.933 1107.07C214.667 1110.27 216 1008 216 883.733C216 797.866 215.467 782.133 212.667 794.533C212.267 796.666 209.733 800.8 207.2 803.733C190.533 823.333 150.4 821.066 141.733 800.133C137.2 789.466 140.533 773.066 148.8 764.8C156.933 756.8 161.733 755.333 179.333 755.333C198 755.333 210 758.4 221.2 765.866C224.933 768.4 228 770.133 228 769.733C228 767.333 215.733 755.2 208.533 750.533C203.867 747.466 200 744.8 200 744.533C200 744.266 203.467 741.733 207.733 738.933C215.867 733.333 228.8 720.4 227.467 719.066C227.067 718.533 225.333 719.466 223.6 721.066C212.267 731.6 181.467 737.733 164.8 732.8C150.133 728.4 141.6 718.4 140.4 704C139.067 689.866 146 678.533 158.533 674C167.2 671.066 183.6 671.333 192.8 674.8C201.867 678.266 211.6 687.066 212.8 693.066C213.333 695.466 214.133 697.6 214.667 698C215.867 698.666 217.067 612.933 218 473.333C218.4 415.733 219.067 356.533 219.467 341.6C220.133 317.733 219.867 314.666 218.133 314.666C216.267 314.666 216 316.933 216 329.333ZM208.133 571.333C208 596.266 207.2 619.6 206.4 623.066C203.867 634.933 192.933 642.933 182.533 640.666C178.8 639.866 177.067 641.6 180 643.333C182.133 644.666 181.6 656.4 179.2 659.733C176.267 664 170.4 666.666 161.733 667.466C151.733 668.4 145.867 665.466 141.733 657.333C138.8 651.6 138.667 650.266 138.667 614.666C138.8 571.866 139.867 560.8 144.933 550.8C149.6 541.733 155.333 538.266 164.4 539.066C169.6 539.466 171.733 540.533 176 544.666C186 554.4 192 574.533 192 598C192 604.933 192.533 610.8 193.2 611.2C193.867 611.6 194.8 594.4 195.333 572.266C196.4 527.733 197.067 524.8 205.2 525.6L208.533 526L208.133 571.333ZM95.0667 626C111.067 632.4 121.733 645.2 126 662.8C131.2 685.066 125.067 698.8 106.133 707.466C99.6 710.4 86 713.333 78.4 713.333H74.6667V675.466C74.6667 654.8 75.0667 634 75.6 629.333L76.4 621.066L81.6 621.866C84.4 622.4 90.5333 624.266 95.0667 626ZM86.9333 776C105.2 778.666 118.4 786.266 124.133 797.466C126 801.2 126.667 805.333 126.667 812.533C126.667 841.6 107.867 863.866 81.0667 866.4L72.9333 867.066L73.7333 845.866C74.2667 834.266 74.6667 813.466 74.6667 799.6C74.6667 780.533 75.0667 774.666 76.4 774.666C77.2 774.666 82 775.333 86.9333 776ZM173.067 824.666C180.533 829.2 183.2 840.266 178.4 846.266C176.8 848.266 177.067 848.266 186.133 848C192.133 847.866 193.733 848.4 197.867 852C206.4 859.6 206.667 861.866 206.667 931.6C206.667 975.6 206.267 993.333 205.2 993.333C202.8 993.333 196.4 985.733 189.733 974.933C182.133 962.4 182.8 963.333 181.733 964.4C181.333 964.933 184.267 972.133 188.4 980.266C197.067 997.466 205.467 1022.13 208.667 1039.47C211.733 1055.33 211.067 1081.87 207.467 1087.2C202 1095.73 187.867 1096.67 179.2 1089.07C176.667 1086.8 174.267 1085.33 173.867 1085.73C173.467 1086.13 174.4 1090 176 1094.27C179.733 1104.4 180.933 1118 178.667 1126.13C177.6 1129.73 174.267 1135.6 171.067 1139.6C167.867 1143.47 165.333 1146.93 165.333 1147.33C165.333 1147.73 168.267 1146.53 171.733 1144.8C182.4 1139.33 191.333 1139.6 198 1145.6C220.8 1165.6 206.267 1205.6 172.267 1216C166.8 1217.73 159.867 1218.67 153.067 1218.67C107.2 1218.67 72.4 1181.87 75.0667 1136C75.4667 1129.2 76.8 1121.73 78.5333 1117.33C84.6667 1101.07 101.467 1092.13 115.067 1097.87C124.533 1101.73 132 1115.47 132 1128.8C132 1132 132.533 1134.8 133.2 1135.2C133.733 1135.6 134.667 1129.6 135.2 1121.73C136.4 1100.8 136.133 973.333 134.8 973.333C134.267 973.333 133.333 977.733 132.933 982.933C131.733 995.866 128.667 1005.87 124.133 1010.93C120.933 1014.53 119.467 1015.07 114.133 1015.07C109.2 1015.07 106.533 1014.13 101.867 1010.8C98.4 1008.4 95.4667 1006.8 95.0667 1007.2C94.6667 1007.47 96.2667 1010.4 98.4 1013.6C106.133 1024.8 106.533 1033.73 99.7333 1040.93C93.8667 1047.2 82.9333 1045.73 77.8667 1038C72.9333 1030.4 78.6667 1006.8 89.2 990.8C93.6 984.133 93.4667 982 88.6667 984.266C86.2667 985.333 84.4 985.333 81.3333 984C74.6667 981.2 73.3333 978.133 73.3333 965.066V953.333H77.0667C81.0667 953.333 90.2667 957.2 96.1333 961.466C100.8 964.8 101.067 963.733 96.9333 958.133C91.0667 950.4 82.9333 935.333 79.4667 925.6C75.3333 914.133 72.6667 894.4 74 884.4C74.8 878.133 75.4667 876.8 79.0667 874.533C85.2 870.933 101.067 870.933 108.8 874.8C123.333 881.733 132.133 900.4 134.133 928.266C136 955.2 137.333 939.6 137.333 889.6C137.333 842.266 137.6 837.6 139.867 832.533C141.2 829.6 144 825.733 146.133 824.133C149.6 821.466 151.067 821.066 159.467 821.6C165.333 822 170.4 823.2 173.067 824.666ZM90.4 1055.2C99.6 1060 103.2 1069.47 99.4667 1079.33C95.8667 1088.53 84 1097.33 75.2 1097.33C72 1097.33 72 1097.07 72 1084.93C72 1078.27 72.4 1067.87 72.8 1061.87L73.7333 1051.07L80 1052.13C83.6 1052.67 88.2667 1054 90.4 1055.2ZM95.6 1211.6C100.933 1215.73 107.333 1223.47 108.533 1227.6C111.067 1235.87 104.133 1240.53 90.9333 1239.73C83.2 1239.2 81.8667 1238.67 78.5333 1234.93C75.3333 1231.33 74.6667 1229.47 74.6667 1223.87C74.6667 1208.27 84 1202.8 95.6 1211.6ZM102.667 1254.4C105.2 1255.6 108.133 1258.4 109.067 1260.4C110.667 1263.6 110.533 1264.67 108.8 1267.33C101.6 1278.27 78.6667 1275.87 78.6667 1264.4C78.6667 1254.13 91.4667 1248.8 102.667 1254.4Z" fill="white"/>
<path d="M1148 508C1148 624 1148.53 700 1149.2 700C1149.87 700 1150.8 698.266 1151.33 696.266C1152.67 690 1159.47 683.066 1169.07 678.4C1177.07 674.4 1179.07 674 1190 674C1203.73 674 1210.27 675.866 1216.8 681.733C1223.2 687.333 1225.47 692.399 1225.47 700.799C1225.47 715.599 1219.6 726 1207.6 732C1200.53 735.466 1198.13 736 1188.4 736C1169.07 736 1149.07 730.266 1140.4 722.266C1138.67 720.799 1137.33 720.266 1137.33 721.066C1137.33 723.733 1148.13 734.666 1156.27 740.266C1163.33 744.933 1165.87 748 1162.8 748C1158.27 748 1134.13 769.2 1136.27 771.333C1136.53 771.733 1139.73 769.866 1143.33 767.2C1154.13 759.6 1165.73 756.666 1185.33 756.666C1201.2 756.666 1202.27 756.799 1209.07 760.533C1226.93 770.533 1232.13 793.333 1219.73 807.466C1212.27 815.866 1206.53 818 1190.67 818C1178 818 1175.87 817.6 1169.07 814.266C1160.93 810.266 1153.87 803.333 1151.73 797.066C1151.07 795.066 1149.87 793.333 1149.2 793.333C1148.53 793.333 1148 858.8 1148 952.666C1148 1058 1148.4 1112 1149.33 1112C1150.13 1112 1150.67 1111.33 1150.67 1110.67C1150.67 1107.73 1156.13 1104 1160.4 1104C1170.13 1104 1177.2 1113.07 1175.6 1123.6C1174.4 1130.27 1171.47 1134.13 1166.13 1136C1160 1138 1154.8 1135.73 1151.73 1129.6C1150.53 1127.07 1149.2 1124.8 1148.8 1124.4C1148.4 1123.87 1148 1145.6 1148 1172.4C1148 1199.33 1148.53 1221.33 1149.07 1221.33C1149.73 1221.33 1150.8 1219.07 1151.47 1216.4C1153.6 1207.87 1162.8 1205.6 1167.47 1212.67C1170.13 1216.8 1167.6 1222.53 1162.4 1223.6C1160.4 1224 1158.67 1224.67 1158.67 1225.2C1158.67 1227.07 1173.33 1234.93 1180.27 1236.67C1184.13 1237.73 1194.8 1239.2 1204 1240C1223.6 1241.73 1230.4 1243.87 1236 1250.13C1239.07 1253.73 1240 1256 1240 1260.4C1240 1276.8 1223.07 1284.13 1191.6 1281.33C1168.53 1279.33 1154.93 1272.93 1151.87 1262.67C1150.93 1259.73 1149.73 1257.33 1149.07 1257.33C1148.53 1257.33 1148 1264.8 1148 1273.87V1290.4L1203.07 1290.93L1258 1291.33H1273C1283 1291.33 1287.5 1291.33 1295 1291.33C1295 1285.67 1299.1 1287.5 1299.5 1287.5C1299.9 1287.5 1291.87 1285 1297.5 1288C1297.5 1288 1297.5 1288.5 1295.5 1285C1293.5 1281.5 1307.03 1286.8 1304.5 1280C1303.3 1276.8 1306.53 1267.2 1304.93 1260.67C1302.13 1248.67 1302.13 1248.27 1301.73 1003.6C1301.47 868.933 1300.93 758.666 1300.67 758.666C1300.27 758.666 1297.73 760.133 1294.93 762C1284.8 768.666 1275.33 771.066 1258 771.2C1243.87 771.333 1241.2 770.933 1235.07 768.133C1231.2 766.4 1225.6 762.4 1222.67 759.2C1218 754.133 1217.33 752.666 1217.33 747.066C1217.33 733.2 1229.2 723.333 1249.07 720.799C1262.4 719.066 1286.93 724.133 1295.87 730.666C1298 732.133 1300.13 733.333 1300.53 733.333C1300.93 733.333 1301.33 653.866 1301.33 556.666C1301.33 453.2 1300.8 380 1300.13 380C1299.47 380 1298.53 388.266 1298.13 398.266C1296.53 429.733 1293.33 446 1287.47 452.4C1283.07 457.066 1279.07 456.933 1272.13 451.866C1268.93 449.599 1266.13 448.133 1265.73 448.4C1265.33 448.8 1267.6 452.799 1270.67 457.466C1287.73 482.533 1296.8 518.133 1289.33 530.4C1285.47 536.666 1276 539.6 1268.4 536.933C1263.6 535.2 1264.67 538 1272.8 547.733C1286.13 563.866 1292 580 1292 600.933C1292 609.466 1291.6 611.2 1288.8 614C1285.07 617.733 1276.27 619.333 1266 618.266C1249.73 616.666 1238.93 604.933 1233.2 583.2C1231.07 574.666 1230.4 566.8 1229.73 542.666C1228.93 508.933 1229.6 503.6 1236.13 498.133C1239.33 495.466 1241.6 494.666 1246.8 494.666C1250.4 494.666 1253.33 494.133 1253.33 493.466C1253.33 492.799 1250.4 491.2 1246.8 490C1224.27 482.533 1201.07 457.2 1199.07 438C1198.67 434 1197.6 430.666 1196.8 430.666C1195.47 430.666 1194.8 454.933 1195.73 472.933C1196 478.4 1196 478.399 1199.73 477.066C1210.53 472.933 1222 485.866 1219.33 499.066C1214.67 520.933 1190.67 526.533 1172.4 510.133C1150.27 490.266 1147.07 449.466 1164.53 412.666C1167.6 406.133 1172.8 397.599 1175.73 393.733C1178.8 389.866 1181.33 386.4 1181.33 386C1181.33 384.4 1178.67 385.599 1174 389.333C1164.93 396.533 1159.33 393.733 1155.47 380C1153.07 371.733 1150.8 345.466 1150.67 326.933C1150.67 320.533 1150.13 316 1149.33 316C1148.4 316 1148 380.933 1148 508ZM1167.2 531.066C1169.87 534.666 1170 536.933 1170.67 574.4C1171.2 608.666 1171.47 612.133 1172.4 600.666C1174.53 576.133 1179.33 559.333 1187.2 548.933C1197.47 535.466 1214.13 537.866 1222.13 554.266L1226 562L1226.4 608.266C1226.93 659.733 1226.67 661.599 1218.13 666.799C1209.73 671.866 1190.67 668.933 1186.13 662C1183.73 658.4 1183.33 647.733 1185.33 643.866C1186.67 641.6 1186.4 641.466 1181.07 642.133C1172.67 643.2 1164.4 638.533 1160.4 630.666C1157.6 624.8 1157.47 623.199 1157.2 577.333C1157.07 551.333 1157.07 529.2 1157.2 528.266C1157.47 525.2 1164.27 527.066 1167.2 531.066ZM1292 669.333C1292 705.733 1291.6 716 1290.4 716C1289.47 716 1284.67 715.333 1279.6 714.666C1248.8 710.133 1234.8 695.2 1238.8 670.666C1241.87 651.6 1250.4 638.799 1265.33 630.799C1271.73 627.333 1284.13 623.466 1291.07 622.799C1291.6 622.666 1292 643.599 1292 669.333ZM1292 823.466V869.733L1285.73 868.933C1264.27 866.4 1246.67 851.733 1240.67 831.466C1237.73 821.466 1238 806.133 1241.47 799.066C1247.6 786.4 1264.8 778.133 1286.4 777.466L1292 777.333V823.466ZM1220.8 828.266C1223.2 830.933 1225.73 835.333 1226.53 838.266C1227.47 841.466 1228 862.133 1228 893.733C1228 927.066 1228.4 943.866 1229.33 943.333C1230.13 942.933 1230.67 938.8 1230.67 934.266C1230.8 921.6 1234 906.266 1238.67 896.4C1246.4 879.733 1258.53 872.266 1275.73 873.733C1285.6 874.533 1290.53 877.466 1292.4 883.466C1294.27 890.133 1292.27 912.266 1288.67 923.6C1285.2 934.533 1276 951.733 1269.2 960.266C1264.53 966.133 1265.87 966.666 1272.8 962C1279.6 957.333 1290.8 954.133 1292.27 956.266C1294 959.066 1293.47 974.4 1291.47 979.333C1289.07 985.066 1285.07 987.066 1277.87 986.266C1274.67 986 1272 985.866 1272 986C1272 986.133 1274.13 989.733 1276.67 994C1287.33 1011.73 1292.27 1029.07 1289.33 1038C1285.2 1050.53 1266.93 1051.2 1261.87 1039.07C1259.07 1032.67 1260.53 1025.47 1266.13 1017.07C1268.67 1013.33 1270.53 1010.13 1270.27 1009.87C1270 1009.6 1266.53 1011.07 1262.53 1013.33C1244.67 1023.2 1233.87 1014 1232.27 987.6C1232 981.2 1231.07 975.6 1230.53 975.2C1229.87 974.8 1229.33 1011.47 1229.33 1057.33C1229.33 1112.27 1229.73 1139.87 1230.67 1139.33C1231.47 1138.93 1232 1136 1232 1132.8C1232 1112.67 1247.33 1096 1262.8 1099.33C1269.07 1100.67 1276.13 1104.4 1279.47 1108.27C1293.07 1123.07 1293.73 1156.27 1280.93 1180.67C1274.8 1192.53 1260.27 1206.53 1248 1212.4C1233.33 1219.6 1223.33 1221.73 1207.33 1221.07C1194.8 1220.67 1192.93 1220.27 1183.6 1215.6C1172 1209.87 1164.13 1202 1158.8 1190.67C1156 1184.67 1155.33 1181.47 1155.33 1172.67C1155.33 1160.13 1158 1153.87 1165.87 1147.47C1172.53 1142 1181.87 1141.87 1192 1147.07C1195.87 1149.07 1199.33 1150.53 1199.6 1150.13C1199.87 1149.87 1197.07 1146.13 1193.33 1142C1189.47 1137.47 1186 1132 1185.2 1128.8C1183.2 1121.33 1184.53 1106.27 1188 1096.93C1191.33 1088 1190.8 1086.13 1186.13 1091.07C1182.13 1095.33 1178 1096.53 1168.53 1095.73C1155.6 1094.67 1152.4 1088.53 1152.13 1064.93C1151.87 1045.2 1162 1010.27 1176 982.4C1184.13 966.4 1184.93 959.866 1177.33 972.266C1170.8 982.933 1162.93 993.066 1159.87 994.666L1157.2 996.133L1157.6 931.733C1158 869.066 1158.13 867.2 1160.93 861.066C1164.67 852.8 1169.2 850 1178.8 850C1185.6 850.133 1186.27 849.866 1185.2 847.733C1184.53 846.533 1184 842.8 1184 839.466C1184 828.533 1193.47 822.266 1208.53 823.066C1215.6 823.466 1216.8 824 1220.8 828.266ZM1293.07 1077.6L1292.67 1100.67L1288.8 1100.27C1279.33 1099.2 1268.4 1090.13 1265.33 1080.67C1263.07 1073.73 1264.67 1067.47 1270.13 1062C1275.07 1057.07 1280.27 1054.93 1288.4 1054.8L1293.33 1054.67L1293.07 1077.6ZM1282 1210.93C1286.67 1213.07 1289.33 1218.53 1289.33 1225.87C1289.33 1237.47 1283.6 1242.93 1271.33 1243.2C1260.27 1243.33 1253.33 1237.07 1256.27 1229.33C1258.4 1223.6 1273.6 1209.33 1277.6 1209.33C1278.13 1209.33 1280.13 1210 1282 1210.93ZM1281.2 1258.13C1288.93 1264.53 1285.73 1273.07 1274.4 1276C1260.8 1279.73 1248.8 1268.67 1256.8 1259.73C1260.27 1256 1263.47 1254.8 1270.93 1254.8C1275.73 1254.67 1278 1255.47 1281.2 1258.13Z" fill="white"/>
<path d="M451 157.192V155.272L506.936 77.32H478.648C467.128 77.32 467.896 92.168 473.272 108.296H470.584L456.376 72.456H523.704V74.376L468.408 152.328H512.312C513.592 151.048 519.736 143.496 513.592 133.128C508.216 124.04 510.008 114.184 514.232 108.552L515.768 109.448C515.768 109.448 509.624 119.048 519.096 129.288C526.264 137.096 532.28 146.696 525.496 157.192H451Z" fill="white"/>
<path d="M606.975 139.784C609.791 147.336 612.607 154.376 620.031 154.76V157.192H589.055V154.76C600.575 154.248 598.143 149 594.687 139.528L585.855 115.08L542.463 159.496C531.711 134.536 545.023 117 561.151 102.024C570.495 93.32 575.871 87.432 573.951 82.056C570.751 74.888 558.463 74.888 558.463 74.888V72.456H582.399L606.975 139.784ZM554.751 140.04L584.191 110.344L576.767 89.736C575.103 92.68 572.287 96.392 568.063 100.872C552.959 116.744 550.655 129.416 554.751 140.04Z" fill="white"/>
<path d="M704.274 159.112C695.826 158.472 687.25 155.144 677.138 139.784C664.85 120.968 657.682 109.064 651.794 100.488L652.306 98.696C667.026 111.496 682.514 103.816 682.514 91.528C682.514 78.6 671.89 73.608 660.37 73.608C653.33 73.608 648.594 76.04 648.594 81.16H648.466V143.24C648.466 152.584 650.258 154.12 660.114 154.76V157.192H624.53V154.76C634.13 153.992 635.282 152.712 635.41 141.832V86.536C635.282 77.192 634.002 76.04 624.53 75.016V72.584C645.906 72.584 652.05 69 664.978 69C687.25 69 695.058 82.056 695.058 90.76C695.058 104.584 677.65 110.344 670.482 108.552L687.25 134.152C696.466 148.104 702.186 154.504 711.402 153.992L715.282 155.528V157.192C715.282 157.192 708.754 159.496 704.274 159.112Z" fill="white"/>
<path d="M711.402 157.192V153.992H714.218C722.922 153.736 722.154 149.256 722.41 140.424V89.096C722.154 80.392 723.05 76.168 714.218 75.528H711.402V72.456H746.218V75.528H743.402C734.826 75.912 735.082 80.392 735.082 89.096V140.424C735.082 149 735.082 153.864 743.786 153.992H746.218V157.192H711.402Z" fill="white"/>
<path d="M823.993 159.496C823.993 154.76 823.609 151.176 821.433 143.752C814.777 122.248 775.225 111.112 769.081 99.464V138.376C769.081 151.56 771.257 154.248 781.113 154.76V157.192H750.905V154.76C761.401 154.12 763.065 151.944 763.321 138.376V88.584C763.321 78.216 756.409 74.888 750.905 74.888V72.456H769.337C779.193 102.28 811.449 103.944 822.201 121.864V91.272C821.817 77.704 820.153 75.528 809.913 74.888V72.456H839.993V74.888C829.881 75.784 828.217 77.96 827.833 91.272V159.496H823.993Z" fill="white"/>
<path d="M906.505 139.784C909.321 147.336 912.137 154.376 919.561 154.76V157.192H888.585V154.76C900.105 154.248 897.673 149 894.217 139.528L885.385 115.08L841.993 159.496C831.241 134.536 844.553 117 860.681 102.024C870.025 93.32 875.401 87.432 873.481 82.056C870.281 74.888 857.993 74.888 857.993 74.888V72.456H881.929L906.505 139.784ZM854.281 140.04L883.721 110.344L876.297 89.736C874.633 92.68 871.817 96.392 867.593 100.872C852.489 116.744 850.185 129.416 854.281 140.04Z" fill="white"/>
<path d="M596.36 199.784C591.688 200.104 590.792 200.936 590.792 205.544V233.96C590.792 238.632 591.752 239.528 596.36 239.784V241H578.376V239.784C583.496 239.464 584.2 238.76 584.264 233.256V204.264C582.088 213.224 570.12 220.776 569.544 241.896H568.648L550.856 204.264V231.528C550.856 238.184 551.944 239.528 556.872 239.784V241H541.832V239.784C547.08 239.464 547.912 238.376 548.04 231.528V205.544C547.912 200.744 547.208 200.04 541.96 199.784V198.568H555.08L568.84 228.392C573.256 213.032 580.168 212.008 582.6 198.568H596.36V199.784ZM599.027 241V239.4H600.435C604.787 239.272 604.403 237.032 604.531 232.616V206.952C604.403 202.6 604.851 200.488 600.435 200.168H599.027V198.632H616.435V200.168H615.027C610.739 200.36 610.867 202.6 610.867 206.952V232.616C610.867 236.904 610.867 239.336 615.219 239.4H616.435V241H599.027ZM651.675 225.256C655.387 229.608 658.523 234.984 655.259 241H618.331V239.784C622.939 239.528 623.899 238.632 623.899 234.024V205.608C623.899 201 623.003 200.168 618.331 199.848V198.632H636.378V199.848C631.387 200.104 630.427 200.936 630.427 205.608V235.88C630.491 238.184 631.003 238.504 635.931 238.504H648.475C648.475 238.504 652.507 233.896 648.987 227.496C646.171 222.376 646.875 216.872 648.987 213.672L649.755 214.184C649.755 214.184 646.875 219.624 651.675 225.256ZM683.105 217.448C687.073 217.448 685.153 213.992 685.025 213.672H686.497L691.745 224.36H690.273C688.545 221.544 685.601 220.072 679.073 220.072H670.177V235.88C670.177 238.376 671.137 238.632 674.913 238.632H678.561C685.665 238.632 690.913 234.792 694.433 229.48L695.457 230.184L689.505 241H658.081V239.784C662.689 239.528 663.521 238.632 663.649 234.024V205.608C663.521 201 662.753 200.168 658.081 199.848V198.632H679.969C683.937 198.632 681.889 194.856 681.889 194.856H683.361L689.761 207.784H688.161C684.769 202.088 681.889 201.064 675.617 201.064H672.289C670.497 201.064 670.241 201.32 670.177 203.24V217.448H683.105ZM733.51 242.152C733.51 239.784 733.318 237.992 732.23 234.28C728.902 223.528 709.126 217.96 706.054 212.136V231.592C706.054 238.184 707.142 239.528 712.07 239.784V241H696.966V239.784C702.214 239.464 703.046 238.376 703.174 231.592V206.696C703.174 201.512 699.718 199.848 696.966 199.848V198.632H706.182C711.11 213.544 727.238 214.376 732.614 223.336V208.04C732.422 201.256 731.59 200.168 726.47 199.848V198.632H741.51V199.848C736.454 200.296 735.622 201.384 735.43 208.04V242.152H733.51ZM764.667 197.736C770.811 197.736 776.187 200.04 780.219 204.456C783.739 208.232 785.595 213.736 785.595 220.072C785.595 233 776.891 241.896 764.283 241.896C758.651 241.896 752.955 239.4 749.243 235.368C745.786 231.72 743.739 225.832 743.739 219.816C743.739 206.888 752.443 197.736 764.667 197.736ZM764.667 200.04C761.147 200.04 758.01 201.448 755.515 204.2C752.827 207.208 751.035 213.416 751.035 219.944C751.035 227.048 753.147 233.512 756.411 236.456C758.715 238.44 761.595 239.592 764.539 239.592C767.931 239.592 770.811 238.44 773.051 236.2C774.523 234.728 775.611 233.128 776.187 231.528C777.467 228.2 778.299 223.784 778.299 220.008C778.299 212.392 776.315 206.376 772.859 203.24C770.555 201.192 767.611 200.04 764.667 200.04ZM814.988 198.632H828.108V199.848C825.036 200.04 824.332 200.744 822.22 205.8C817.292 220.712 810.252 222.76 808.332 238.184L808.012 241.704H807.052L791.308 206.568C788.556 200.872 787.66 199.976 784.524 199.848V198.632H801.548V199.848C800.716 199.912 800.012 199.976 799.692 199.976C797.644 200.104 796.748 200.68 796.748 201.96C796.748 202.92 797.26 204.328 799.372 209.064L808.012 228.392C810.188 221.288 815.116 216.424 818.444 207.208C819.212 205.288 819.66 203.56 819.66 202.536C819.66 200.744 818.508 200.04 814.988 199.848V198.632Z" fill="white"/>
<path d="M1301.98 1217C1302.35 1234.72 1302.74 1243.61 1303.2 1247C1306.13 1268.07 1310.53 1281.8 1317.87 1293.53C1321.87 1299.67 1321.87 1299.67 1315.07 1297C1307.23 1293.93 1302.56 1292.33 1291 1291.44V1217H1301.98Z" fill="white"/>
<path d="M390.4 55.999C391.067 56.0039 392 68.1358 392.4 82.9326C393.6 127.732 398.4 138.399 412.933 128.133C416.265 125.734 419.465 124.001 420 124.266C420.666 124.532 418.4 128.267 415.2 132.533C406.4 144.133 402.932 150.533 397.866 164.666C391.466 182.533 389.6 198.799 392.4 212.399C396.4 231.866 405.733 246 418.933 252.533C432.8 259.466 448.533 255.732 454.4 243.999C460.266 232.266 457.066 219.599 446.667 214.399C441.467 211.733 433.2 211.333 429.2 213.333C426.667 214.8 426.667 214.265 426.933 190.666C427.2 175.869 427.867 166.669 428.667 166.666C429.467 166.667 430.399 170 430.799 174.266C432.933 195.199 453.733 217.2 479.066 225.333C485.733 227.466 485.333 228.799 477.866 229.732C469.2 230.666 462.666 237.2 461.733 245.866C460.8 253.066 463.2 257.466 469.733 260.933C473.333 262.933 478.533 263.466 501.733 263.999C518.795 264.399 529.327 265.199 529.333 265.999C529.466 266.666 526.8 267.732 523.466 268.266C512.4 269.866 505.333 276.533 505.333 285.333C505.333 296.799 510.267 298.399 549.599 299.466C583.999 300.266 583.066 300.666 567.733 291.999C549.733 281.866 535.999 265.333 521.333 236.133C511.333 216.133 504.933 206.399 496.533 198.666C492.4 195.066 488.533 191.999 487.866 191.999C487.2 191.999 486.667 191.466 486.667 190.8C486.668 190.133 490.4 189.999 495.066 190.266C506.266 191.199 507.2 190.133 508 172.8L508.535 162H524.424L524.667 187.999C524.933 218.665 526.133 227.333 532.533 244.533C536.933 255.999 541.467 263.733 548.933 271.999C561.066 285.466 582.667 297.999 604.667 304.133C610.532 305.732 615.731 307.466 616.266 307.866C616.798 308.266 565.599 308.532 502.667 308.266L388.133 307.866L387.733 344.933C387.466 365.333 387.2 425.733 386.933 479.333C386.533 583.199 385.866 596.933 379.2 627.333C374.533 649.333 362.666 679.199 351.066 698.399C342.399 712.933 329.333 729.866 311.333 749.999C272.133 794.132 253.066 831.466 244 881.866C239.866 904.665 240.533 910.666 247.333 910.666C251.199 910.666 253.333 908.133 253.333 903.866C253.333 900.266 251.066 896.933 247.733 895.6C244.801 894.399 253.2 888.266 262 885.199C273.2 881.199 297.2 880.266 310 883.199C335.466 889.199 356.4 906.666 370.933 933.866L375.866 943.333L376 936.666C377.2 867.999 361.6 815.866 325.733 768.266C316.267 755.734 314.934 753.333 317.2 753.333C318 753.334 322.001 757.333 326.133 762.266C349.733 790.799 370.8 833.866 378.4 869.333C384.267 896.533 384.4 899.067 384.133 1027.47C384 1095.05 384.267 1150.64 384.933 1151.07C385.647 1151.47 518.829 1152.27 680.933 1152.8L975.733 1153.73L976.4 1028.53C976.8 920.667 977.2 901.333 979.2 889.333C984.667 854.266 996.266 822.799 1014.8 792.933C1022.93 780 1040.8 756.535 1043.33 755.466C1046.8 754.266 1045.47 757.333 1039.6 765.066C1011.07 802.533 993.999 841.733 987.333 886.133C984.666 903.466 983.067 943.463 984.933 942.266C985.734 941.731 988.8 936.932 991.866 931.6C1005.73 906.533 1024.8 890.933 1049.33 884.399C1066.8 879.866 1093.87 882.133 1108.53 889.6C1117.6 894.133 1117.73 894.533 1113.33 898.666C1108.67 903.066 1108.4 905.2 1111.87 909.466C1114 912.132 1114.8 912.399 1117.87 910.933C1122.67 908.799 1123.2 904.666 1120.8 889.066C1114.93 852.133 1102.27 819.2 1082.27 789.333C1074.27 777.333 1068.67 770.399 1052.4 752.266C1024.8 721.466 1014.53 706.932 1002 680.933C988.133 652.133 981.467 627.999 978.667 597.333C977.867 588.132 977.333 526.665 977.333 445.6V309.333H863.066C800.278 309.333 749.352 308.933 749.866 308.399C750.266 307.866 755.6 306.133 761.733 304.399C767.733 302.666 778.8 298.266 786.4 294.532C797.333 289.199 802.267 285.866 810.4 277.999C834.915 254.603 842.705 229.582 843.851 164.667L859.922 148.335C860.4 156.08 859.899 168.939 860.266 175.732C860.8 185.599 861.333 187.466 864 189.6C866.399 191.599 868.4 191.866 873.866 191.333C880.666 190.533 880.666 190.533 877.333 192.8C867.999 199.333 857.733 212 849.466 227.333C825.2 272.666 816.933 282.533 794 294.399L784.667 299.333L811.333 299.732C845.599 300.266 851.333 299.599 856.4 294.532C859.866 291.066 860.266 289.866 859.599 285.199C858.399 276.533 851.2 270.266 840.133 268.532C828.134 266.666 835.867 265.333 859.466 265.333C886.933 265.333 894.133 264.133 900 258.666C903.2 255.733 904 253.866 904 249.333C904 238.667 896.4 230.666 886.4 230.666C881.201 230.666 879.6 228.533 883.733 227.066C884.933 226.666 890.933 224 897.066 221.066C918.399 210.933 933.999 191.866 935.599 173.466C935.999 169.068 936.799 165.336 937.333 165.333C938.533 165.333 940 185.866 940 202.266C940 214.799 939.999 214.799 937.066 213.732C931.866 211.866 922 212.799 917.466 215.466C908.667 220.532 905.733 232.799 910.533 243.466C914.933 253.199 925.466 258.4 936.533 256.533C964.933 251.867 981.866 212.533 972 174.133C968.8 161.2 960.533 143.599 952.667 132.666C949.334 128.001 946.668 123.735 946.667 123.333C946.667 122.8 948.934 124.133 951.733 126.266C958 131.199 959.867 131.866 963.733 130.533C970.666 127.867 974.667 111.066 975.867 78.666C976.4 65.0687 977.2 56.8024 978 56.9326C978.933 57.1993 979.466 96.2661 979.599 170.266C979.733 266.399 979.466 282.399 978 276.933C975.733 268.933 972.666 265.333 967.866 265.333C962.4 265.334 958.667 270.8 958.667 278.933C958.667 290.932 965.067 298.399 976.266 299.732L983.333 300.666L984 314.266C984.666 326.799 984.934 328.266 988.133 331.466C990.533 333.866 993.6 335.2 997.733 335.6L1003.87 336.399L1000.67 340.532C992.133 351.732 985.333 373.066 987.2 383.066C988.533 390.266 994.534 394.666 1002.93 394.666C1011.6 394.666 1017.33 389.599 1017.33 381.732C1017.33 376.266 1012.4 364.399 1008.93 361.466C1004.27 357.6 1008.4 357.733 1016.8 361.6C1024.27 365.066 1026.53 365.6 1034.4 365.066C1046.67 364.4 1056.93 359.332 1067.47 348.532C1076.93 339.066 1083.47 326.799 1084.93 316.133C1087.07 301.733 1088.67 308.4 1089.07 332.532L1089.33 356.399L1083.2 355.466C1074.67 354.399 1068.13 356.399 1062.67 361.999C1058.27 366.532 1058 367.333 1058 375.866C1058 383.732 1058.53 385.466 1061.73 389.732C1066.93 396.666 1072.53 399.199 1082 399.199C1100.27 399.333 1117.07 382.666 1122.67 358.8C1124.8 349.733 1123.73 323.733 1120.67 312.666C1117.73 301.866 1108 282.266 1101.33 273.6C1098.27 269.6 1096 265.867 1096.27 265.066C1096.53 264.4 1099.07 265.733 1101.87 267.999C1111.33 275.466 1115.73 274.933 1120.8 266.133C1125.73 257.333 1129.33 234.266 1129.33 210.266C1129.33 203.201 1129.87 197.336 1130.53 197.333C1132.13 197.333 1133.73 408.132 1132.93 507.999C1132.27 595.066 1132 600.133 1124.53 628.533C1120 645.733 1114 661.333 1105.6 678.266C1095.2 698.799 1070.4 734.666 1066.53 734.666C1064.13 734.666 1065.47 731.998 1073.87 720.933C1105.73 678.533 1125.6 617.066 1123.73 566.666L1123.33 555.333L1117.73 554.933C1112.8 554.533 1111.87 554.933 1110.53 557.866C1108.27 562.533 1110 567.599 1114.27 568.933L1117.87 570.133L1113.07 573.732C1103.47 581.199 1081.6 586.133 1066 584.533C1053.47 583.333 1038.8 578.932 1029.33 573.732C1017.07 566.932 1000.67 550.132 992.533 535.999L986 524.8L985.599 547.999C984.666 597.466 992.933 637.2 1011.87 675.6C1025.33 702.8 1032.8 712.8 1070.8 755.333C1104.93 793.466 1126.53 843.2 1131.87 895.866C1133.47 910.801 1134 1279.05 1132.53 1286.53L1131.73 1290.67H1104.27L1103.33 1285.6C1100.67 1271.47 1089.2 1257.47 1074.93 1251.07C1060.4 1244.53 1036.4 1245.6 1021.07 1253.47C1008.93 1259.6 1000.93 1271.2 999.2 1284.93L998.266 1292H848.266L846.799 1286.13C841.733 1265.87 814.399 1259.07 799.866 1274.27C794.666 1279.6 790.667 1286.53 790.667 1290C790.667 1291.73 788.266 1292 774.533 1292C764.267 1292 758.8 1291.47 759.333 1290.67C759.733 1289.87 760.799 1289.33 761.599 1289.33C765.466 1289.33 771.866 1284.67 774.799 1279.6C779.333 1271.73 779.333 1253.2 774.799 1238.67C761.999 1197.2 728.266 1173.2 682.667 1173.07C629.334 1172.8 594.133 1199.2 584.667 1246.53C580.267 1268 583.867 1280.93 595.733 1286.67C599.599 1288.53 602.666 1290.4 602.667 1290.93C602.667 1291.6 595.866 1292 587.466 1292H572.266L570.132 1285.6C564.799 1269.6 545.199 1260.93 529.866 1267.87C523.333 1270.8 516.933 1278.27 514.799 1285.47L513.2 1290.67H364.4L363.599 1283.73C361.332 1264.53 347.6 1251.33 324.4 1245.87C294.8 1238.93 265.866 1255.2 259.866 1282.13L258.266 1289.47L244.799 1289.07L231.333 1288.67L230.266 1222C228.8 1130.93 230 905.203 232 891.333C235.866 864 242.933 838.4 252.933 815.6C265.067 787.733 277.2 770.399 310.4 733.199C328.267 713.199 338.799 697.866 349.333 676.666C362.666 649.866 370.799 623.066 375.333 591.999C377.866 574.399 379.733 523.2 377.733 524.399C376.933 524.933 373.733 529.6 370.667 534.933C362.267 549.199 343.467 567.333 330.667 573.6C315.867 580.933 304.933 583.066 287.333 582.266C271.733 581.466 260.667 578.532 252.4 572.933C247.334 569.466 246.933 568.533 250.799 567.333C254.266 566.133 256.266 560.933 254.667 556.8C253.333 553.067 249.199 551.333 244.533 552.533C241.333 553.333 241.333 553.467 241.333 571.732C241.466 627.199 259.6 680.932 292.799 724.266C299.199 732.532 299.599 733.333 296.799 733.333C295.865 733.331 291.332 728.532 286.799 722.8C265.466 695.067 248.8 660.933 240 626.666C232.533 597.866 232.667 599.866 232.933 484.666C233.067 426 233.733 344.4 234.533 303.333C235.333 262.266 236.133 222.399 236.266 214.666C236.266 206.933 236.666 199.866 237.066 198.933C238.799 193.866 239.733 199.867 240.266 221.6C241.466 266.799 248 279.466 263.866 267.866C267.065 265.6 269.865 264.134 270.266 264.533C270.665 264.801 268.266 268.934 264.933 273.6C251.467 292.666 243.999 313.333 243.066 334.666C241.999 357.599 246.267 372.533 257.466 384.666C270.933 399.333 289.199 401.733 300.799 390.399C309.066 382.533 309.733 369.866 302.4 360.666C297.467 354.4 286.132 351.333 279.866 354.666C277.466 355.999 277.333 355.464 277.333 332.133C277.333 318.402 277.866 307.87 278.533 307.333C279.333 306.933 280.267 308.8 280.667 311.6C283.067 327.199 288.8 338.533 300 349.333C309.999 359.066 319.733 363.333 332 363.333C340.266 363.333 343.2 362.666 349.066 359.6C353.065 357.467 356.531 356.134 356.933 356.399C357.199 356.8 355.733 359.6 353.466 362.666C351.333 365.733 348.799 371.466 347.866 375.466C346.399 382.132 346.4 383.066 348.933 386.399C356.8 396.932 374.533 394.933 376.799 383.333C378.799 372.666 374.266 355.999 366 342.399C363.466 338.266 361.333 334.666 361.333 334.399C361.334 334 364.134 333.732 367.599 333.732C376.399 333.732 380 329.466 380 318.8C380 314.533 380.399 308.266 380.799 305.066L381.599 298.933L388.799 298.399C394.399 297.866 396.933 296.932 400 293.999C407.066 287.332 408.533 275.2 403.466 267.333C399.333 261.067 390.267 263.733 388.667 271.732C386 284.132 385.6 281.333 385.466 253.333C385.333 218.799 387.867 60.1349 388.667 57.5996C389.067 56.7998 389.734 55.9993 390.4 55.999ZM1110.4 1027.2C1105.2 1024.53 1094.13 1023.73 1087.47 1025.6C1080.13 1027.6 1070 1037.73 1068 1045.07C1066.8 1050 1066.8 1051.47 1068.67 1054.27C1072.13 1059.47 1081.07 1058.13 1094.67 1050.13C1104.67 1044.4 1109.33 1042.67 1109.33 1044.93C1109.33 1045.6 1098.27 1053.33 1084.93 1062.27C1071.6 1071.2 1048.93 1086.27 1034.67 1095.87C1020.4 1105.47 1008.13 1113.33 1007.6 1113.33C1006.93 1113.33 1007.33 1112 1008.53 1110.27C1016.13 1100.13 1018.93 1088.93 1015.87 1082.13C1012.67 1075.2 999.333 1072.4 992.933 1077.33C984.4 1084 985.467 1096.4 996.4 1118.67C1000.27 1126.4 1003.47 1133.06 1003.73 1133.6C1004 1134.27 1001.73 1134.67 998.667 1134.67C995.6 1134.67 992 1135.33 990.4 1136.13C986.667 1138.13 984 1145.47 984 1154V1161.33H859.066C776.4 1161.33 732.266 1161.87 729.066 1162.8C722.4 1164.53 722.667 1167.07 729.733 1171.47C746.933 1182.27 761.333 1197.47 769.466 1213.6C774.133 1222.93 777.867 1225.6 785.599 1225.33C793.999 1224.93 794.133 1225.07 790.933 1228C785.6 1233.07 787.867 1238.27 797.333 1242.4C801.066 1244.13 809.333 1244.67 841.066 1245.07C878.933 1245.6 888.933 1246.8 871.599 1248.53C859.333 1249.87 849.733 1254.67 847.2 1260.67C844 1268.4 846.8 1273.87 856.667 1279.2C861.866 1282 863.201 1282 923.599 1282C983.998 1282 985.2 1282 988.933 1279.2C994.4 1275.07 995.733 1270.4 992.933 1264.53C988.666 1255.87 969.866 1250 940 1248.4C931.2 1248 924 1247.07 924 1246.53C924.02 1246 948.146 1245.33 977.733 1245.07C1026.4 1244.67 1031.73 1244.4 1035.73 1242.27C1053.2 1232.67 1044.8 1205.07 1025.07 1207.2C1019.07 1207.87 1018.67 1207.73 1018.67 1204.67C1018.67 1191.33 1003.47 1185.73 964 1184.27C949.6 1183.6 940.8 1182.8 940.933 1182C941.207 1181.2 959.739 1180.4 991.599 1180C1040.67 1179.33 1042.13 1179.2 1048.67 1176.27C1057.2 1172.27 1060.8 1168.93 1064.93 1160.67C1067.33 1156 1068.67 1150.93 1069.2 1143.6C1069.6 1138 1070.67 1133.34 1071.33 1133.33C1072.13 1133.33 1072.67 1142.53 1072.67 1158.27V1183.2L1068.27 1184.53C1065.73 1185.2 1061.07 1188.27 1057.73 1191.2C1043.47 1204.13 1046.67 1226.93 1063.73 1234.13C1076.53 1239.47 1092.27 1234.67 1103.87 1221.87C1116.8 1207.73 1122.13 1191.47 1120.93 1169.33C1119.73 1146.53 1113.6 1128.13 1100.4 1108.4C1096.13 1102 1092.13 1095.87 1091.6 1094.93C1089.73 1092.13 1092.8 1093.2 1098.13 1097.33C1102 1100.53 1104.27 1101.33 1107.87 1101.07C1112 1100.67 1113.07 1099.87 1115.6 1094.67C1119.6 1086.8 1123.07 1064 1122.53 1050.13C1122 1040.53 1121.47 1038.53 1118.27 1034.27C1116.27 1031.6 1112.67 1028.4 1110.4 1027.2ZM274.266 1024.27C265.733 1022 260.266 1022.27 253.866 1025.2C240.133 1031.47 237.333 1044.93 243.466 1077.33C245.733 1090 248.667 1096.67 252.799 1098.53C257.733 1100.67 258.8 1100.4 265.333 1095.2C272.666 1089.33 273.733 1091.07 267.599 1099.07C250.666 1121.33 242.667 1144.53 242.667 1171.6C242.667 1193.07 248.667 1209.47 261.2 1222.13C269.2 1230.27 277.066 1233.73 287.333 1233.87C302.799 1233.87 313.333 1224.27 313.333 1210C313.332 1197.87 305.2 1186.4 294.133 1182.67L289.333 1181.07V1155.73C289.333 1136.14 289.733 1130.53 291.066 1130.93C291.999 1131.33 292.933 1135.33 293.333 1141.6C294.799 1160.67 304.933 1173.73 321.066 1177.2C324.533 1177.87 348.267 1178.93 373.733 1179.47C399.196 1180 419.993 1180.8 420 1181.33C419.996 1181.87 410.264 1182.67 398.4 1183.2C357.867 1184.8 345.599 1188.93 343.333 1201.6C342.399 1206.27 342.266 1206.4 337.866 1205.73C331.599 1204.67 323.333 1208.53 320 1214C316.933 1218.93 316.4 1228.67 318.933 1234C319.866 1236 322.933 1238.8 325.866 1240.4C331.199 1243.2 333.2 1243.33 383.866 1244C424.257 1244.53 436.528 1245.07 437.066 1246.27C437.466 1247.6 434 1248 422.933 1248C407.333 1248 388.666 1250.67 380 1254.13C372.933 1257.07 368 1262.93 368 1268.8C368 1274.4 371.333 1278 378.266 1279.87C385.333 1281.87 494.792 1281.87 501.866 1279.87C514.133 1276.4 518.933 1264 510.933 1256C506.533 1251.73 495.6 1248 486.933 1248C482.934 1248 481.333 1247.47 481.733 1246.27C482.135 1245.07 489.336 1244.8 513.466 1245.07C554.132 1245.73 567.999 1243.47 572.132 1235.87C573.332 1233.47 573.066 1232.27 570.799 1229.2L567.866 1225.33H575.333C584.266 1225.33 586.667 1223.33 593.2 1211.07C601.333 1195.73 612.8 1183.73 630.533 1171.73C633.599 1169.73 636 1167.47 636 1166.67C635.999 1162.13 631.864 1162 505.066 1161.33C424.41 1160.93 379.744 1160.13 378.933 1159.33C378.133 1158.53 377.333 1153.87 377.066 1148.8C376.533 1140.8 375.999 1139.2 372.799 1136.53C370.133 1134.13 367.599 1133.33 363.2 1133.33C360.002 1133.33 357.336 1133.07 357.333 1132.8C357.334 1132.4 359.467 1128.67 362 1124.4C369.2 1112.13 373.599 1099.2 373.866 1089.6C373.999 1081.6 373.733 1080.93 369.599 1077.2C361.733 1070.13 348.666 1073.33 345.333 1083.2C343.466 1089.07 345.067 1095.6 350.667 1104.53C352.933 1108 354.533 1111.33 354.133 1111.6C352.796 1112.93 254.8 1045.33 254.667 1042.93C254.667 1040.53 255.334 1040.8 267.733 1048.27C282.133 1056.93 290.4 1058.4 294 1052.8C296.133 1049.73 296.133 1048.53 294.667 1043.6C292.4 1035.73 282.399 1026.27 274.266 1024.27ZM1120.13 1246.53C1113.6 1241.2 1105.07 1244.53 1102.67 1253.47C1100.8 1260.4 1102.13 1267.2 1106.4 1272.27C1110 1276.53 1120.93 1282.27 1122.4 1280.67C1122.93 1280.13 1123.33 1272.93 1123.33 1264.4C1123.33 1250 1123.2 1248.93 1120.13 1246.53ZM254.667 1243.33C249.334 1240.53 247.066 1240.8 243.333 1244.67C240.133 1247.73 240 1248.67 240 1263.33C240 1280.53 240.133 1280.67 249.2 1276C256.133 1272.53 259.733 1267.73 260.799 1260.67C261.866 1252.8 259.466 1245.87 254.667 1243.33ZM1068.67 900.399C1056.27 899.999 1052.53 900.4 1044.67 903.066C1015.2 912.8 994.666 932 989.466 954.8C987.733 962.267 987.733 983.333 989.333 995.333C991.999 1013.2 999.733 1022.67 1011.6 1022.67C1018.27 1022.67 1024.53 1019.87 1026.67 1016C1027.47 1014.53 1028.93 1013.33 1030 1013.33C1031.6 1013.33 1032 1016.4 1032 1030.93C1032 1051.47 1033.2 1057.2 1039.07 1063.47C1050.93 1076.4 1063.87 1065.33 1060.13 1045.47C1059.33 1041.33 1058.27 1036.53 1057.87 1034.67C1057.2 1031.6 1057.73 1031.07 1063.73 1029.07C1077.33 1024.27 1086.8 1008 1084.8 992.933C1084.27 989.333 1082.67 983.333 1081.33 979.6C1079.87 975.867 1078.93 972.533 1079.33 972.266C1079.6 971.999 1083.07 973.2 1086.8 975.199C1091.87 977.599 1096 978.666 1101.07 978.666C1107.87 978.666 1108.8 978.266 1114 972.933C1124.53 962.399 1126.67 945.066 1119.33 929.866C1114.93 920.8 1103.47 910.133 1092.4 904.933C1084.13 901.066 1082 900.666 1068.67 900.399ZM984 1022.67V1036.27C984 1043.87 984.4 1054 984.933 1058.93C985.733 1067.6 985.867 1068 989.2 1068C994.533 1067.87 1003.07 1063.47 1007.07 1058.8C1011.07 1053.87 1013.87 1045.07 1012.8 1040.53C1011.6 1035.73 1004 1027.87 998 1025.2C995.066 1023.87 990.667 1022.67 988.4 1022.67H984ZM375.066 1021.47C351.333 1025.2 341.867 1041.07 353.466 1057.6C356.267 1061.47 364.8 1065.87 371.733 1067.2L376 1067.87V1044.67C376 1031.87 375.599 1021.47 375.066 1021.47ZM312.667 901.333C288.8 895.2 268.267 900.8 252.667 917.6C243.067 927.866 239.466 937.333 240.266 950.133C241.733 973.066 257.066 983.199 275.866 973.866C279.598 971.867 283.065 970.667 283.466 970.933C283.733 971.333 282.799 974.266 281.333 977.6C272.533 997.599 279.867 1019.33 298.4 1027.6C303.866 1030 305.333 1031.2 304.799 1032.93C304.266 1034.13 303.2 1039.2 302.4 1044.13C300.267 1056.13 302.267 1063.2 308.533 1066.27C312.533 1068.13 313.333 1068.13 317.866 1066C327.732 1061.33 330.667 1052.27 330.667 1026.13V1011.73L335.866 1016.4C347.332 1026.8 362.266 1022.93 368.533 1007.87C370.933 1002.27 373.333 984.266 373.333 972.666C373.333 951.599 367.866 938.532 353.333 923.999C341.866 912.533 329.599 905.733 312.667 901.333ZM1123.47 987.6C1121.07 985.2 1115.73 984.799 1111.33 986.532C1103.47 989.866 1100.4 1001.33 1105.33 1009.07C1108.13 1013.73 1114.93 1017.33 1120.67 1017.33C1123.73 1017.33 1124 1016.8 1124 1011.47C1124 1008.4 1124.4 1002.13 1124.8 997.732C1125.47 991.333 1125.2 989.466 1123.47 987.6ZM252.4 985.466C248.267 983.333 243.199 983.6 240.799 986.133C239.2 987.733 238.667 991.067 238.667 1000.4C238.667 1007.2 239.199 1013.46 239.866 1014.53C241.866 1017.6 250.533 1015.07 255.599 1010C259.332 1006.27 260 1004.67 260 999.066C260 992.267 257.6 988.132 252.4 985.466ZM1055.33 403.066C1050.93 399.2 1046.93 399.199 1041.33 402.933C1033.2 408.533 1032 412.8 1032 435.6C1032 446.798 1031.47 455.996 1030.93 455.999C1030.27 455.998 1028.4 454.399 1026.53 452.532C1019.6 444.933 1008.27 443.6 1000.67 449.6C993.2 455.466 988 472.4 988 491.6C988 512.799 992.933 525.866 1006 539.866C1016 550.399 1025.47 556.266 1040.27 561.466C1060.27 568.266 1080.8 567.733 1096.27 559.866C1104.53 555.6 1115.07 545.066 1119.33 536.532C1126.13 523.066 1124.4 506.133 1115.07 495.866C1107.33 487.333 1098.4 486.266 1085.73 492.399C1082.53 493.999 1079.73 494.799 1079.2 494.399C1078.8 493.998 1079.47 491.599 1080.8 489.066C1084.27 482.533 1084.93 465.466 1082.13 457.999C1079.47 451.066 1068.93 440.933 1061.87 438.666C1058.13 437.333 1057.33 436.666 1058.13 434.399C1059.87 428.666 1060.93 416.8 1059.87 411.6C1059.33 408.133 1057.6 404.933 1055.33 403.066ZM316.933 399.066C307.334 397.6 302.399 408 305.333 423.866C306.132 428.399 307.066 432.931 307.466 433.732C307.733 434.666 305.333 436.4 301.866 437.866C293.866 441.066 287.332 446.933 283.599 453.866C279.599 461.599 279.466 477.999 283.599 486.933C285.199 490.265 286.133 493.465 285.733 493.732C285.466 494.132 283.2 493.332 280.933 491.999C278.533 490.666 273.866 488.799 270.266 487.866C264.933 486.533 263.066 486.666 258 488.666C247.867 492.533 242 503.067 242.133 517.333C242.267 534.133 252.8 549.599 270.133 558.133C279.2 562.666 281.334 563.199 293.733 563.732C310.133 564.399 320 562.266 334.667 554.533C357.6 542.667 371.466 525.733 374.799 505.199C376.533 494.799 375.467 473.732 372.667 464.532C367.066 445.733 352.399 438.666 339.333 448.532C336.799 450.532 334.4 451.866 334 451.732C333.467 451.46 333.067 442.929 332.933 432.666C332.667 412.666 331.733 409.199 324.933 402.933C323.2 401.333 319.6 399.6 316.933 399.066ZM1119.07 451.999C1108.93 452.133 1102.27 458.933 1102.27 469.066C1102.27 476.399 1106.67 481.199 1114.27 482.266C1122.67 483.332 1124 481.066 1124 465.199V451.999H1119.07ZM252.933 451.866C247.067 449.333 243.733 448.799 242.266 450.266C241.733 450.667 241.333 456.934 241.333 464.133C241.333 474.132 241.867 477.599 243.466 479.199C249.466 485.199 262.667 477.066 262.667 467.466C262.666 460.133 259.333 454.799 252.933 451.866ZM995.066 402.8C984.8 399.867 985.333 398.667 985.333 424.133V446.933L990.266 445.999C1001.47 443.866 1011.07 436 1012.67 427.6C1014.53 418.133 1005.6 405.733 995.066 402.8ZM375.866 399.999C361.2 400.133 348.133 415.466 351.866 428.133C354.266 436.266 365.999 443.999 375.866 443.999C378.533 443.999 378.667 443.466 378.667 428.133C378.667 419.466 379.066 409.599 379.466 406.133L380.4 399.999H375.866ZM1122.67 409.999C1120.27 407.066 1115.2 407.599 1112 410.933C1109.47 413.733 1109.07 415.333 1108.8 422.666C1108.67 426.666 1107.6 426.533 1098.53 421.199C1082.67 411.866 1074.8 409.999 1069.33 414.399C1066.8 416.399 1066.4 417.733 1067.2 421.466C1070 436.799 1086.27 446.266 1103.6 442.666C1111.87 440.933 1116.53 437.466 1120 430.8C1123.33 424 1124.93 412.666 1122.67 409.999ZM253.866 409.6C251.332 405.867 244.667 405.6 242.667 409.199C241.067 412.266 242.934 423.199 246.133 430.133C250.133 438.399 254.934 440.666 268.933 440.666C279.199 440.666 281.733 440.266 284.799 437.866C291.733 432.8 296.267 425.866 296.933 419.466C297.6 414 297.333 413.333 294.266 411.866C289.333 409.6 282.799 411.333 269.866 418.133C263.733 421.333 258.133 423.999 257.333 423.999C256.666 423.997 256 421.464 256 418.266C256 415.199 255.066 411.199 253.866 409.6ZM922.933 268.532C909.733 265.332 895.066 266.666 883.066 271.999C868.266 278.532 862.934 289.866 870.933 297.333C873.733 299.866 875.468 299.999 913.466 299.999C956.8 299.999 955.733 300.266 953.333 292.133C950.532 282.133 937.2 271.866 922.933 268.532ZM466.533 266.8C461.866 266 456.799 265.466 455.333 265.6C436 266.933 418.933 275.733 413.466 287.199C407.866 298.532 406 297.999 451.599 298.399L491.733 298.666L494.667 295.066C503.067 284.4 489.199 270.4 466.533 266.8Z" fill="white"/>
<path d="M645.012 1195C645.082 1195 645.152 1195 645.224 1195C645.239 1195.24 645.239 1195.24 645.253 1195.47C645.492 1199.73 645.492 1199.73 646.287 1203.9C646.34 1204.1 646.34 1204.1 646.393 1204.3C648.136 1210.84 652.315 1215.48 658.073 1218.88C660.741 1220.4 663.526 1221.73 666.363 1222.91C668.952 1224 671.051 1225.49 673.081 1227.42C673.308 1227.63 673.308 1227.63 673.541 1227.84C677.22 1231.3 682.244 1237.7 683.288 1242.68C683.428 1242.68 683.568 1242.68 683.713 1242.68C683.762 1242.51 683.812 1242.34 683.862 1242.17C684.207 1241.22 684.661 1240.37 685.148 1239.49C685.25 1239.31 685.352 1239.12 685.457 1238.93C687.801 1234.77 690.58 1230.85 693.92 1227.42C694.187 1227.15 694.187 1227.15 694.46 1226.87C696.967 1224.45 700.022 1223.08 703.193 1221.73C710.215 1218.71 716.539 1214.55 719.65 1207.29C721.191 1203.28 721.475 1199.26 721.563 1195C721.704 1195 721.844 1195 721.989 1195C722.391 1195.5 722.764 1196.01 723.132 1196.54C723.245 1196.7 723.358 1196.86 723.475 1197.03C730.873 1207.76 735.019 1220.66 735 1233.7C735 1233.85 735 1234.01 735 1234.16C734.993 1238.14 734.801 1242.11 733.994 1246.01C733.884 1246.56 733.789 1247.11 733.694 1247.66C730.985 1262.88 722.638 1276.92 712.845 1288.67C712.486 1289.11 712.127 1289.54 711.769 1289.98C711.489 1290.32 711.21 1290.66 710.931 1291C710.627 1290.28 710.796 1289.8 711.078 1289.09C711.135 1288.96 711.193 1288.82 711.252 1288.68C711.34 1288.46 711.34 1288.46 711.43 1288.23C711.558 1287.91 711.687 1287.59 711.817 1287.28C712.166 1286.42 712.507 1285.56 712.847 1284.7C712.917 1284.52 712.988 1284.34 713.061 1284.16C713.814 1282.24 714.505 1280.31 715.184 1278.36C715.24 1278.21 715.295 1278.05 715.352 1277.89C715.726 1276.82 716.094 1275.75 716.46 1274.68C716.542 1274.44 716.542 1274.44 716.626 1274.2C717.35 1272.09 718.019 1269.98 718.573 1267.82C718.608 1267.69 718.643 1267.55 718.679 1267.41C719.52 1264.13 720.176 1260.82 720.777 1257.49C720.866 1257 720.957 1256.51 721.051 1256.02C722.171 1250.18 722.5 1242.49 719.065 1237.38C718.147 1236.23 717.352 1235.43 715.847 1235.2C710.374 1234.64 705.263 1238.1 700.972 1241.09C700.513 1241.41 700.052 1241.72 699.59 1242.04C697.6 1243.41 695.716 1244.87 693.858 1246.41C693.379 1246.8 692.892 1247.19 692.405 1247.57C690.519 1249.07 688.698 1250.65 686.929 1252.28C686.815 1252.39 686.7 1252.5 686.582 1252.61C686.088 1253.06 685.596 1253.52 685.106 1253.98C684.958 1254.12 684.809 1254.25 684.656 1254.39C684.533 1254.51 684.41 1254.62 684.283 1254.74C683.925 1254.97 683.925 1254.97 683.075 1254.97C682.562 1254.53 682.562 1254.53 681.998 1253.93C681.049 1252.94 680.056 1252.06 678.979 1251.21C678.387 1250.73 677.827 1250.22 677.267 1249.7C676.174 1248.7 675.03 1247.79 673.856 1246.89C673.342 1246.49 672.834 1246.09 672.331 1245.68C666.575 1240.98 658.641 1234.59 650.753 1235.26C650.043 1235.49 649.586 1235.81 649.052 1236.32C648.922 1236.45 648.792 1236.57 648.658 1236.7C645.398 1240.11 645.311 1245.07 645.392 1249.49C645.61 1257.36 647.45 1265.41 649.936 1272.86C650.122 1273.43 650.3 1274 650.477 1274.57C651.066 1276.47 651.698 1278.36 652.361 1280.23C652.415 1280.38 652.468 1280.54 652.523 1280.69C653.429 1283.26 654.43 1285.78 655.523 1288.28C655.625 1288.52 655.728 1288.75 655.834 1289C655.926 1289.21 656.018 1289.42 656.112 1289.63C656.282 1290.15 656.282 1290.15 656.069 1290.79C654.667 1289.5 653.512 1288.05 652.355 1286.55C652.026 1286.12 651.69 1285.7 651.352 1285.29C646.836 1279.68 643.146 1273.46 639.908 1267.05C639.823 1266.89 639.737 1266.72 639.649 1266.55C637.51 1262.34 635.807 1257.84 634.592 1253.28C634.519 1253.03 634.446 1252.78 634.371 1252.52C633.265 1248.64 632.753 1244.65 632.322 1240.65C632.266 1240.15 632.266 1240.15 632.144 1239.73C631.973 1239 632.006 1238.26 632.005 1237.52C632.004 1237.34 632.003 1237.17 632.002 1236.99C632 1236.42 632 1235.86 632 1235.29C632.001 1235.1 632.001 1234.91 632.001 1234.71C632.007 1231.83 632.058 1229 632.466 1226.15C632.499 1225.92 632.532 1225.68 632.566 1225.43C633.579 1218.39 635.511 1211.58 638.632 1205.17C638.716 1205 638.8 1204.83 638.886 1204.65C640.553 1201.26 642.475 1197.83 645.012 1195Z" fill="white"/>
</svg>
