<svg width="674" height="662" viewBox="0 0 674 662" fill="none" xmlns="http://www.w3.org/2000/svg">
<path d="M182.77 199.125C182.067 295.734 181.223 575.437 181.645 575.93C181.856 576.211 251.395 576.633 336.121 576.914L490.176 577.406L490.598 465.398C490.879 403.805 491.09 304.453 491.09 244.687V135.844L447.356 135.422C423.239 135.211 353.981 134.859 293.442 134.648L183.262 134.297L182.77 199.125ZM372.614 141.961L484.41 142.383L484.2 256.641C484.129 319.5 483.848 415.758 483.637 470.531L483.145 570.234H405.731C363.192 570.234 296.676 570.023 258.075 569.742L187.832 569.32L188.254 509.836C188.535 477.141 188.887 382.641 189.098 299.883C189.309 217.125 189.66 147.445 189.871 145.125L190.223 140.766L225.52 141.117C244.926 141.328 311.16 141.68 372.614 141.961Z" fill="#D81F38"/>
<path d="M91.0119 144.141C91.0119 160.172 88.4806 173.953 85.0353 176.203C82.9963 177.539 81.4494 177.117 77.9338 174.305C76.4572 173.109 75.1213 172.476 74.9806 172.828C74.84 173.25 76.1759 175.5 77.9338 177.891C83.2072 185.062 86.7228 193.359 88.6213 203.062C91.7853 219.726 85.9494 235.828 74.6291 241.453C63.6603 246.937 52.4806 239.062 55.1525 227.812C56.2072 223.312 58.5978 221.133 62.3947 221.203C64.0119 221.203 65.9103 221.414 66.6134 221.766C67.7384 222.328 67.8088 221.484 67.8088 209.672C67.8088 202.219 67.5275 196.805 67.1056 196.523C66.7541 196.312 66.2619 196.805 66.1213 197.719C64.6447 204.961 63.8009 207.211 61.5509 210.726C56.6994 218.18 46.8556 226.125 39.5431 228.516C35.8869 229.641 36.1681 230.625 40.1056 230.625C44.1134 230.625 47.0666 232.312 48.5431 235.476C49.5978 237.656 49.6681 239.766 49.2463 253.476C48.965 262.476 48.3322 271.125 47.6994 274.219C45.7306 284.133 40.7384 291.937 35.0431 294.328C32.3009 295.453 23.7228 295.664 20.9806 294.609C18.0275 293.414 17.2541 291.867 17.1838 286.875C17.1838 275.625 20.9103 265.43 27.7306 258.117C29.6291 256.078 31.2463 254.039 31.2463 253.687C31.2463 253.266 30.1213 253.195 28.4338 253.476C24.9181 254.039 21.1213 252.844 19.2931 250.523C17.3244 247.992 17.3947 240.469 19.5744 231.961C21.6134 223.805 24.5666 217.266 28.7853 211.148C30.5431 208.617 31.8088 206.367 31.5978 206.156C31.3869 205.945 29.84 206.789 28.1525 207.984C26.465 209.25 24.4963 210.234 23.8634 210.234C18.3791 210.234 15.6369 201.516 14.6525 180.844C13.7384 160.664 12.965 170.156 12.8947 202.641C12.8947 220.57 12.6134 262.266 12.3322 295.312C11.9806 328.359 11.84 355.641 12.0509 355.922C12.1916 356.133 14.0197 355.289 16.1994 354.023C20.9103 351.141 27.9416 349.453 34.9728 349.453C44.6056 349.453 51.9181 353.039 54.59 359.086C56.4181 363.234 55.8556 366.258 52.6213 369.844C49.5275 373.219 45.3088 375.328 39.6838 376.242C31.8791 377.508 19.9259 374.906 14.5822 370.828C13.2463 369.844 12.0509 369.141 11.9103 369.211C11.84 369.352 11.3478 426.094 10.9259 495.352C10.2931 592.875 9.87126 622.687 9.16814 627.891C7.62126 639 5.30095 646.242 1.43376 652.43C-0.675613 655.664 -0.675613 655.664 2.91032 654.258C11.3478 650.953 12.8244 650.883 52.5509 650.602L90.3088 650.32V641.18C90.3088 632.531 89.6759 630.281 88.5509 634.711C86.8634 641.602 77.3713 645.398 61.4103 645.469C52.5509 645.469 48.3322 644.203 45.0275 640.547C42.9181 638.156 42.4963 637.242 42.4963 634.5C42.4963 626.977 47.2072 624.094 61.2697 622.969C71.8166 622.125 78.0744 620.437 82.1525 617.344L84.8947 615.305L82.9963 614.531C78.9884 613.055 78.9884 607.5 82.9259 606.516C85.4572 605.883 88.1291 607.641 88.6916 610.383C89.8869 616.57 90.3088 610.875 90.3088 587.672L90.2384 562.148L88.9025 564.68C87.0744 568.125 84.2619 569.25 80.9572 567.844C72.9416 564.539 75.8244 551.25 84.5431 551.25C86.7228 551.25 88.34 552.305 89.3947 554.273C90.3087 555.961 91.0119 502.031 91.0119 436.5C91.0119 391.219 90.7306 382.922 89.2541 389.461C89.0431 390.586 87.7072 392.766 86.3713 394.312C77.5822 404.648 56.4181 403.453 51.8478 392.414C49.4572 386.789 51.215 378.141 55.5744 373.781C59.8634 369.562 62.3947 368.789 71.6759 368.789C81.5197 368.789 87.8478 370.406 93.7541 374.344C95.7228 375.68 97.34 376.594 97.34 376.383C97.34 375.117 90.8713 368.719 87.0744 366.258C84.6134 364.641 82.5744 363.234 82.5744 363.094C82.5744 362.953 84.4025 361.617 86.6525 360.141C90.9416 357.187 97.7619 350.367 97.0588 349.664C96.8478 349.383 95.9338 349.875 95.0197 350.719C89.0431 356.273 72.8009 359.508 64.0119 356.906C56.2775 354.586 51.7775 349.312 51.1447 341.719C50.4416 334.266 54.0978 328.289 60.7072 325.898C65.2775 324.352 73.9259 324.492 78.7775 326.32C83.5588 328.148 88.6916 332.789 89.3244 335.953C89.6056 337.219 90.0275 338.344 90.3088 338.555C90.9416 338.906 91.5744 293.695 92.0666 220.078C92.2775 189.703 92.6291 158.484 92.84 150.609C93.1916 138.023 93.0509 136.406 92.1369 136.406C91.1525 136.406 91.0119 137.601 91.0119 144.141ZM86.8634 271.758C86.7931 284.906 86.3713 297.211 85.9494 299.039C84.6134 305.297 78.8478 309.516 73.3634 308.32C71.3947 307.898 70.4806 308.812 72.0275 309.726C73.1525 310.43 72.8713 316.617 71.6056 318.375C70.0588 320.625 66.965 322.031 62.3947 322.453C57.1213 322.945 54.0275 321.398 51.8478 317.109C50.3009 314.086 50.2306 313.383 50.2306 294.609C50.3009 272.039 50.8634 266.203 53.5353 260.93C55.9963 256.148 59.0197 254.32 63.8009 254.742C66.5431 254.953 67.6681 255.516 69.9181 257.695C75.1916 262.828 78.3556 273.445 78.3556 285.82C78.3556 289.477 78.6369 292.57 78.9884 292.781C79.34 292.992 79.8322 283.922 80.1134 272.25C80.6759 248.766 81.0275 247.219 85.3166 247.641L87.0744 247.852L86.8634 271.758ZM27.2384 300.586C35.6759 303.961 41.3009 310.711 43.5509 319.992C46.2931 331.734 43.0588 338.977 33.0744 343.547C29.6291 345.094 22.4572 346.641 18.4494 346.641H16.4806V326.672C16.4806 315.773 16.6916 304.805 16.9728 302.344L17.3947 297.984L20.1369 298.406C21.6134 298.687 24.8478 299.672 27.2384 300.586ZM22.9494 379.687C32.5822 381.094 39.5431 385.102 42.5666 391.008C43.5509 392.977 43.9025 395.156 43.9025 398.953C43.9025 414.281 33.9884 426.023 19.8556 427.359L15.5666 427.711L15.9884 416.531C16.2697 410.414 16.4806 399.445 16.4806 392.133C16.4806 382.078 16.6916 378.984 17.3947 378.984C17.8166 378.984 20.3478 379.336 22.9494 379.687ZM68.3713 405.352C72.3088 407.742 73.715 413.578 71.1838 416.742C70.34 417.797 70.4806 417.797 75.2619 417.656C78.4259 417.586 79.2697 417.867 81.4494 419.766C85.9494 423.773 86.09 424.969 86.09 461.742C86.09 484.945 85.8791 494.297 85.3166 494.297C84.0509 494.297 80.6759 490.289 77.1603 484.594C73.1525 477.984 73.5041 478.477 72.9416 479.039C72.7306 479.32 74.2775 483.117 76.4572 487.406C81.0275 496.477 85.4572 509.484 87.1447 518.625C88.7619 526.992 88.4103 540.984 86.5119 543.797C83.6291 548.297 76.1759 548.789 71.6056 544.781C70.2697 543.586 69.0041 542.812 68.7931 543.023C68.5822 543.234 69.0744 545.273 69.9181 547.523C71.8869 552.867 72.5197 560.039 71.3244 564.328C70.7619 566.227 69.0041 569.32 67.3166 571.43C65.6291 573.469 64.2931 575.297 64.2931 575.508C64.2931 575.719 65.84 575.086 67.6681 574.172C73.2931 571.289 78.0041 571.43 81.5197 574.594C93.5431 585.141 85.8791 606.234 67.9494 611.719C65.0666 612.633 61.4103 613.125 57.8244 613.125C33.6369 613.125 15.2853 593.719 16.6916 569.531C16.9025 565.945 17.6056 562.008 18.5197 559.687C21.7541 551.109 30.6134 546.398 37.7853 549.422C42.7775 551.461 46.715 558.703 46.715 565.734C46.715 567.422 46.9963 568.898 47.3478 569.109C47.6291 569.32 48.1213 566.156 48.4025 562.008C49.0353 550.969 48.8947 483.75 48.1916 483.75C47.9103 483.75 47.4181 486.07 47.2072 488.812C46.5744 495.633 44.9572 500.906 42.5666 503.578C40.8791 505.477 40.1056 505.758 37.2931 505.758C34.6916 505.758 33.2853 505.266 30.8244 503.508C28.9963 502.242 27.4494 501.398 27.2384 501.609C27.0275 501.75 27.8713 503.297 28.9963 504.984C33.0744 510.891 33.2853 515.602 29.6994 519.398C26.6056 522.703 20.84 521.93 18.1681 517.852C15.5666 513.844 18.59 501.398 24.1447 492.961C26.465 489.445 26.3947 488.32 23.8634 489.516C22.5978 490.078 21.6134 490.078 19.9963 489.375C16.4806 487.898 15.7775 486.281 15.7775 479.391V473.203H17.7463C19.8556 473.203 24.7072 475.242 27.8009 477.492C30.2619 479.25 30.4025 478.687 28.2228 475.734C25.1291 471.656 20.84 463.711 19.0119 458.578C16.8322 452.531 15.4259 442.125 16.1291 436.852C16.5509 433.547 16.9025 432.844 18.801 431.648C22.0353 429.75 30.4025 429.75 34.4806 431.789C42.1447 435.445 46.7853 445.289 47.84 459.984C48.8244 474.187 49.5275 465.961 49.5275 439.594C49.5275 414.633 49.6681 412.172 50.8634 409.5C51.5666 407.953 53.0431 405.914 54.1681 405.07C55.9963 403.664 56.7697 403.453 61.1994 403.734C64.2931 403.945 66.965 404.578 68.3713 405.352ZM24.7775 526.922C29.6291 529.453 31.5275 534.445 29.5588 539.648C27.6603 544.5 21.4025 549.141 16.7619 549.141C15.0744 549.141 15.0744 549 15.0744 542.602C15.0744 539.086 15.2853 533.602 15.4963 530.437L15.9884 524.742L19.2931 525.305C21.1916 525.586 23.6525 526.289 24.7775 526.922ZM27.5197 609.398C30.3322 611.578 33.7072 615.656 34.34 617.836C35.6759 622.195 32.0197 624.656 25.0588 624.234C20.9806 623.953 20.2775 623.672 18.5197 621.703C16.8322 619.805 16.4806 618.82 16.4806 615.867C16.4806 607.641 21.4025 604.758 27.5197 609.398ZM31.2463 631.969C32.5822 632.602 34.1291 634.078 34.6213 635.133C35.465 636.82 35.3947 637.383 34.4806 638.789C30.6838 644.555 18.59 643.289 18.59 637.242C18.59 631.828 25.34 629.016 31.2463 631.969Z" fill="#D81F38"/>
<path d="M582.496 238.359C582.496 299.531 582.778 339.609 583.129 339.609C583.481 339.609 583.973 338.695 584.254 337.641C584.957 334.336 588.543 330.68 593.606 328.219C597.824 326.109 598.879 325.898 604.645 325.898C611.887 325.898 615.332 326.883 618.778 329.976C622.153 332.93 623.348 335.601 623.348 340.031C623.348 347.836 620.254 353.32 613.926 356.484C610.199 358.312 608.934 358.594 603.801 358.594C593.606 358.594 583.059 355.57 578.488 351.351C577.574 350.578 576.871 350.297 576.871 350.719C576.871 352.125 582.567 357.891 586.856 360.844C590.582 363.305 591.918 364.922 590.301 364.922C587.91 364.922 575.184 376.101 576.309 377.226C576.449 377.437 578.137 376.453 580.035 375.047C585.731 371.039 591.848 369.492 602.184 369.492C610.551 369.492 611.113 369.562 614.699 371.531C624.121 376.805 626.863 388.828 620.324 396.281C616.387 400.711 613.363 401.836 604.996 401.836C598.317 401.836 597.192 401.625 593.606 399.867C589.317 397.758 585.59 394.102 584.465 390.797C584.113 389.742 583.481 388.828 583.129 388.828C582.778 388.828 582.496 423.352 582.496 472.852C582.496 528.398 582.707 556.875 583.199 556.875C583.621 556.875 583.903 556.523 583.903 556.172C583.903 554.625 586.785 552.656 589.035 552.656C594.168 552.656 597.895 557.438 597.051 562.992C596.418 566.508 594.871 568.547 592.059 569.531C588.824 570.586 586.082 569.391 584.465 566.156C583.832 564.82 583.129 563.625 582.918 563.414C582.707 563.133 582.496 574.594 582.496 588.727C582.496 602.93 582.778 614.531 583.059 614.531C583.41 614.531 583.973 613.336 584.324 611.93C585.449 607.43 590.301 606.234 592.762 609.961C594.168 612.141 592.832 615.164 590.09 615.727C589.035 615.938 588.121 616.289 588.121 616.57C588.121 617.555 595.856 621.703 599.512 622.617C601.551 623.18 607.176 623.953 612.028 624.375C622.363 625.289 625.949 626.414 628.903 629.719C630.52 631.617 631.012 632.812 631.012 635.133C631.012 643.781 622.082 647.648 605.488 646.172C593.324 645.117 586.153 641.742 584.535 636.328C584.043 634.781 583.41 633.516 583.059 633.516C582.778 633.516 582.496 637.453 582.496 642.234V650.953L611.535 651.234L640.504 651.445H648.414C653.688 651.445 656.061 651.445 660.016 651.445C660.016 648.457 662.178 649.424 662.389 649.424C662.6 649.424 658.363 648.106 661.334 649.688C661.334 649.688 661.334 649.951 660.279 648.106C659.225 646.26 666.361 649.055 665.026 645.469C664.393 643.781 666.098 638.719 665.254 635.273C663.778 628.945 663.778 628.734 663.567 499.711C663.426 428.695 663.145 370.547 663.004 370.547C662.793 370.547 661.457 371.32 659.981 372.305C654.637 375.82 649.645 377.086 640.504 377.156C633.051 377.226 631.645 377.016 628.41 375.539C626.371 374.625 623.418 372.516 621.871 370.828C619.41 368.156 619.059 367.383 619.059 364.43C619.059 357.117 625.317 351.914 635.793 350.578C642.824 349.664 655.762 352.336 660.473 355.781C661.598 356.555 662.723 357.187 662.934 357.187C663.145 357.187 663.356 315.281 663.356 264.023C663.356 209.461 663.074 170.859 662.723 170.859C662.371 170.859 661.879 175.219 661.668 180.492C660.824 197.086 659.137 205.664 656.043 209.039C653.723 211.5 651.613 211.43 647.957 208.758C646.27 207.562 644.793 206.789 644.582 206.93C644.371 207.141 645.567 209.25 647.184 211.711C656.184 224.93 660.965 243.703 657.028 250.172C654.988 253.476 649.996 255.023 645.988 253.617C643.457 252.703 644.02 254.18 648.309 259.312C655.34 267.82 658.434 276.328 658.434 287.367C658.434 291.867 658.223 292.781 656.746 294.258C654.778 296.226 650.137 297.07 644.723 296.508C636.145 295.664 630.449 289.476 627.426 278.016C626.301 273.516 625.949 269.367 625.598 256.641C625.176 238.851 625.528 236.039 628.973 233.156C630.66 231.75 631.856 231.328 634.598 231.328C636.496 231.328 638.043 231.047 638.043 230.695C638.043 230.344 636.496 229.5 634.598 228.867C622.715 224.93 610.481 211.57 609.426 201.445C609.215 199.336 608.653 197.578 608.231 197.578C607.528 197.578 607.176 210.375 607.668 219.867C607.809 222.75 607.809 222.75 609.778 222.047C615.473 219.867 621.52 226.687 620.113 233.648C617.653 245.18 604.996 248.133 595.363 239.484C583.692 229.008 582.004 207.492 591.215 188.086C592.832 184.641 595.574 180.141 597.121 178.101C598.738 176.062 600.074 174.234 600.074 174.023C600.074 173.18 598.668 173.812 596.207 175.781C591.426 179.578 588.473 178.101 586.434 170.859C585.168 166.5 583.973 152.648 583.903 142.875C583.903 139.5 583.621 137.109 583.199 137.109C582.707 137.109 582.496 171.351 582.496 238.359ZM592.621 250.523C594.028 252.422 594.098 253.617 594.449 273.375C594.731 291.445 594.871 293.273 595.363 287.226C596.488 274.289 599.02 265.43 603.168 259.945C608.582 252.844 617.371 254.109 621.59 262.758L623.629 266.836L623.84 291.234C624.121 318.375 623.981 319.359 619.481 322.101C615.051 324.773 604.996 323.226 602.606 319.57C601.34 317.672 601.129 312.047 602.184 310.008C602.887 308.812 602.746 308.742 599.934 309.094C595.504 309.656 591.145 307.195 589.035 303.047C587.559 299.953 587.488 299.109 587.348 274.922C587.278 261.211 587.278 249.539 587.348 249.047C587.488 247.43 591.074 248.414 592.621 250.523ZM658.434 323.437C658.434 342.633 658.223 348.047 657.59 348.047C657.098 348.047 654.567 347.695 651.895 347.344C635.653 344.953 628.27 337.078 630.379 324.141C631.996 314.086 636.496 307.336 644.371 303.117C647.746 301.289 654.285 299.25 657.942 298.898C658.223 298.828 658.434 309.867 658.434 323.437ZM658.434 404.719V429.117L655.129 428.695C643.809 427.359 634.528 419.625 631.363 408.938C629.817 403.664 629.957 395.578 631.785 391.852C635.02 385.172 644.09 380.812 655.481 380.461L658.434 380.391V404.719ZM620.887 407.25C622.153 408.656 623.488 410.977 623.91 412.523C624.403 414.211 624.684 425.109 624.684 441.773C624.684 459.352 624.895 468.211 625.387 467.93C625.809 467.719 626.09 465.539 626.09 463.148C626.16 456.469 627.848 448.383 630.309 443.18C634.387 434.391 640.785 430.453 649.856 431.227C655.059 431.648 657.66 433.195 658.645 436.359C659.629 439.875 658.574 451.547 656.676 457.523C654.848 463.289 649.996 472.359 646.41 476.859C643.949 479.953 644.653 480.234 648.309 477.773C651.895 475.313 657.801 473.625 658.574 474.75C659.488 476.227 659.207 484.313 658.153 486.914C656.887 489.938 654.778 490.992 650.981 490.57C649.293 490.43 647.887 490.359 647.887 490.43C647.887 490.5 649.012 492.398 650.348 494.648C655.973 504 658.574 513.141 657.028 517.852C654.848 524.461 645.215 524.813 642.543 518.414C641.067 515.039 641.84 511.242 644.793 506.813C646.129 504.844 647.113 503.156 646.973 503.016C646.832 502.875 645.004 503.648 642.895 504.844C633.473 510.047 627.778 505.195 626.934 491.273C626.793 487.898 626.301 484.945 626.02 484.734C625.668 484.523 625.387 503.859 625.387 528.047C625.387 557.016 625.598 571.57 626.09 571.289C626.512 571.078 626.793 569.531 626.793 567.844C626.793 557.227 634.879 548.437 643.035 550.195C646.34 550.898 650.067 552.867 651.824 554.906C658.996 562.711 659.348 580.219 652.598 593.086C649.363 599.344 641.699 606.727 635.231 609.82C627.496 613.617 622.223 614.742 613.785 614.391C607.176 614.18 606.192 613.969 601.27 611.508C595.153 608.484 591.004 604.336 588.192 598.359C586.715 595.195 586.363 593.508 586.363 588.867C586.363 582.258 587.77 578.953 591.918 575.578C595.434 572.695 600.356 572.625 605.699 575.367C607.738 576.422 609.567 577.195 609.707 576.984C609.848 576.844 608.371 574.875 606.403 572.695C604.363 570.305 602.535 567.422 602.113 565.734C601.059 561.797 601.762 553.852 603.59 548.93C605.348 544.219 605.067 543.234 602.606 545.836C600.496 548.086 598.317 548.719 593.324 548.297C586.504 547.734 584.817 544.5 584.676 532.055C584.535 521.648 589.879 503.227 597.262 488.531C601.551 480.094 601.973 476.648 597.965 483.188C594.52 488.813 590.371 494.156 588.754 495L587.348 495.773L587.559 461.813C587.77 428.766 587.84 427.781 589.317 424.547C591.285 420.188 593.676 418.711 598.738 418.711C602.324 418.781 602.676 418.641 602.113 417.516C601.762 416.883 601.481 414.914 601.481 413.156C601.481 407.391 606.473 404.086 614.418 404.508C618.145 404.719 618.778 405 620.887 407.25ZM658.996 538.734L658.785 550.898L656.746 550.688C651.754 550.125 645.988 545.344 644.371 540.352C643.176 536.695 644.02 533.391 646.903 530.508C649.504 527.906 652.246 526.781 656.535 526.711L659.137 526.641L658.996 538.734ZM653.16 609.047C655.621 610.172 657.028 613.055 657.028 616.922C657.028 623.039 654.004 625.922 647.535 626.062C641.699 626.133 638.043 622.828 639.59 618.75C640.715 615.727 648.731 608.203 650.84 608.203C651.121 608.203 652.176 608.555 653.16 609.047ZM652.738 633.937C656.817 637.312 655.129 641.812 649.153 643.359C641.981 645.328 635.653 639.492 639.871 634.781C641.699 632.812 643.387 632.18 647.324 632.18C649.856 632.109 651.051 632.531 652.738 633.937Z" fill="#D81F38"/>
<path d="M214.938 53.363V52.3505L244.435 11.243H229.518C223.443 11.243 223.848 19.073 226.683 27.578H225.265L217.773 8.67797H253.278V9.69047L224.118 50.798H247.27C247.945 50.123 251.185 46.1405 247.945 40.673C245.11 35.8805 246.055 30.683 248.283 27.713L249.093 28.1855C249.093 28.1855 245.853 33.248 250.848 38.648C254.628 42.7655 257.8 47.828 254.223 53.363H214.938Z" fill="#D81F38"/>
<path d="M297.19 44.183C298.675 48.1655 300.16 51.878 304.075 52.0805V53.363H287.74V52.0805C293.815 51.8105 292.533 49.043 290.71 44.048L286.053 31.1555L263.17 54.578C257.5 41.4155 264.52 32.168 273.025 24.2705C277.953 19.6805 280.788 16.5755 279.775 13.7405C278.088 9.96047 271.608 9.96047 271.608 9.96047V8.67797H284.23L297.19 44.183ZM269.65 44.318L285.175 28.658L281.26 17.7905C280.383 19.343 278.898 21.3005 276.67 23.663C268.705 32.033 267.49 38.7155 269.65 44.318Z" fill="#D81F38"/>
<path d="M348.5 54.3755C344.045 54.038 339.523 52.283 334.19 44.183C327.71 34.2605 323.93 27.983 320.825 23.4605L321.095 22.5155C328.858 29.2655 337.025 25.2155 337.025 18.7355C337.025 11.918 331.423 9.28547 325.348 9.28547C321.635 9.28547 319.138 10.568 319.138 13.268H319.07V46.0055C319.07 50.933 320.015 51.743 325.213 52.0805V53.363H306.448V52.0805C311.51 51.6755 312.118 51.0005 312.185 45.263V16.103C312.118 11.1755 311.443 10.568 306.448 10.028V8.74547C317.72 8.74547 320.96 6.85547 327.778 6.85547C339.523 6.85547 343.64 13.7405 343.64 18.3305C343.64 25.6205 334.46 28.658 330.68 27.713L339.523 41.213C344.383 48.5705 347.399 51.9455 352.259 51.6755L354.305 52.4855V53.363C354.305 53.363 350.863 54.578 348.5 54.3755Z" fill="#D81F38"/>
<path d="M352.259 53.363V51.6755H353.744C358.334 51.5405 357.929 49.178 358.064 44.5205V17.453C357.929 12.863 358.402 10.6355 353.744 10.298H352.259V8.67797H370.619V10.298H369.134C364.612 10.5005 364.747 12.863 364.747 17.453V44.5205C364.747 49.043 364.747 51.608 369.337 51.6755H370.619V53.363H352.259Z" fill="#D81F38"/>
<path d="M411.633 54.578C411.633 52.0805 411.431 50.1905 410.283 46.2755C406.773 34.9355 385.916 29.063 382.676 22.9205V43.4405C382.676 50.393 383.823 51.8105 389.021 52.0805V53.363H373.091V52.0805C378.626 51.743 379.503 50.5955 379.638 43.4405V17.183C379.638 11.7155 375.993 9.96047 373.091 9.96047V8.67797H382.811C388.008 24.4055 405.018 25.283 410.688 34.733V18.6005C410.486 11.4455 409.608 10.298 404.208 9.96047V8.67797H420.071V9.96047C414.738 10.433 413.861 11.5805 413.658 18.6005V54.578H411.633Z" fill="#D81F38"/>
<path d="M455.145 44.183C456.63 48.1655 458.115 51.878 462.03 52.0805V53.363H445.695V52.0805C451.77 51.8105 450.488 49.043 448.665 44.048L444.008 31.1555L421.125 54.578C415.455 41.4155 422.475 32.168 430.98 24.2705C435.908 19.6805 438.743 16.5755 437.73 13.7405C436.043 9.96047 429.563 9.96047 429.563 9.96047V8.67797H442.185L455.145 44.183ZM427.605 44.318L443.13 28.658L439.215 17.7905C438.338 19.343 436.853 21.3005 434.625 23.663C426.66 32.033 425.445 38.7155 427.605 44.318Z" fill="#D81F38"/>
<path d="M291.592 75.765C289.129 75.9337 288.656 76.3725 288.656 78.8025V93.7875C288.656 96.2512 289.162 96.7237 291.592 96.8587V97.5H282.109V96.8587C284.809 96.69 285.18 96.3187 285.214 93.4162V78.1275C284.066 82.8525 277.755 86.835 277.451 97.9725H276.979L267.596 78.1275V92.505C267.596 96.015 268.17 96.7237 270.769 96.8587V97.5H262.837V96.8587C265.605 96.69 266.044 96.1162 266.111 92.505V78.8025C266.044 76.2712 265.672 75.9 262.905 75.765V75.1237H269.824L277.08 90.8512C279.409 82.7512 283.054 82.2112 284.336 75.1237H291.592V75.765ZM292.999 97.5V96.6562H293.741C296.036 96.5887 295.834 95.4075 295.901 93.0787V79.545C295.834 77.25 296.07 76.1362 293.741 75.9675H292.999V75.1575H302.179V75.9675H301.436C299.175 76.0687 299.243 77.25 299.243 79.545V93.0787C299.243 95.34 299.243 96.6225 301.538 96.6562H302.179V97.5H292.999ZM320.762 89.1975C322.72 91.4925 324.373 94.3275 322.652 97.5H303.178V96.8587C305.608 96.7237 306.115 96.2512 306.115 93.8212V78.8362C306.115 76.4062 305.642 75.9675 303.178 75.7987V75.1575H312.696V75.7987C310.063 75.9337 309.557 76.3725 309.557 78.8362V94.8C309.591 96.015 309.861 96.1837 312.46 96.1837H319.075C319.075 96.1837 321.201 93.7537 319.345 90.3787C317.86 87.6787 318.231 84.7762 319.345 83.0887L319.75 83.3587C319.75 83.3587 318.231 86.2275 320.762 89.1975ZM337.337 85.08C339.429 85.08 338.417 83.2575 338.349 83.0887H339.125L341.893 88.725H341.117C340.205 87.24 338.653 86.4637 335.21 86.4637H330.519V94.8C330.519 96.1162 331.025 96.2512 333.017 96.2512H334.94C338.687 96.2512 341.454 94.2262 343.31 91.425L343.85 91.7962L340.712 97.5H324.14V96.8587C326.57 96.7237 327.009 96.2512 327.077 93.8212V78.8362C327.009 76.4062 326.604 75.9675 324.14 75.7987V75.1575H335.683C337.775 75.1575 336.695 73.1662 336.695 73.1662H337.472L340.847 79.9837H340.003C338.214 76.98 336.695 76.44 333.388 76.44H331.633C330.688 76.44 330.553 76.575 330.519 77.5875V85.08H337.337ZM363.918 98.1075C363.918 96.8587 363.816 95.9137 363.243 93.9562C361.488 88.2862 351.059 85.35 349.439 82.2787V92.5388C349.439 96.015 350.013 96.7237 352.611 96.8587V97.5H344.646V96.8587C347.414 96.69 347.853 96.1162 347.92 92.5388V79.41C347.92 76.6762 346.098 75.7987 344.646 75.7987V75.1575H349.506C352.105 83.0212 360.61 83.46 363.445 88.185V80.1187C363.344 76.5412 362.905 75.9675 360.205 75.7987V75.1575H368.136V75.7987C365.47 76.035 365.031 76.6087 364.93 80.1187V98.1075H363.918ZM380.348 74.685C383.588 74.685 386.423 75.9 388.549 78.2287C390.405 80.22 391.384 83.1225 391.384 86.4637C391.384 93.2812 386.794 97.9725 380.145 97.9725C377.175 97.9725 374.172 96.6562 372.214 94.53C370.392 92.6062 369.312 89.5012 369.312 86.3287C369.312 79.5112 373.902 74.685 380.348 74.685ZM380.348 75.9C378.492 75.9 376.838 76.6425 375.522 78.0937C374.104 79.68 373.159 82.9537 373.159 86.3962C373.159 90.1425 374.273 93.5512 375.994 95.1037C377.209 96.15 378.728 96.7575 380.28 96.7575C382.069 96.7575 383.588 96.15 384.769 94.9687C385.545 94.1925 386.119 93.3487 386.423 92.505C387.098 90.75 387.537 88.4212 387.537 86.43C387.537 82.4137 386.49 79.2412 384.668 77.5875C383.453 76.5075 381.9 75.9 380.348 75.9ZM406.885 75.1575H413.803V75.7987C412.183 75.9 411.812 76.2712 410.698 78.9375C408.1 86.8012 404.387 87.8812 403.375 96.015L403.206 97.8713H402.7L394.397 79.3425C392.946 76.3387 392.473 75.8662 390.82 75.7987V75.1575H399.797V75.7987C399.358 75.8325 398.987 75.8662 398.818 75.8662C397.738 75.9337 397.266 76.2375 397.266 76.9125C397.266 77.4187 397.536 78.1612 398.65 80.6587L403.206 90.8512C404.353 87.105 406.952 84.54 408.707 79.68C409.112 78.6675 409.348 77.7562 409.348 77.2162C409.348 76.2712 408.741 75.9 406.885 75.7987V75.1575Z" fill="#D81F38"/>
<path d="M663.698 612.246C663.893 621.588 664.099 626.279 664.34 628.066C665.887 639.176 668.207 646.418 672.074 652.605C674.184 655.84 674.184 655.84 670.598 654.434C666.467 652.816 664.005 651.975 657.906 651.503V612.246H663.698Z" fill="#D81F38"/>
<path d="M182.98 0C183.332 0 183.824 6.39859 184.035 14.2031C184.668 37.8281 187.199 43.4531 194.863 38.0391C196.62 36.7738 198.308 35.86 198.59 36C198.941 36.1406 197.746 38.1095 196.059 40.3594C191.418 46.4765 189.59 49.8518 186.918 57.3047C183.543 66.7264 182.559 75.3048 184.035 82.4766C186.144 92.7421 191.066 100.195 198.027 103.641C205.34 107.297 213.637 105.328 216.73 99.1406C219.824 92.9532 218.137 86.2734 212.652 83.5312C209.91 82.1251 205.551 81.9141 203.441 82.9688C202.105 83.7422 202.105 83.4608 202.246 71.0156C202.387 63.212 202.738 58.3604 203.16 58.3594C203.582 58.3594 204.074 60.1174 204.285 62.3672C205.41 73.4062 216.379 85.0078 229.738 89.2969C233.254 90.4219 233.043 91.125 229.105 91.6172C224.535 92.1094 221.09 95.5549 220.598 100.125C220.105 103.922 221.371 106.242 224.816 108.07C226.715 109.125 229.457 109.406 241.691 109.688C250.689 109.898 256.243 110.32 256.246 110.742C256.316 111.094 254.91 111.656 253.152 111.938C247.317 112.781 243.59 116.297 243.59 120.938C243.59 126.984 246.191 127.828 266.934 128.391C285.074 128.812 284.582 129.023 276.496 124.453C267.004 119.109 259.762 110.39 252.027 94.9922C246.754 84.4455 243.379 79.3125 238.949 75.2344C236.77 73.336 234.73 71.7188 234.379 71.7188C234.027 71.7187 233.746 71.4375 233.746 71.0859C233.747 70.7347 235.716 70.6641 238.176 70.8047C244.082 71.2969 244.574 70.7344 244.996 61.5938L245.278 55.8984H253.657L253.785 69.6094C253.926 85.781 254.559 90.3518 257.934 99.4219C260.254 105.469 262.645 109.547 266.582 113.906C272.98 121.008 284.371 127.617 295.973 130.852C299.065 131.695 301.807 132.609 302.09 132.82C302.371 133.031 275.371 133.172 242.184 133.031L181.785 132.82L181.574 152.367C181.434 163.125 181.293 194.977 181.152 223.242C180.941 278.015 180.59 285.258 177.074 301.289C174.613 312.891 168.355 328.641 162.238 338.766C157.668 346.43 150.777 355.359 141.285 365.977C120.613 389.25 110.559 408.938 105.777 435.516C103.598 447.539 103.949 450.703 107.535 450.703C109.574 450.703 110.699 449.367 110.699 447.117C110.699 445.219 109.504 443.461 107.746 442.758C106.2 442.125 110.629 438.891 115.269 437.273C121.176 435.164 133.832 434.672 140.582 436.219C154.012 439.383 165.051 448.594 172.715 462.938L175.316 467.93L175.387 464.414C176.019 428.203 167.793 400.711 148.879 375.609C143.887 369 143.184 367.734 144.379 367.734C144.801 367.734 146.91 369.844 149.09 372.445C161.535 387.492 172.644 410.203 176.652 428.906C179.746 443.25 179.816 444.586 179.676 512.297C179.605 547.937 179.746 577.252 180.098 577.477C180.449 577.687 250.691 578.109 336.191 578.391L491.652 578.883L492.004 512.859C492.215 455.977 492.426 445.781 493.48 439.453C496.363 420.961 502.48 404.367 512.254 388.617C516.543 381.797 525.965 369.422 527.301 368.859C529.129 368.227 528.426 369.844 525.332 373.922C510.285 393.68 501.285 414.352 497.769 437.766C496.363 446.906 495.52 467.999 496.504 467.367C496.926 467.086 498.543 464.554 500.16 461.742C507.473 448.524 517.527 440.297 530.465 436.852C539.676 434.461 553.949 435.656 561.684 439.594C566.465 441.984 566.535 442.195 564.215 444.375C561.754 446.695 561.613 447.82 563.441 450.07C564.566 451.477 564.988 451.617 566.605 450.844C569.137 449.719 569.418 447.539 568.152 439.312C565.059 419.836 558.379 402.469 547.832 386.719C543.613 380.391 540.66 376.734 532.082 367.172C517.527 350.93 512.113 343.266 505.504 329.555C498.191 314.367 494.676 301.641 493.199 285.469C492.777 280.616 492.496 248.202 492.496 205.453V133.594H432.238C399.122 133.594 372.263 133.383 372.543 133.102C372.755 132.82 375.567 131.906 378.801 130.992C381.965 130.078 387.801 127.758 391.809 125.789C397.574 122.977 400.176 121.219 404.465 117.07C417.393 104.733 421.499 91.5382 422.103 57.3076L430.579 48.6934C430.831 52.7776 430.568 59.5585 430.762 63.1406C431.043 68.3434 431.324 69.3282 432.73 70.4531C433.996 71.5078 435.051 71.6484 437.934 71.3672C441.519 70.9453 441.519 70.9454 439.762 72.1406C434.84 75.5859 429.426 82.2657 425.066 90.3516C412.27 114.258 407.91 119.461 395.816 125.719L390.894 128.32L404.957 128.531C423.027 128.812 426.051 128.461 428.723 125.789C430.551 123.961 430.762 123.328 430.41 120.867C429.777 116.297 425.98 112.992 420.144 112.078C413.817 111.094 417.895 110.391 430.34 110.391C444.824 110.391 448.621 109.758 451.715 106.875C453.402 105.328 453.824 104.344 453.824 101.953C453.824 96.3283 449.816 92.1094 444.543 92.1094C441.801 92.1093 440.957 90.9844 443.137 90.2109C443.77 90 446.934 88.5937 450.168 87.0469C461.418 81.7031 469.644 71.6484 470.488 61.9453C470.699 59.6254 471.121 57.6568 471.402 57.6562C472.035 57.6562 472.809 68.4844 472.809 77.1328C472.809 83.7422 472.809 83.7422 471.262 83.1797C468.519 82.1954 463.316 82.6876 460.926 84.0938C456.285 86.7656 454.738 93.2345 457.269 98.8594C459.59 103.992 465.144 106.734 470.98 105.75C485.957 103.289 494.887 82.5469 489.684 62.2969C487.996 55.4766 483.637 46.1952 479.488 40.4297C477.731 37.9689 476.324 35.7187 476.324 35.5078C476.325 35.2275 477.52 35.9302 478.996 37.0547C482.301 39.6562 483.285 40.0078 485.324 39.3047C488.98 37.8984 491.09 29.039 491.723 11.9531C492.004 4.78244 492.426 0.42309 492.848 0.492188C493.34 0.632812 493.621 21.2346 493.691 60.2578C493.762 110.953 493.621 119.391 492.848 116.508C491.652 112.289 490.035 110.391 487.504 110.391C484.621 110.391 482.652 113.274 482.652 117.562C482.652 123.891 486.027 127.828 491.934 128.531L495.66 129.023L496.012 136.195C496.363 142.804 496.504 143.578 498.191 145.266C499.457 146.531 501.074 147.234 503.254 147.445L506.488 147.867L504.801 150.047C500.301 155.953 496.715 167.203 497.699 172.477C498.402 176.273 501.566 178.594 505.996 178.594C510.566 178.594 513.59 175.922 513.59 171.773C513.59 168.89 510.988 162.633 509.16 161.086C506.7 159.047 508.879 159.117 513.309 161.156C517.246 162.984 518.441 163.266 522.59 162.984C529.059 162.633 534.473 159.961 540.027 154.266C545.019 149.273 548.465 142.805 549.238 137.18C550.363 129.586 551.207 133.102 551.418 145.828L551.559 158.414L548.324 157.922C543.824 157.359 540.379 158.414 537.496 161.367C535.176 163.758 535.035 164.18 535.035 168.68C535.035 172.828 535.317 173.742 537.004 175.992C539.746 179.648 542.699 180.984 547.691 180.984C557.324 181.055 566.184 172.266 569.137 159.68C570.262 154.898 569.699 141.187 568.082 135.352C566.535 129.656 561.402 119.32 557.887 114.75C556.27 112.641 555.074 110.672 555.215 110.25C555.356 109.899 556.692 110.602 558.168 111.797C563.16 115.734 565.48 115.453 568.152 110.812C570.754 106.172 572.652 94.0076 572.652 81.3516C572.652 77.6255 572.934 74.5319 573.285 74.5312C574.129 74.5312 574.973 185.695 574.551 238.359C574.199 284.273 574.058 286.946 570.121 301.922C567.73 310.992 564.566 319.219 560.137 328.148C554.652 338.977 541.574 357.891 539.535 357.891C538.27 357.891 538.973 356.484 543.402 350.648C560.207 328.289 570.684 295.875 569.699 269.297L569.488 263.32L566.535 263.109C563.934 262.898 563.441 263.11 562.738 264.656C561.543 267.117 562.457 269.789 564.707 270.492L566.605 271.125L564.074 273.023C559.012 276.961 547.48 279.562 539.254 278.719C532.645 278.086 524.91 275.766 519.918 273.023C513.449 269.437 504.801 260.578 500.512 253.125L497.066 247.219L496.855 259.453C496.363 285.539 500.723 306.492 510.707 326.742C517.809 341.086 521.746 346.36 541.785 368.789C559.785 388.898 571.176 415.125 573.988 442.898C574.832 450.773 575.113 644.968 574.34 648.914L573.918 651.094H559.434L558.941 648.422C557.535 640.969 551.488 633.586 543.965 630.211C536.301 626.766 523.644 627.328 515.559 631.477C509.16 634.711 504.941 640.828 504.027 648.07L503.535 651.797H424.434L423.66 648.703C420.988 638.016 406.574 634.43 398.91 642.445C396.168 645.258 394.059 648.914 394.059 650.742C394.059 651.656 392.793 651.797 385.551 651.797C380.137 651.797 377.254 651.516 377.535 651.094C377.746 650.672 378.309 650.391 378.73 650.391C380.769 650.391 384.144 647.93 385.691 645.258C388.082 641.109 388.082 631.336 385.691 623.672C378.941 601.805 361.152 589.148 337.105 589.078C308.981 588.938 290.418 602.86 285.426 627.82C283.105 639.14 285.004 645.961 291.262 648.984C293.3 649.968 294.917 650.953 294.918 651.234C294.918 651.586 291.332 651.797 286.902 651.797H278.887L277.762 648.422C274.949 639.985 264.613 635.414 256.527 639.07C253.082 640.617 249.707 644.555 248.582 648.352L247.738 651.094H169.269L168.848 647.438C167.652 637.313 160.41 630.352 148.176 627.469C132.567 623.813 117.309 632.391 114.144 646.594L113.301 650.461L99.0976 650.039L98.5351 614.883C97.7617 566.859 98.3945 447.82 99.4492 440.508C101.488 426.094 105.215 412.594 110.488 400.57C116.887 385.875 123.285 376.734 140.793 357.117C150.215 346.57 155.77 338.484 161.324 327.305C168.355 313.172 172.644 299.039 175.035 282.656C176.371 273.375 177.355 246.377 176.301 247.008C175.879 247.289 174.191 249.75 172.574 252.562C168.144 260.086 158.23 269.648 151.48 272.953C143.676 276.82 137.91 277.945 128.629 277.523C120.402 277.102 114.566 275.555 110.207 272.602C107.535 270.774 107.324 270.281 109.363 269.648C111.191 269.016 112.246 266.273 111.402 264.094C110.699 262.125 108.519 261.211 106.059 261.844C104.371 262.266 104.371 262.336 104.371 271.969C104.441 301.219 114.004 329.555 131.512 352.406C134.887 356.766 135.098 357.188 133.621 357.188C133.129 357.187 130.738 354.656 128.348 351.633C117.098 337.008 108.309 319.008 103.668 300.938C99.7305 285.75 99.8007 286.804 99.9414 226.055C100.012 195.117 100.363 152.086 100.785 130.43C101.207 108.774 101.629 87.75 101.699 83.6719C101.699 79.5939 101.91 75.8673 102.121 75.375C103.035 72.7036 103.527 75.8678 103.809 87.3281C104.441 111.164 107.887 117.844 116.254 111.727C117.941 110.532 119.417 109.759 119.629 109.969C119.84 110.109 118.574 112.289 116.816 114.75C109.715 124.805 105.777 135.703 105.285 146.953C104.723 159.047 106.973 166.922 112.879 173.32C119.98 181.055 129.613 182.32 135.73 176.344C140.09 172.195 140.441 165.516 136.574 160.664C133.973 157.36 127.996 155.742 124.691 157.5C123.426 158.203 123.355 157.922 123.355 145.617C123.355 138.375 123.637 132.821 123.988 132.539C124.41 132.328 124.902 133.313 125.113 134.789C126.379 143.016 129.402 148.992 135.309 154.688C140.582 159.82 145.715 162.07 152.184 162.07C156.543 162.07 158.09 161.719 161.184 160.102C163.292 158.977 165.12 158.274 165.332 158.414C165.473 158.625 164.699 160.102 163.504 161.719C162.379 163.336 161.043 166.359 160.551 168.469C159.777 171.984 159.778 172.477 161.113 174.234C165.262 179.789 174.613 178.734 175.809 172.617C176.863 166.992 174.473 158.203 170.113 151.031C168.777 148.852 167.652 146.953 167.652 146.812C167.654 146.602 169.13 146.461 170.957 146.461C175.598 146.461 177.496 144.211 177.496 138.586C177.496 136.336 177.707 133.031 177.918 131.344L178.34 128.109L182.137 127.828C185.09 127.547 186.426 127.055 188.043 125.508C191.769 121.992 192.543 115.594 189.871 111.445C187.691 108.141 182.91 109.547 182.066 113.766C180.66 120.305 180.449 118.828 180.379 104.062C180.309 85.851 181.644 2.18032 182.066 0.84375C182.277 0.422014 182.629 0.000104957 182.98 0ZM562.668 512.156C559.926 510.75 554.09 510.328 550.574 511.312C546.707 512.367 541.363 517.711 540.309 521.578C539.676 524.18 539.676 524.953 540.66 526.43C542.488 529.172 547.199 528.469 554.371 524.25C559.644 521.227 562.105 520.313 562.105 521.508C562.105 521.859 556.269 525.938 549.238 530.648C542.207 535.359 530.254 543.305 522.73 548.367C515.207 553.43 508.738 557.578 508.457 557.578C508.106 557.578 508.316 556.875 508.949 555.961C512.957 550.617 514.434 544.711 512.816 541.125C511.129 537.469 504.098 535.992 500.723 538.594C496.223 542.109 496.785 548.649 502.551 560.391C504.589 564.467 506.276 567.982 506.418 568.266C506.559 568.617 505.363 568.828 503.746 568.828C502.129 568.828 500.23 569.18 499.387 569.602C497.418 570.656 496.012 574.524 496.012 579.023V582.891H430.129C386.535 582.891 363.262 583.172 361.574 583.664C358.059 584.578 358.199 585.914 361.926 588.234C370.996 593.93 378.59 601.945 382.879 610.453C385.34 615.375 387.309 616.781 391.387 616.641C395.816 616.43 395.887 616.5 394.199 618.047C391.387 620.719 392.582 623.461 397.574 625.641C399.543 626.555 403.902 626.836 420.637 627.047C440.605 627.328 445.879 627.961 436.738 628.875C430.27 629.578 425.207 632.109 423.871 635.273C422.184 639.351 423.66 642.234 428.863 645.047C431.605 646.523 432.309 646.523 464.16 646.523C496.011 646.523 496.645 646.523 498.613 645.047C501.496 642.867 502.199 640.406 500.723 637.312C498.472 632.742 488.558 629.648 472.809 628.805C468.168 628.594 464.371 628.102 464.371 627.82C464.38 627.539 477.103 627.187 492.707 627.047C518.371 626.836 521.184 626.695 523.293 625.57C532.504 620.508 528.074 605.953 517.668 607.078C514.504 607.43 514.293 607.359 514.293 605.742C514.293 598.711 506.277 595.758 485.465 594.984C477.871 594.633 473.23 594.211 473.301 593.789C473.445 593.367 483.218 592.945 500.019 592.734C525.894 592.383 526.668 592.312 530.113 590.766C534.613 588.656 536.512 586.898 538.691 582.539C539.957 580.078 540.66 577.406 540.941 573.539C541.152 570.586 541.715 568.125 542.066 568.125C542.488 568.125 542.769 572.977 542.769 581.273V594.422L540.449 595.125C539.113 595.477 536.652 597.094 534.894 598.641C527.371 605.461 529.059 617.484 538.059 621.281C544.809 624.094 553.105 621.562 559.223 614.812C566.043 607.359 568.855 598.781 568.223 587.109C567.59 575.086 564.355 565.383 557.394 554.977C555.145 551.602 553.035 548.367 552.754 547.875C551.77 546.399 553.387 546.961 556.199 549.141C558.238 550.828 559.434 551.25 561.332 551.109C563.512 550.898 564.074 550.477 565.41 547.734C567.519 543.586 569.348 531.562 569.066 524.25C568.785 519.188 568.504 518.133 566.816 515.883C565.762 514.477 563.863 512.789 562.668 512.156ZM121.738 510.609C117.238 509.414 114.355 509.555 110.98 511.102C103.738 514.406 102.262 521.508 105.496 538.594C106.691 545.273 108.238 548.789 110.418 549.773C113.019 550.898 113.582 550.758 117.027 548.016C120.894 544.922 121.457 545.836 118.223 550.055C109.293 561.797 105.074 574.031 105.074 588.305C105.074 599.625 108.238 608.273 114.848 614.953C119.066 619.242 123.215 621.07 128.629 621.141C136.785 621.141 142.34 616.078 142.34 608.555C142.34 602.156 138.051 596.109 132.215 594.141L129.684 593.297V579.938C129.684 569.603 129.895 566.649 130.598 566.859C131.09 567.07 131.582 569.18 131.793 572.484C132.566 582.539 137.91 589.43 146.418 591.258C148.246 591.609 160.762 592.172 174.191 592.453C187.616 592.734 198.582 593.156 198.59 593.438C198.59 593.719 193.457 594.141 187.199 594.422C165.825 595.266 159.356 597.446 158.16 604.125C157.668 606.586 157.598 606.656 155.277 606.305C151.973 605.742 147.613 607.781 145.855 610.664C144.238 613.266 143.957 618.398 145.293 621.211C145.785 622.266 147.402 623.742 148.949 624.586C151.762 626.062 152.816 626.133 179.535 626.484C200.836 626.766 207.307 627.047 207.59 627.68C207.801 628.383 205.973 628.594 200.137 628.594C191.91 628.594 182.066 630 177.496 631.828C173.77 633.375 171.168 636.469 171.168 639.562C171.168 642.516 172.926 644.414 176.582 645.398C180.309 646.453 238.035 646.453 241.762 645.398C248.23 643.57 250.762 637.031 246.543 632.812C244.222 630.563 238.457 628.594 233.887 628.594C231.777 628.594 230.934 628.312 231.144 627.68C231.356 627.047 235.154 626.906 247.879 627.047C269.324 627.398 276.637 626.203 278.816 622.195C279.449 620.93 279.308 620.297 278.113 618.68L276.566 616.641H280.504C285.215 616.641 286.48 615.586 289.926 609.117C294.215 601.031 300.262 594.703 309.613 588.375C311.23 587.32 312.496 586.125 312.496 585.703C312.496 583.313 310.313 583.242 243.449 582.891C200.91 582.68 177.355 582.258 176.934 581.836C176.512 581.413 176.09 578.953 175.949 576.281C175.668 572.063 175.387 571.219 173.699 569.812C172.293 568.547 170.957 568.125 168.637 568.125C166.949 568.125 165.543 567.984 165.543 567.844C165.544 567.631 166.669 565.663 168.004 563.414C171.801 556.945 174.121 550.125 174.262 545.062C174.332 540.844 174.191 540.492 172.012 538.523C167.863 534.797 160.973 536.485 159.215 541.688C158.23 544.781 159.074 548.227 162.027 552.938C163.222 554.765 164.066 556.523 163.855 556.664C163.151 557.366 111.473 521.719 111.402 520.453C111.402 519.188 111.755 519.329 118.293 523.266C125.887 527.836 130.246 528.609 132.144 525.656C133.269 524.039 133.269 523.406 132.496 520.805C131.301 516.656 126.027 511.664 121.738 510.609ZM567.801 627.82C564.356 625.008 559.855 626.766 558.59 631.477C557.605 635.133 558.309 638.719 560.559 641.391C562.457 643.641 568.223 646.664 568.996 645.82C569.277 645.538 569.488 641.742 569.488 637.242C569.488 629.649 569.418 629.086 567.801 627.82ZM111.402 626.133C108.59 624.656 107.394 624.797 105.426 626.836C103.738 628.453 103.668 628.946 103.668 636.68C103.668 645.75 103.738 645.82 108.519 643.359C112.176 641.531 114.074 639 114.637 635.273C115.199 631.125 113.933 627.469 111.402 626.133ZM540.66 445.289C534.121 445.078 532.152 445.289 528.004 446.695C512.465 451.828 501.637 461.953 498.894 473.977C497.98 477.914 497.98 489.023 498.824 495.352C500.23 504.773 504.309 509.766 510.566 509.766C514.082 509.766 517.387 508.289 518.512 506.25C518.934 505.477 519.707 504.844 520.269 504.844C521.113 504.844 521.324 506.461 521.324 514.125C521.324 524.953 521.957 527.977 525.051 531.281C531.309 538.102 538.129 532.266 536.16 521.789C535.738 519.609 535.176 517.078 534.965 516.094C534.613 514.477 534.895 514.195 538.059 513.141C545.23 510.609 550.223 502.031 549.168 494.086C548.887 492.187 548.043 489.023 547.34 487.055C546.566 485.086 546.074 483.328 546.285 483.188C546.427 483.047 548.255 483.68 550.223 484.734C552.894 486 555.074 486.562 557.746 486.562C561.332 486.562 561.824 486.352 564.566 483.539C570.121 477.984 571.246 468.844 567.379 460.828C565.058 456.047 559.012 450.422 553.176 447.68C548.817 445.641 547.691 445.43 540.66 445.289ZM496.012 509.766V516.938C496.012 520.945 496.223 526.289 496.504 528.891C496.926 533.461 496.996 533.672 498.754 533.672C501.566 533.602 506.066 531.281 508.176 528.82C510.285 526.219 511.762 521.578 511.199 519.188C510.566 516.656 506.558 512.508 503.394 511.102C501.848 510.398 499.527 509.766 498.332 509.766H496.012ZM174.894 509.133C162.379 511.102 157.387 519.469 163.504 528.188C164.98 530.227 169.48 532.547 173.137 533.25L175.387 533.602V521.367C175.387 514.617 175.176 509.133 174.894 509.133ZM141.988 445.781C129.402 442.547 118.574 445.5 110.348 454.359C105.285 459.773 103.387 464.766 103.809 471.516C104.582 483.609 112.668 488.953 122.582 484.031C124.55 482.977 126.378 482.344 126.59 482.484C126.73 482.695 126.238 484.242 125.465 486C120.824 496.547 124.692 508.008 134.465 512.367C137.347 513.633 138.121 514.266 137.84 515.18C137.559 515.813 136.996 518.484 136.574 521.086C135.449 527.414 136.504 531.141 139.809 532.758C141.918 533.742 142.34 533.742 144.73 532.617C149.933 530.156 151.48 525.375 151.48 511.594V504L154.223 506.461C160.269 511.945 168.144 509.906 171.449 501.961C172.715 499.008 173.98 489.515 173.98 483.398C173.98 472.289 171.098 465.398 163.434 457.734C157.387 451.688 150.918 448.102 141.988 445.781ZM569.559 491.273C568.293 490.008 565.48 489.797 563.16 490.711C559.012 492.469 557.395 498.516 559.996 502.594C561.473 505.055 565.059 506.953 568.082 506.953C569.699 506.953 569.84 506.672 569.84 503.859C569.84 502.242 570.051 498.937 570.262 496.617C570.613 493.242 570.473 492.258 569.559 491.273ZM110.207 490.148C108.027 489.024 105.355 489.164 104.09 490.5C103.246 491.344 102.965 493.102 102.965 498.023C102.965 501.609 103.246 504.913 103.598 505.477C104.652 507.094 109.223 505.758 111.894 503.086C113.863 501.117 114.215 500.273 114.215 497.32C114.215 493.735 112.949 491.555 110.207 490.148ZM533.629 183.023C531.309 180.985 529.199 180.985 526.246 182.953C521.957 185.906 521.324 188.157 521.324 200.18C521.324 206.086 521.043 210.938 520.762 210.938C520.41 210.937 519.426 210.094 518.441 209.109C514.785 205.102 508.808 204.399 504.801 207.562C500.863 210.656 498.121 219.586 498.121 229.711C498.121 240.891 500.723 247.781 507.613 255.164C512.887 260.719 517.879 263.813 525.684 266.555C536.23 270.141 547.059 269.859 555.215 265.711C559.574 263.461 565.129 257.906 567.379 253.406C570.965 246.305 570.051 237.375 565.129 231.961C561.051 227.461 556.34 226.899 549.66 230.133C547.973 230.977 546.496 231.398 546.215 231.188C546.004 230.976 546.356 229.71 547.059 228.375C548.887 224.93 549.238 215.93 547.762 211.992C546.355 208.336 540.801 202.992 537.074 201.797C535.106 201.094 534.684 200.742 535.105 199.547C536.019 196.523 536.582 190.266 536.019 187.523C535.738 185.695 534.824 184.008 533.629 183.023ZM144.238 180.914C139.176 180.141 136.574 185.625 138.121 193.992C138.543 196.382 139.035 198.773 139.246 199.195C139.387 199.687 138.121 200.602 136.293 201.375C132.074 203.062 128.629 206.156 126.66 209.812C124.551 213.891 124.481 222.539 126.66 227.25C127.504 229.008 127.996 230.695 127.785 230.836C127.644 231.047 126.449 230.625 125.254 229.922C123.988 229.219 121.527 228.234 119.629 227.742C116.817 227.039 115.832 227.109 113.16 228.164C107.816 230.203 104.723 235.758 104.793 243.281C104.863 252.141 110.418 260.297 119.559 264.797C124.34 267.187 125.465 267.469 132.004 267.75C140.652 268.102 145.855 266.977 153.59 262.898C165.683 256.641 172.996 247.711 174.754 236.883C175.668 231.398 175.105 220.289 173.629 215.438C170.676 205.524 162.941 201.797 156.051 207C154.715 208.055 153.449 208.758 153.238 208.688C152.957 208.544 152.746 204.045 152.676 198.633C152.535 188.086 152.043 186.258 148.457 182.953C147.543 182.109 145.644 181.195 144.238 180.914ZM567.238 208.828C561.895 208.898 558.379 212.485 558.379 217.828C558.379 221.695 560.699 224.227 564.707 224.789C569.137 225.352 569.84 224.156 569.84 215.789V208.828H567.238ZM110.488 208.758C107.395 207.422 105.637 207.141 104.863 207.914C104.582 208.125 104.371 211.43 104.371 215.227C104.371 220.5 104.652 222.328 105.496 223.172C108.66 226.336 115.621 222.047 115.621 216.984C115.621 213.117 113.863 210.305 110.488 208.758ZM501.848 182.883C496.434 181.336 496.715 180.704 496.715 194.133V206.156L499.316 205.664C505.223 204.539 510.285 200.391 511.129 195.961C512.113 190.969 507.402 184.43 501.848 182.883ZM175.316 181.406C167.582 181.477 160.692 189.563 162.66 196.242C163.926 200.531 170.113 204.609 175.316 204.609C176.723 204.609 176.793 204.328 176.793 196.242C176.793 191.672 177.004 186.469 177.215 184.641L177.707 181.406H175.316ZM569.137 186.68C567.871 185.133 565.199 185.414 563.512 187.172C562.176 188.648 561.965 189.492 561.824 193.359C561.754 195.469 561.191 195.398 556.41 192.586C548.043 187.664 543.894 186.68 541.012 189C539.676 190.055 539.465 190.758 539.887 192.727C541.363 200.812 549.941 205.805 559.082 203.906C563.441 202.992 565.902 201.164 567.73 197.648C569.488 194.062 570.332 188.086 569.137 186.68ZM110.98 186.469C109.644 184.5 106.129 184.36 105.074 186.258C104.23 187.875 105.215 193.641 106.902 197.297C109.012 201.656 111.543 202.852 118.926 202.852C124.34 202.852 125.676 202.641 127.293 201.375C130.949 198.703 133.34 195.047 133.691 191.672C134.043 188.789 133.902 188.437 132.285 187.664C129.684 186.469 126.238 187.383 119.418 190.969C116.184 192.656 113.23 194.062 112.809 194.062C112.457 194.062 112.105 192.726 112.105 191.039C112.105 189.422 111.613 187.312 110.98 186.469ZM463.809 112.078C456.848 110.391 449.113 111.094 442.785 113.906C434.981 117.352 432.168 123.328 436.387 127.266C437.863 128.602 438.777 128.672 458.816 128.672C481.668 128.672 481.105 128.812 479.84 124.523C478.363 119.25 471.332 113.836 463.809 112.078ZM223.129 111.164C220.668 110.742 217.996 110.461 217.223 110.531C207.027 111.234 198.027 115.875 195.144 121.922C192.191 127.898 191.207 127.617 215.254 127.828L236.418 127.969L237.965 126.07C242.394 120.445 235.082 113.062 223.129 111.164Z" fill="#D81F38"/>
<path d="M317.249 600.645C317.286 600.645 317.323 600.645 317.361 600.645C317.368 600.768 317.368 600.768 317.376 600.895C317.502 603.137 317.502 603.137 317.921 605.338C317.949 605.444 317.949 605.444 317.977 605.551C318.896 608.996 321.1 611.443 324.136 613.235C325.543 614.042 327.012 614.738 328.508 615.364C329.873 615.937 330.98 616.721 332.051 617.743C332.171 617.852 332.171 617.852 332.293 617.963C334.233 619.788 336.883 623.16 337.433 625.789C337.507 625.789 337.581 625.789 337.657 625.789C337.683 625.7 337.709 625.61 337.736 625.517C337.918 625.019 338.157 624.57 338.414 624.106C338.468 624.009 338.522 623.912 338.577 623.812C339.813 621.619 341.279 619.548 343.04 617.743C343.181 617.598 343.181 617.598 343.325 617.45C344.647 616.173 346.258 615.453 347.93 614.738C351.633 613.148 354.968 610.956 356.608 607.126C357.421 605.01 357.571 602.891 357.618 600.645C357.692 600.645 357.766 600.645 357.842 600.645C358.054 600.91 358.251 601.176 358.445 601.455C358.504 601.54 358.564 601.626 358.626 601.714C362.527 607.375 364.713 614.175 364.703 621.054C364.703 621.134 364.703 621.214 364.703 621.296C364.7 623.394 364.598 625.486 364.173 627.544C364.115 627.834 364.065 628.125 364.015 628.416C362.586 636.442 358.184 643.844 353.02 650.04C352.831 650.27 352.641 650.501 352.452 650.732C352.305 650.911 352.158 651.09 352.011 651.27C351.85 650.889 351.94 650.637 352.088 650.264C352.118 650.191 352.149 650.119 352.18 650.044C352.227 649.928 352.227 649.928 352.274 649.809C352.342 649.641 352.41 649.473 352.478 649.306C352.662 648.854 352.842 648.4 353.021 647.946C353.058 647.852 353.095 647.758 353.134 647.661C353.531 646.651 353.895 645.63 354.254 644.606C354.283 644.523 354.312 644.44 354.342 644.354C354.539 643.792 354.733 643.228 354.926 642.664C354.97 642.539 354.97 642.539 355.014 642.411C355.396 641.298 355.748 640.186 356.041 639.046C356.059 638.975 356.078 638.904 356.097 638.83C356.54 637.102 356.886 635.354 357.203 633.599C357.25 633.339 357.298 633.08 357.348 632.821C357.938 629.746 358.112 625.688 356.3 622.996C355.816 622.386 355.397 621.966 354.603 621.846C351.717 621.551 349.022 623.373 346.759 624.95C346.517 625.118 346.274 625.285 346.03 625.451C344.981 626.171 343.987 626.945 343.007 627.755C342.755 627.963 342.498 628.165 342.241 628.367C341.247 629.159 340.286 629.991 339.353 630.853C339.293 630.909 339.233 630.965 339.17 631.022C338.91 631.263 338.65 631.504 338.392 631.747C338.314 631.818 338.236 631.89 338.155 631.964C338.09 632.024 338.025 632.085 337.958 632.147C337.77 632.271 337.77 632.271 337.321 632.271C337.051 632.038 337.051 632.038 336.753 631.719C336.253 631.197 335.729 630.737 335.161 630.286C334.849 630.032 334.554 629.765 334.258 629.491C333.682 628.963 333.078 628.483 332.46 628.007C332.188 627.798 331.921 627.585 331.655 627.368C328.62 624.892 324.436 621.52 320.276 621.878C319.902 621.999 319.661 622.166 319.379 622.437C319.311 622.502 319.242 622.567 319.172 622.634C317.453 624.431 317.406 627.047 317.449 629.379C317.564 633.53 318.534 637.776 319.846 641.705C319.943 642.005 320.037 642.306 320.131 642.608C320.441 643.61 320.775 644.602 321.124 645.591C321.153 645.671 321.181 645.752 321.21 645.835C321.687 647.189 322.215 648.518 322.791 649.834C322.846 649.959 322.9 650.085 322.956 650.214C323.004 650.324 323.052 650.434 323.102 650.547C323.192 650.823 323.192 650.823 323.08 651.158C322.34 650.478 321.731 649.713 321.121 648.92C320.947 648.697 320.77 648.477 320.592 648.257C318.211 645.3 316.264 642.022 314.557 638.641C314.512 638.553 314.467 638.465 314.421 638.374C313.292 636.154 312.395 633.781 311.754 631.377C311.715 631.245 311.677 631.113 311.637 630.977C311.054 628.93 310.784 626.828 310.557 624.717C310.527 624.455 310.527 624.455 310.463 624.234C310.373 623.85 310.39 623.459 310.389 623.066C310.389 622.974 310.388 622.882 310.388 622.788C310.387 622.489 310.387 622.191 310.387 621.892C310.387 621.79 310.387 621.688 310.388 621.583C310.391 620.069 310.418 618.574 310.632 617.073C310.65 616.947 310.667 616.822 310.685 616.693C311.219 612.981 312.239 609.389 313.884 606.009C313.929 605.918 313.973 605.827 314.018 605.733C314.897 603.946 315.911 602.135 317.249 600.645Z" fill="#D81F38"/>
</svg>
