<svg width="720" height="417" viewBox="0 0 720 417" fill="none" xmlns="http://www.w3.org/2000/svg">
<rect x="0.5" y="0.5" width="719" height="415.35" fill="#1F0506"/>
<rect x="0.5" y="0.5" width="719" height="415.35" stroke="#38050C"/>
<path d="M35.3585 35.4159C35.3585 35.7036 35.3585 70.0497 35.3585 111.817V187.758L56.3918 208.757C71.3745 223.715 77.6557 230.389 78.3472 232.057C79.1539 234.071 79.2692 238.616 79.2692 277.507C79.2115 304.834 78.981 322.266 78.5777 324.97C77.3675 333.427 75.293 337.052 71.6626 337.052C70.1643 337.052 70.1067 337.167 70.3372 339.468C71.144 347.292 59.446 350.629 56.219 343.495C55.3546 341.654 55.1817 338.375 54.9512 321.231C54.7783 310.127 54.5478 301.843 54.4902 302.821C53.1072 321 52.0699 325.143 48.209 327.214C44.7515 329.055 41.5244 327.271 40.1991 322.899C39.4499 320.31 39.3923 318.929 39.9686 314.557C40.9482 306.215 43.8295 300.347 49.7649 294.421C55.0664 289.128 65.3814 283.49 73.6795 281.246C75.293 280.844 76.9065 280.268 77.3099 279.923C78.3472 279.118 78.2319 273.25 77.137 272.789C74.6015 271.869 57.5443 275.436 51.3784 278.197C48.4971 279.463 45.6735 281.592 46.365 281.994C46.4802 282.052 47.1141 282.397 47.748 282.742C49.1886 283.548 49.4768 285.446 48.67 288.15C47.2294 292.983 41.8702 295.687 39.7381 292.638C38.9313 291.487 38.816 287.575 38.816 261.226C38.816 234.819 38.9313 230.907 39.7381 229.296C40.2567 228.26 43.9447 224.176 47.9209 220.148C51.897 216.121 55.0088 212.669 54.8359 212.497C54.6631 212.267 49.9954 216.524 44.5786 221.932C37.6635 228.836 34.7823 232.057 35.0128 232.69C35.1856 233.208 35.3585 266.864 35.3585 307.481V381.351L176.714 381.178C305.91 381.005 318.415 380.89 322.564 380.027C335.415 377.323 345.787 372.146 354.489 363.976C358.234 360.467 356.909 360.639 352.126 364.264C344.865 369.844 336.279 373.756 326.656 376C322.391 376.978 318.473 377.036 271.681 377.036C224.37 377.036 221.316 376.978 220.682 376C219.184 373.641 222.93 371.628 224.543 373.929L225.465 375.195L226.618 373.239C228.404 370.305 229.153 365.99 228.865 360.007C228.635 355.404 228.346 354.023 226.733 350.744C224.428 346.026 219.933 341.482 215.035 338.95L211.405 337.052L263.556 337.282C320.317 337.454 317.608 337.282 328.672 340.791C339.448 344.243 348.438 349.708 358.234 358.741C370.681 370.305 381.688 376.345 396.44 379.74L402.145 381.005L543.443 381.178L684.798 381.351L684.914 306.157C685.029 264.735 685.029 230.331 684.914 229.641C684.798 228.836 680.361 224.003 674.022 217.675C664.687 208.354 663.419 206.916 664.111 206.111C664.514 205.593 669.355 200.703 674.829 195.295L684.798 185.342V110.206V35.0132H546.382C414.189 35.0707 407.619 35.1283 402.087 36.1063C387.623 38.7527 374.312 45.2537 364.112 54.6889C361.98 56.6449 361.519 56.7024 359.733 54.8039C357.773 52.6753 348.092 45.8866 343.655 43.5278C336.625 39.8458 326.598 36.7391 318.127 35.5885C312.825 34.8981 35.3585 34.7831 35.3585 35.4159ZM54.9512 40.5937C57.0833 43.3552 55.4698 46.4044 51.5513 46.9222C47.287 47.4975 43.7718 45.3688 41.3516 40.7088L40.4872 39.0404H47.1141C53.6258 39.0404 53.7411 39.0404 54.9512 40.5937ZM180.921 39.6732C185.819 40.5362 188.066 42.4347 188.47 46.0592C188.758 48.3029 188.527 49.2234 187.259 51.352C186.395 52.7903 184.954 54.4012 183.975 54.919C179.48 57.2202 178.097 53.9985 181.093 48.533C182.938 45.1962 183.341 43.873 182.304 44.5058C181.727 44.851 165.765 68.7264 164.497 71.0852C163.518 72.9838 163.691 73.0413 166.341 71.5455C169.28 69.8195 171.528 69.7045 173.084 71.2578C175.331 73.5015 174.294 77.2411 171.24 78.3341C169.338 79.0245 161.213 76.2055 159.023 74.0768C157.813 72.9838 156.833 73.5015 157.179 74.9973C157.698 77.0685 155.393 79.3122 152.742 79.3122C149.399 79.3122 144.674 78.2191 141.62 76.7233C140.006 75.9178 138.508 75.285 138.335 75.285C138.162 75.285 139.027 77.2411 140.295 79.6574L142.542 83.9722V91.3362C142.542 103.935 140.698 111.53 135.685 119.124C131.075 126.2 125.081 130.687 114.133 135.347C110.56 136.843 109.523 136.556 106.353 133.104C101.743 128.099 101.628 127.466 101.628 105.949C101.628 86.446 101.513 85.2379 98.9771 82.4189C96.384 79.4848 91.8892 78.5643 88.2011 80.1176C87.1639 80.5203 84.9741 82.2463 83.303 83.9147L80.3064 86.9063V80.2902C80.3064 76.6082 80.5946 72.2934 80.9403 70.74C82.2657 64.4691 87.2215 60.6721 94.9433 59.9242C102.089 59.2913 98.7466 58.601 89.1231 58.716L79.4997 58.8886L79.0963 60.557C78.52 62.7432 75.4083 65.9074 72.8151 67.058C70.1643 68.2087 65.2085 67.806 63.134 66.2526C57.0833 61.8227 57.141 53.6533 63.3069 47.3824C68.7237 41.8019 76.1574 39.2705 85.2046 39.7883C94.0213 40.3636 103.472 43.8155 110.329 48.9357C113.499 51.352 115.17 51.8123 113.326 49.7987C110.56 46.8071 110.156 44.2182 112.173 42.7799C113.902 41.5142 118.8 40.191 123.41 39.6157C129.519 38.9253 176.772 38.9253 180.921 39.6732ZM199.246 40.3061C200.859 42.895 197.286 46.2318 194.059 45.0236C192.33 44.4483 190.256 41.1115 190.775 39.8458C191.236 38.5801 198.381 38.9829 199.246 40.3061ZM318.242 39.9034C326.598 41.3416 331.611 43.01 338.815 46.5194C346.421 50.259 351.78 53.9985 357.889 59.7516C370.22 71.4304 380.017 76.9534 395.806 81.2107C400.416 82.4189 400.647 82.4764 487.143 82.764L573.869 83.0517L574.157 107.617L574.445 132.241L586.489 144.15C602.797 160.374 609.021 168.946 613.573 181.545C615.36 186.665 616.109 194.144 615.071 196.676C613.861 199.61 609.424 199.84 607.35 197.078C606.312 195.64 606.139 194.489 605.909 187.988C605.851 183.789 605.506 180.682 605.217 180.912C604.929 181.085 604.699 181.833 604.699 182.523C604.699 184.422 602.797 186.608 601.587 186.147C601.068 185.917 600.204 184.767 599.685 183.616C598.187 179.992 599.109 173.318 602.106 166.012C602.336 165.436 602.279 165.034 601.875 165.034C601.126 165.034 599.224 169.176 598.302 172.743C597.957 174.066 597.496 182.983 597.265 192.648C596.862 208.527 596.689 210.426 595.652 212.842C594.787 214.798 594.096 215.603 592.943 215.776C590.062 216.351 587.411 212.842 587.411 208.527C587.411 205.708 586.893 204.557 585.971 205.305C584.818 206.283 582.974 204.845 581.533 201.853C580.496 199.725 580.208 197.941 580.035 192.361C579.805 185.802 579.862 185.169 581.591 180.049C583.896 173.145 587.354 166.587 591.56 160.891C595.191 156.001 594.787 154.678 591.042 159.108C581.879 170.039 576.981 181.487 575.022 196.618C572.429 216.524 576.462 236.487 586.316 252.251C590.753 259.385 593.808 262.952 605.045 274.343C611.095 280.499 616.57 286.482 617.146 287.575C618.126 289.416 618.241 291.544 618.529 310.07L618.817 330.551L620.258 332.622C621.064 333.83 622.736 335.268 624.061 335.901C628.498 338.087 632.129 337.167 636.623 332.679L639.389 329.86L639.159 338.202C638.928 345.451 638.756 346.889 637.603 349.191C635.644 352.988 632.013 355.289 625.675 356.612L620.546 357.648L630.515 357.705L640.427 357.763V356.44C640.427 354.599 644.115 350.456 646.708 349.363C649.589 348.098 654.775 348.615 657.196 350.341C659.328 351.837 661.114 355.519 661.172 358.338C661.229 363.861 656.677 370.362 650.626 373.354C638.928 379.279 623.542 377.151 610 367.773C605.909 364.897 604.353 364.494 606.543 366.795C608.56 368.866 609.366 371.053 608.617 372.318C608.329 372.836 607.119 373.814 605.909 374.447C601.299 376.748 597.208 377.036 567.242 377.036C540.734 377.036 538.545 376.978 536.009 375.943C531.457 374.159 529.959 370.247 531.975 365.587C533.935 361.272 538.89 359.086 540.216 362.02C540.734 363.171 540.504 364.034 538.775 367.543C537.623 369.844 536.758 371.973 536.874 372.318C537.104 373.009 555.198 345.969 555.602 344.243C555.89 343.207 555.832 343.207 554.334 344.416C552.202 346.026 549.09 346.602 547.304 345.681C545.46 344.646 544.884 341.597 546.151 339.641C546.958 338.432 547.534 338.202 550.127 338.202C552.49 338.202 554.104 338.72 557.734 340.503C560.27 341.769 562.402 342.805 562.459 342.805C562.517 342.805 562.632 341.827 562.747 340.676C562.978 337.684 564.649 336.879 569.547 337.282C574.445 337.742 576.981 338.49 579.632 340.273C580.842 341.079 581.879 341.597 581.994 341.482C582.11 341.366 581.245 339.41 580.035 337.052L577.903 332.852L577.961 323.014C577.961 311.853 578.71 307.883 582.11 300.922C586.259 292.407 595.767 284.411 605.448 281.304C607.638 280.556 608.099 279.693 606.889 278.485C605.794 277.392 604.065 277.679 599.858 279.808C591.445 284.065 584.991 290.279 580.669 298.333C577.73 303.799 577.327 303.281 577.73 294.248C578.133 285.504 578.767 284.296 587.296 275.781C591.099 271.984 594.096 268.647 593.923 268.359C593.75 268.129 589.255 272.272 583.896 277.564L574.157 287.287V310.415V333.6H490.773C444.846 333.6 406.409 333.772 405.314 333.945C389.583 336.476 377.078 342.172 365.61 352.01L361.75 355.289L358.695 352.527C348.726 343.553 334.723 336.821 321.066 334.52C316.11 333.657 306.832 333.542 230.767 333.6H146V308.976V284.296L135.051 273.537L124.102 262.779L127.502 258.579C136.03 247.821 141.159 236.89 144.386 222.45C146.115 214.74 146.23 199.782 144.674 191.901C141.851 177.69 134.993 163.308 126.695 154.218L123.929 151.111L134.935 140.123L146 129.077L146.115 106.064L146.288 83.0517L232.726 82.764C311.673 82.4764 319.51 82.3613 323.198 81.4408C333.513 78.9095 339.276 76.5507 346.018 72.1208C350.397 69.1867 356.333 64.0089 356.333 63.0884C356.333 62.5131 353.279 64.5842 350.858 66.8279C347.055 70.2798 337.316 74.7672 328.672 77.0109C320.72 79.0245 313.114 79.3122 261.884 79.3122H212.096L215.784 76.9534C225.753 70.5674 229.384 63.8363 228.865 52.6177C228.692 49.396 228.231 46.0017 227.77 45.0812C226.387 41.9745 224.37 40.2485 224.37 42.1471C224.37 42.6073 223.852 43.1826 223.218 43.3552C220.97 44.0456 219.414 41.3416 221.028 39.7308C222.181 38.5801 311.788 38.7527 318.242 39.9034ZM498.956 40.9964C498.956 41.9745 498.553 42.895 497.919 43.2977C497.054 43.8155 496.651 43.7004 495.787 42.6073C494.404 40.9389 493.654 41.3416 492.214 44.6784C489.563 50.6041 490.37 61.2474 493.885 67.058C496.536 71.4879 498.149 73.0988 503.22 76.4932L507.485 79.3697L456.544 79.1396C421.68 78.967 404.565 78.6793 402.376 78.2766C396.152 77.0109 388.834 74.5946 383.705 72.1783C377.827 69.4168 368.261 63.0884 364.861 59.7516L362.614 57.5654L365.668 55.0916C375.119 47.555 386.125 42.4923 397.823 40.2485C399.552 39.9034 401.511 39.5006 402.145 39.3856C402.779 39.2705 424.849 39.213 451.127 39.2705L498.956 39.328V40.9964ZM528.806 40.9964C528.748 41.9169 528.114 43.2402 527.423 43.9881C524.945 46.6345 519.989 45.1387 519.989 41.7444C519.989 39.5006 521.084 38.9829 525.176 39.1554C528.921 39.328 528.921 39.328 528.806 40.9964ZM596.055 39.6157C606.024 40.8239 609.943 42.9525 608.675 46.4044C608.329 47.2673 607.522 48.533 606.889 49.2234C604.814 51.4096 606.139 51.2945 609.136 49.0508C612.536 46.4044 621.064 42.3197 625.732 41.054C640.139 37.1994 654.718 41.8019 659.731 51.8698C663.477 59.4639 659.213 67.806 651.491 67.806C649.935 67.806 647.745 67.4032 646.65 66.943C644.115 65.9074 641.061 62.5131 640.6 60.2694L640.311 58.601H630.573C620.603 58.601 617.665 59.2913 624.81 59.9817C631.61 60.557 635.067 62.5131 637.43 66.943C638.756 69.4744 638.986 70.625 639.159 76.7233L639.389 83.627L637.718 82.0737C634.952 79.4272 630.918 78.5643 627.461 79.8875C625.329 80.6929 620.2 85.6406 619.336 87.7693C618.702 89.2075 618.529 93.81 618.529 108.02C618.529 124.647 618.414 126.718 617.376 130.055C616.685 132.356 615.59 134.312 614.553 135.347C613.055 136.786 612.594 136.901 610.346 136.556C609.021 136.326 607.119 135.808 606.197 135.347C605.275 134.887 604.238 134.542 603.892 134.542C603.316 134.542 600.607 133.219 595.133 130.285C594.153 129.767 591.33 127.408 588.967 124.992C585.567 121.655 583.954 119.526 581.994 115.557C578.249 108.135 577.5 103.82 577.73 92.4293L577.903 83.0517L580.035 79.1396C581.245 77.0109 582.052 75.285 581.879 75.285C581.764 75.285 580.323 75.9178 578.71 76.7808C574.734 78.7369 567.012 79.83 564.649 78.6793C563.266 78.0465 562.863 77.4712 562.747 75.6877C562.632 74.5371 562.517 73.5591 562.459 73.5591C562.402 73.5591 560.27 74.5946 557.734 75.8603C550.473 79.4848 545.345 78.7944 545.345 74.1344C545.345 71.4304 547.246 69.8771 550.127 70.2798C551.395 70.4524 553.182 71.1428 554.046 71.7756C554.91 72.466 555.775 72.7536 555.948 72.5235C556.236 72.0057 538.141 44.6209 537.277 44.3333C536.413 44.0456 536.528 44.4483 538.833 48.7631C540.677 52.2725 540.85 53.0205 540.273 54.2861C538.66 57.7955 533.013 54.4587 531.514 49.1659C530.189 44.2757 532.725 40.7663 538.545 39.6732C542.117 38.9253 590.235 38.9253 596.055 39.6157ZM678.863 39.8458C677.826 42.5498 675.29 45.5414 673.388 46.3468C668.836 48.2454 662.785 45.6565 663.823 42.3197C664.687 39.328 665.494 39.0404 672.582 39.0404C678.056 39.0404 679.093 39.1554 678.863 39.8458ZM215.784 41.3416C218.55 42.7799 221.719 46.3468 222.93 49.5686C223.679 51.6397 223.909 53.3656 223.679 57.0476C223.218 65.5622 218.492 73.0413 211.405 76.4356C208.293 77.9314 207.14 78.1616 203.049 78.1616C194.924 78.1616 190.429 76.3781 189.219 72.6386C188.47 70.4524 189.046 68.9566 191.063 67.5758C191.754 67.058 192.158 66.4827 191.927 66.3101C191.697 66.08 188.642 65.7348 185.127 65.5047C178.904 65.1595 178.616 65.102 177.348 63.4336C174.006 59.2913 177.348 56.8175 184.609 58.1983C186.51 58.5434 186.683 58.4284 187.836 56.1271C189.507 52.6177 192.042 51.1219 196.191 51.1219C198.035 51.1219 200.225 51.4096 201.09 51.6972C201.954 52.0424 202.761 52.1575 202.934 52.0424C203.049 51.8698 202.761 50.6617 202.242 49.3385C201.032 46.4044 201.435 44.2757 203.51 42.3197C206.449 39.5582 211.405 39.1554 215.784 41.3416ZM514.976 41.169C515.84 41.5718 516.993 42.895 517.511 43.9881C518.491 46.0017 518.318 47.7851 516.82 51.352C516.417 52.3301 516.532 52.3876 517.742 52.0424C520.508 51.1795 525.752 51.0069 527.481 51.6972C529.67 52.6177 532.667 55.9545 532.667 57.5079C532.667 58.5434 532.897 58.601 534.857 58.2558C542.348 56.76 546.094 59.6941 541.945 63.8363C540.331 65.3896 539.985 65.5047 535.663 65.5047C533.128 65.5047 530.247 65.6773 529.267 65.8499L527.481 66.1951L529.209 68.2087C531.514 70.7976 531.457 72.6386 528.979 74.9398C526.616 77.1835 522.813 78.1616 516.359 78.1616C512.498 78.1616 511.057 77.8739 508.464 76.6657C501.319 73.3865 495.844 64.2966 495.787 55.6669C495.729 44.6784 506.274 36.6816 514.976 41.169ZM681.341 66.3677V86.7912H679.497C674.944 86.7337 669.585 82.764 667.338 77.7013C662.497 66.943 664.802 54.5738 672.697 49.1083C674.483 47.8426 678.748 46.2318 680.937 46.0017C681.168 45.9441 681.341 55.1491 681.341 66.3677ZM44.3481 47.6125C52.4157 51.2945 56.5071 61.1899 54.3749 71.9482C52.9343 79.3122 49.3615 83.9722 43.7142 85.8707C38.355 87.7117 38.816 89.4952 38.816 66.6553V46.5194H40.4296C41.2939 46.5194 43.0803 47.0372 44.3481 47.6125ZM66.0729 69.762C69.1847 71.0277 70.222 72.6961 70.222 76.2055C70.222 79.0245 70.3372 79.3122 71.4897 79.3122C74.7744 79.3122 76.676 81.5559 78.059 86.9638C78.7505 89.8404 79.7878 126.833 79.3268 132.413L78.981 136.383L77.0794 135.98C71.3168 134.945 60.2527 130.112 55.2393 126.43C50.4564 122.921 45.7887 117.743 43.5413 113.313C38.816 104.223 38.2398 92.5443 42.2736 89.6678C43.138 89.0349 44.6938 88.5172 45.6735 88.5172C50.8598 88.5172 53.0496 93.8676 54.2021 108.941C54.6054 114.234 54.7207 111.932 54.9512 94.8456C55.2393 75.5727 55.2969 74.307 56.4495 72.4084C58.4087 69.0716 62.0391 68.0361 66.0729 69.762ZM662.382 71.2578C663.246 72.2358 664.111 73.8467 664.284 74.8247C664.457 75.8028 664.629 85.2379 664.629 95.8236C664.629 108.48 664.802 114.924 665.206 114.694C665.551 114.521 665.782 112.105 665.782 109.343C665.84 99.7357 667.28 93.2347 670.104 90.4157C672.294 88.2295 675.002 87.8843 677.249 89.4377C681.456 92.4293 681.168 103.245 676.615 112.565C672.755 120.447 665.551 126.89 655.179 131.665C650.108 134.024 641.694 136.613 641.118 135.98C640.542 135.405 640.484 98.1249 641.061 92.3142C641.925 83.2818 644.057 79.3122 648.091 79.3122C649.762 79.3122 649.762 79.2546 649.474 77.2411C648.898 73.6166 650.972 70.3373 654.545 69.3593C655.179 69.1867 656.85 69.1292 658.291 69.2442C660.365 69.3593 661.172 69.762 662.382 71.2578ZM186.453 72.8112C188.297 74.8247 189.219 76.6082 189.219 78.104C189.219 79.2546 188.931 79.3122 182.88 79.3122H176.541V77.8739C176.541 75.5727 178.039 73.2714 180.114 72.2358C182.938 70.8551 184.724 71.0277 186.453 72.8112ZM539.87 72.4084C541.772 73.5591 543.962 77.7013 543.328 78.7944C543.097 79.0821 540.101 79.3122 536.643 79.3122H530.247L530.65 77.4136C531.111 75.3425 532.84 72.6961 534.28 71.8331C535.836 70.9702 537.853 71.1428 539.87 72.4084ZM94.0213 84.49C95.1162 85.1804 96.384 86.6762 97.0178 88.1144C98.0551 90.3582 98.1703 92.0841 98.1703 111.184V131.896L111.021 144.84C118.051 151.974 124.966 159.453 126.407 161.409C135.339 173.836 140.813 188.276 139.43 195.813C139.084 197.481 138.623 198.056 137.01 198.747C135.339 199.437 134.763 199.437 133.437 198.862C130.959 197.654 130.21 195.352 129.864 187.471C129.576 180.509 129.576 180.337 128.827 182.696C128.424 184.076 127.559 185.457 126.868 185.802C122.834 187.931 121.797 176.252 125.254 168.198C126.522 165.264 126.349 164.113 125.024 165.954C122.315 169.521 121.278 177.173 121.221 193.224C121.221 205.535 120.702 211.001 119.377 213.762C118.743 215.143 118.282 215.373 116.38 215.373C113.441 215.373 112 213.475 111.482 208.93C111.194 206.111 110.963 205.593 109.984 205.535C109.35 205.478 108.543 205.42 108.197 205.363C107.851 205.363 106.814 203.925 105.95 202.314C104.452 199.61 104.279 198.574 104.048 192.879C103.818 187.701 104.048 185.63 105.028 181.66C106.584 175.562 111.021 166.529 115.112 161.121C118.973 156.116 119.319 154.448 115.746 158.245C107.909 166.759 102.55 177.46 99.7839 190.06C98.3432 196.791 97.7093 213.532 98.7466 220.321C100.533 232.575 104.97 244.484 111.424 254.437C114.651 259.385 117.763 262.952 127.559 272.847C141.447 286.942 142.023 287.863 142.427 295.744C142.773 303.051 142.312 303.684 139.891 298.908C137.644 294.479 137.183 293.846 132.458 288.841C127.041 283.087 120.875 279.405 111.77 276.414C110.79 276.069 111.078 275.551 114.19 272.444C119.088 267.554 118.743 266.921 113.787 271.639C111.597 273.767 109.58 275.493 109.292 275.493C109.062 275.493 107.909 275.206 106.814 274.918C103.933 274.055 94.7704 272.789 88.5469 272.272L83.1877 271.869V250.295V228.721L72.2389 217.732L61.29 206.744L72.2389 195.813L83.1877 184.882L83.0725 165.321L82.8996 145.761H81.1708H79.442L79.3268 165.206C79.2692 178.668 78.981 185.285 78.52 186.78C78.059 188.219 75.5235 191.153 70.2796 196.388C66.1305 200.473 62.1544 204.327 61.5205 204.903C60.3104 205.881 60.1951 205.823 50.5717 196.1C45.2125 190.692 40.3719 185.4 39.8533 184.422C38.9313 182.753 38.8737 179.819 38.816 153.585C38.816 127.351 38.9313 124.474 39.7957 123.496C42.677 120.274 49.131 124.992 49.1886 130.4C49.1886 132.183 48.209 133.967 47.1717 133.967C45.0396 133.967 46.6531 135.808 50.514 137.649C57.141 140.87 67.3407 143.172 79.1539 144.035C85.7809 144.552 105.085 142.654 105.085 141.503C105.085 141.331 104.452 140.41 103.645 139.547C102.204 138.051 102.031 137.994 95.3467 137.994C91.601 137.994 87.3367 137.821 85.8385 137.649L83.1877 137.246V111.702V86.1584L84.6283 84.7776C86.4724 82.8791 91.1977 82.764 94.0213 84.49ZM633.512 84.8352C637.142 87.9418 636.969 84.8352 636.969 138.684V187.758L658.348 209.045C671.948 222.565 680.015 231.022 680.534 232.287C681.226 234.013 681.341 238.846 681.226 262.952C681.053 291.372 681.053 291.602 679.785 292.81C678.805 293.788 678.171 293.961 676.5 293.673C673.965 293.213 672.466 291.66 671.199 288.38C670.104 285.446 670.507 282.972 672.178 282.57C674.253 281.994 673.043 280.441 669.182 278.542C663.534 275.781 649.82 272.617 643.538 272.617C641.176 272.617 641.061 272.502 640.715 270.718C640.484 269.74 640.427 260.478 640.542 250.18C640.657 234.531 640.888 231.137 641.637 229.468C642.155 228.375 645.901 224.176 649.935 220.148C654.026 216.121 657.138 212.612 656.908 212.382C656.677 212.152 652.125 216.351 646.765 221.702L636.969 231.482V251.733V271.984L633.973 272.272C632.301 272.444 628.729 272.732 626.02 272.904C623.312 273.135 619.22 273.652 616.858 274.113L612.651 274.976L606.658 269.05C603.373 265.771 600.665 262.894 600.665 262.664C600.665 262.376 601.818 260.823 603.143 259.212C610.922 249.949 617.031 237.638 620.085 224.866C622.044 216.524 622.563 203.062 621.18 194.087C618.932 179.704 612.421 165.379 603.143 154.333C601.76 152.722 600.665 151.169 600.665 150.938C600.665 150.708 602.221 148.982 604.123 147.084C606.024 145.243 607.58 143.402 607.58 142.999C607.58 142.654 605.794 144.092 603.604 146.278L599.628 150.248L590.984 141.676C586.259 136.958 581.764 132.183 580.957 131.09C578.767 128.099 577.615 123.554 577.615 117.916L577.672 112.968L579.747 116.995C584.53 126.315 591.791 133.046 601.818 137.649C608.905 140.87 620.892 143.459 630.63 143.862L634.952 144.035V140.928V137.764L626.308 137.879C621.583 137.994 616.915 137.821 615.993 137.534L614.322 137.073L618.126 133.161L621.986 129.249V108.653C621.986 95.7085 622.217 87.4241 622.563 86.3885C623.485 83.9722 624.753 83.3394 628.383 83.3394C631.091 83.3394 632.013 83.627 633.512 84.8352ZM141.908 127.811C141.505 129.652 140.467 132.241 139.603 133.564C138.22 135.693 125.485 148.58 123.756 149.615C123.41 149.845 120.875 147.717 118.109 144.955L113.038 139.835L118.051 137.476C128.136 132.759 135.396 126.027 139.776 117.34L142.254 112.508L142.427 118.491C142.542 121.77 142.312 125.97 141.908 127.811ZM680.476 124.302C681.744 127.293 681.744 182.696 680.476 186.378C679.727 188.506 677.883 190.692 671.199 197.309C666.589 201.853 662.728 205.708 662.555 205.823C662.44 205.996 657.83 201.566 652.298 196.043C645.037 188.679 642.098 185.342 641.522 183.731C640.888 181.948 640.715 177.23 640.715 162.732V144.035L643.02 143.862C654.43 143.114 672.005 138.109 673.1 135.347C673.273 134.887 672.755 134.024 671.89 133.334C670.104 131.896 670.046 130.745 671.544 127.121C672.87 124.071 675.002 122.518 677.768 122.461C679.382 122.461 679.785 122.748 680.476 124.302ZM128.942 200.703C130.844 201.393 132.054 203.867 132.515 207.837C132.861 210.656 133.034 211.058 134.013 210.713C135.569 210.253 138.162 213.245 139.142 216.639C140.237 220.321 140.064 227.685 138.796 232.345C137.529 237.178 134.013 245.405 131.19 250.18C128.251 255.242 123.987 261.053 123.18 261.111C122.488 261.111 121.451 259.96 117.705 255.07C109.119 243.909 102.55 226.592 104.452 220.263C105.258 217.559 107.275 216.524 110.041 217.387C111.136 217.79 112.346 218.595 112.75 219.285C113.153 220.033 113.556 223.773 113.729 228.318C114.017 235.624 114.305 236.545 115.112 232.805C115.516 231.079 117.187 229.871 118.57 230.389C121.451 231.482 121.163 243.621 118.051 249.604C117.475 250.697 117.417 251.33 117.763 251.33C118.8 251.33 121.105 245.635 121.739 241.55C122.085 239.479 122.373 232.863 122.373 226.88C122.431 214.683 123.122 205.133 124.159 202.889C124.678 201.681 125.831 200.76 127.386 200.185C127.444 200.128 128.136 200.358 128.942 200.703ZM606.773 202.084C607.234 202.889 607.983 205.248 608.329 207.319C608.79 210.195 609.194 211.001 609.77 210.771C612.19 209.85 614.668 213.762 615.648 219.976C616.8 227.052 613.977 237.983 608.387 248.396C605.563 253.631 600.319 261.111 599.455 261.111C598.821 261.111 593.404 254.61 591.042 250.87C586.028 243.046 580.784 230.619 580.093 224.808C579.286 217.905 584.127 214.51 588.276 219.113C589.255 220.206 589.428 221.357 589.601 228.088C589.716 232.46 590.062 235.682 590.35 235.452C590.638 235.279 590.869 234.589 590.869 233.898C590.869 232.287 592.425 230.044 593.519 230.044C593.98 230.044 594.902 230.907 595.536 231.885C596.574 233.553 596.689 234.474 596.458 238.673C596.285 241.895 595.709 244.887 594.73 247.418C593.231 251.618 593.635 252.711 595.421 249.144C597.611 244.829 597.899 242.528 598.36 224.578C598.936 202.659 599.397 200.76 603.95 200.703C605.333 200.703 606.082 201.106 606.773 202.084ZM141.274 202.544C142.888 204.155 141.505 209.333 139.373 209.333C138.335 209.333 136.203 207.089 136.203 205.938C136.203 204.5 138.393 201.853 139.603 201.853C140.122 201.853 140.871 202.141 141.274 202.544ZM617.146 202.832C618.817 205.075 617.492 209.333 615.244 208.987C614.841 208.93 614.207 208.872 613.919 208.815C613.573 208.815 613.055 208.067 612.709 207.261C611.383 203.752 615.071 200.128 617.146 202.832ZM106.353 208.009C107.563 209.102 107.679 210.426 106.699 212.439C105.316 215.488 102.608 214.798 101.858 211.231C101.57 209.85 101.801 209.16 102.723 208.239C104.163 206.801 104.97 206.744 106.353 208.009ZM582.34 208.009C583.723 209.217 583.666 211.116 582.167 213.015C580.15 215.546 578.594 214.798 578.018 210.943C577.5 207.549 579.977 205.823 582.34 208.009ZM107.736 279.463C125.139 283.03 137.125 293.673 141.159 309.149C141.966 312.256 142.196 315.42 142.196 322.956L142.254 332.737L140.237 336.764C139.142 338.95 138.162 341.021 138.047 341.251C137.932 341.539 139.2 340.964 140.871 339.986C144.386 338.03 150.61 336.706 153.606 337.282C156.315 337.8 157.755 339.41 157.294 341.424C157.064 342.229 157.121 342.805 157.352 342.69C157.582 342.632 159.772 341.539 162.192 340.331C169.511 336.764 174.236 337.397 174.236 341.999C174.236 344.07 172.45 346.257 170.779 346.257C169.28 346.257 165.996 345.048 164.901 344.07C164.267 343.553 163.863 343.438 163.863 343.84C163.863 344.416 180.056 369.154 181.9 371.455C183.168 373.066 182.88 371.455 181.151 367.946C180.056 365.702 179.422 363.516 179.538 362.538C179.71 361.1 179.883 360.927 181.9 360.985C185.473 361.1 188.642 364.839 188.642 368.981C188.642 372.203 187.202 374.389 184.148 375.77C181.497 377.036 180.978 377.036 152.338 377.036C126.522 377.036 122.719 376.921 118.916 376C110.79 374.102 109.292 372.146 112.577 367.658C113.556 366.335 114.19 365.242 114.017 365.242C113.787 365.242 112.173 366.22 110.387 367.486C101.109 373.756 92.984 376.46 83.1877 376.46C74.2558 376.403 68.8966 374.504 63.9984 369.614C59.1579 364.839 57.4291 358.396 59.7341 353.908C63.6526 346.372 74.9473 346.889 78.6353 354.829L80.0183 357.705L89.5265 357.648H99.0347L95.0586 356.842C89.6994 355.807 85.3775 353.678 83.5911 351.319C81.4589 348.615 80.3064 343.495 80.3064 337.167V331.759L81.8623 333.657C84.6283 336.937 89.4113 337.972 93.1569 336.131C94.1942 335.613 95.9806 334.233 97.1907 333.082C101.455 329.112 101.282 329.803 101.628 307.423C101.916 288.035 101.974 287.172 103.241 284.468C103.933 282.915 104.394 281.534 104.279 281.419C104.163 281.246 102.723 282.397 101.109 283.95L98.228 286.712L98.0551 308.286C97.9398 324.452 97.7093 330.205 97.1331 331.126C95.5196 333.945 89.2384 333.945 86.1842 331.126C83.1877 328.364 83.1877 328.479 83.1877 302.878V279.003L84.8012 278.773C89.5841 278.082 102.78 278.427 107.736 279.463ZM640.427 279.751C661.748 284.526 676.212 296.147 679.324 310.99C681.629 321.691 679.266 328.422 673.561 327.674C668.721 327.041 666.416 321.288 665.897 308.689C665.379 294.766 664.629 301.44 664.629 320.483C664.629 331.989 664.399 340.503 663.995 341.769C663.016 345.394 661.287 346.947 657.83 347.292C652.47 347.81 648.725 344.07 649.531 338.893C649.762 337.167 649.704 337.052 647.976 337.052C641.983 337.052 640.139 327.559 640.6 298.908L640.83 281.707L639.389 281.189C638.583 280.901 637.718 280.844 637.488 281.074C637.2 281.361 636.911 292.638 636.854 306.215L636.681 330.838L635.298 331.931C633.454 333.427 628.786 333.427 626.251 331.874C625.214 331.183 623.83 329.573 623.197 328.192C622.044 325.891 621.986 324.797 621.986 305.064V284.353L619.393 281.822C617.953 280.441 616.8 279.06 616.8 278.773C616.8 277.91 635.586 278.715 640.427 279.751ZM45.5582 331.299C51.897 334.463 54.6631 340.216 54.6631 350.284C54.6054 357.072 53.6834 360.007 50.053 364.436C48.0938 366.795 43.7718 369.327 40.4296 370.074L38.816 370.42V349.996V329.573H40.4296C41.3516 329.573 43.6566 330.32 45.5582 331.299ZM681.341 349.593C681.341 360.639 681.168 369.787 680.995 369.959C680.592 370.42 675.175 368.924 673.677 367.946C665.897 362.883 662.843 352.01 666.128 341.079C667.972 334.808 674.08 329.688 679.785 329.573H681.341V349.593ZM188.988 338.835C188.585 340.964 186.683 343.725 185.07 344.588C182.073 346.199 177.348 343.092 176.714 339.18L176.368 337.052H182.88H189.392L188.988 338.835ZM507.888 337.282C507.888 337.397 506.447 338.202 504.718 339.065C500.397 341.136 495.729 345.509 493.654 349.536C490.139 356.152 489.621 365.53 492.502 371.743C493.885 374.85 495.21 376 495.21 374.217C495.21 373.239 496.766 372.606 498.149 373.009C499.532 373.469 499.647 376.46 498.322 376.978C496.709 377.611 408.253 377.381 404.162 376.748C389.467 374.504 376.214 368.291 364.746 358.223L362.499 356.267L365.322 353.908C371.258 348.961 379.095 344.531 386.817 341.654C391.369 339.986 400.762 337.8 405.026 337.454C408.196 337.167 507.888 336.994 507.888 337.282ZM543.155 338.778C542.809 341.309 541.08 343.61 538.833 344.473C536.874 345.221 536.413 345.164 534.684 344.358C533.474 343.783 532.264 342.517 531.514 341.136C529.44 337.052 529.497 336.994 536.874 337.167L543.328 337.339L543.155 338.778ZM211.866 339.871C221.892 344.991 226.906 359.201 222.065 368.751C219.472 373.756 212.615 377.323 207.659 376.23C204.778 375.597 202.127 373.296 201.666 370.937C201.493 369.959 201.723 368.291 202.242 366.91C203.337 364.206 203.164 363.861 201.09 364.667C199.015 365.414 193.483 365.414 191.927 364.609C190.371 363.804 187.49 360.697 187.49 359.834C187.432 358.108 186.568 357.705 183.802 358.338C177.348 359.776 173.775 356.382 177.636 352.527C179.307 350.859 179.422 350.859 185.704 350.859C189.219 350.859 192.1 350.629 192.1 350.399C192.1 350.111 191.581 349.421 190.89 348.788C188.873 347.005 188.527 345.796 189.219 343.668C190.544 339.641 194.347 338.202 203.049 338.375C208.177 338.49 209.503 338.72 211.866 339.871ZM524.254 338.778C530.304 340.158 532.667 345.048 528.979 348.615C528.23 349.363 527.711 350.169 527.826 350.399C527.999 350.686 530.823 350.859 534.108 350.859C539.697 350.859 540.158 350.974 541.829 352.355C543.789 353.966 544.25 356.555 542.809 357.705C541.829 358.511 537.219 358.741 534.684 358.166C533.07 357.763 532.897 357.878 531.803 360.179C529.728 364.667 524.83 366.392 518.894 364.667C517.8 364.379 516.762 364.206 516.647 364.379C516.474 364.494 516.82 365.53 517.339 366.623C519.01 370.074 518.203 373.124 515.149 374.965C509.213 378.532 500.569 375.08 497.285 367.831C494.865 362.538 495.614 354.426 499.071 348.673C502.241 343.38 505.295 340.734 510.135 339.008C512.556 338.145 520.969 337.972 524.254 338.778ZM53.7987 370.132C55.9308 371.225 56.5647 373.411 55.2969 375.31C54.1444 377.036 53.1648 377.323 46.4226 377.496C40.4296 377.611 40.0838 377.323 42.4465 373.814C45.2701 369.672 49.9378 368.118 53.7987 370.132ZM674.08 370.592C676.327 371.858 678.171 374.217 678.575 376.403C678.748 377.381 678.344 377.438 672.697 377.381C666.128 377.266 664.284 376.633 663.938 374.332C663.246 369.902 669.067 367.716 674.08 370.592ZM198.612 372.031C199.764 373.066 199.937 375.77 198.785 376.691C197.632 377.669 191.524 377.669 190.89 376.691C190.198 375.597 190.198 375.597 191.524 373.411C193.368 370.42 196.134 369.844 198.612 372.031ZM527.481 372.433C528.114 373.124 528.748 374.447 528.806 375.367L528.921 377.036L525.06 377.208C521.603 377.381 521.142 377.266 520.566 376.173C519.528 374.274 520.335 372.203 522.41 371.34C524.542 370.42 525.809 370.707 527.481 372.433Z" fill="#D81F38"/>
<path d="M229.426 152.292C225.038 152.593 224.197 153.374 224.197 157.702V184.388C224.197 188.776 225.098 189.618 229.426 189.858V191H212.536V189.858C217.345 189.557 218.006 188.896 218.066 183.727V156.5C216.022 164.914 204.783 172.007 204.242 191.841H203.4L186.691 156.5V182.104C186.691 188.355 187.713 189.618 192.341 189.858V191H178.216V189.858C183.145 189.557 183.926 188.536 184.046 182.104V157.702C183.926 153.194 183.265 152.533 178.336 152.292V151.15H190.658L203.581 179.159C207.728 164.734 214.219 163.772 216.503 151.15H229.426V152.292ZM245.875 163.352C253.568 163.352 259.098 169.002 259.098 176.935C259.098 185.29 253.328 191.601 245.755 191.601C238.181 191.601 232.592 185.591 232.592 177.416C232.592 169.122 238.001 163.352 245.875 163.352ZM245.094 165.035C240.766 165.035 238.001 168.761 238.001 174.471C238.001 178.739 238.963 182.946 240.646 186.071C241.908 188.476 244.132 189.918 246.476 189.918C250.984 189.918 253.689 185.891 253.689 179.039C253.689 170.805 250.142 165.035 245.094 165.035ZM261.983 190.098C264.988 189.918 265.649 189.137 265.71 185.591V170.684C265.71 167.739 265.169 166.838 263.486 166.838C262.825 166.838 262.223 166.898 261.863 167.078V166.056C265.169 165.095 267.212 164.434 270.157 163.352L270.578 163.472V168.22C274.665 164.373 276.528 163.352 279.293 163.352C283.741 163.352 286.386 166.718 286.386 172.367V186.131C286.446 189.077 287.107 189.798 290.052 190.098V191H277.55V190.098C280.495 189.918 281.217 188.956 281.337 185.05V172.488C281.337 168.521 279.894 166.657 276.949 166.657C274.966 166.657 273.583 167.379 270.758 170.083V186.973C270.758 189.137 271.72 189.918 274.725 190.098V191H261.983V190.098ZM292.216 163.953C297.806 163.953 297.325 154.937 304.177 149.047L304.898 149.347C299.609 155.177 300.45 161.488 300.45 163.953H306.521V165.876H300.45V183.066C300.45 186.853 301.352 188.476 303.576 188.476C304.898 188.476 305.86 187.935 307.182 186.372L307.963 187.033C305.98 190.159 303.696 191.601 300.751 191.601C297.205 191.601 295.401 189.017 295.401 183.968V170.204C295.401 166.537 294.139 165.696 292.216 165.876V163.953ZM332.445 181.143L333.347 181.624C330.823 188.055 326.495 191.601 320.665 191.601C313.753 191.601 309.425 186.432 309.425 178.138C309.425 169.362 314.895 163.352 322.047 163.352C327.337 162.991 329.741 167.138 330.282 169.963C330.702 172.127 331.243 172.968 332.445 173.209V174.171C329.2 173.81 325.834 175.192 322.408 176.635C319.763 177.777 317.059 178.919 314.354 179.219C314.594 180.301 314.955 181.323 315.436 182.285C317.059 185.711 319.643 187.514 323.129 187.514C326.976 187.514 329.56 185.711 332.445 181.143ZM317.299 166.177C314.775 167.499 313.572 171.105 313.753 174.411C313.813 175.553 313.873 176.635 314.053 177.597C316.698 177.296 319.042 176.394 321.025 175.433C322.889 174.591 324.451 173.93 325.593 173.57C325.053 167.439 321.867 164.193 317.299 166.177Z" fill="#D81F38"/>
<path d="M174.746 208.947H250.078V210.47C246.311 211.191 244.949 211.912 243.587 215.278C233.809 241.644 226.517 239.481 223.872 262.882H222.75L211.691 238.84C207.443 245.09 204.478 250.219 203.036 262.882H201.914L182.84 219.846C179.555 212.473 178.673 210.871 174.746 210.47V208.947ZM202.875 247.254C204.158 244.289 206.963 240.362 210.168 235.554L201.914 217.683C199.029 211.351 198.468 210.55 194.06 210.47C189.893 210.39 188.771 211.271 188.771 213.034C188.771 213.916 189.091 215.278 189.732 216.721L202.875 247.254ZM214.736 210.47C210.569 210.55 208.806 211.351 208.806 213.275C208.806 214.156 209.206 215.679 209.928 217.362C209.928 217.442 212.172 222.491 214.736 228.501C217.381 224.334 219.865 219.606 221.869 214.557C222.75 211.832 221.708 210.47 219.064 210.47H214.736ZM239.74 216.16C240.862 212.634 239.82 210.47 236.294 210.47H231.966C228.52 210.47 226.196 212.554 224.673 216.16C221.628 223.132 218.743 228.021 216.259 231.947C219.785 240.202 223.552 248.857 223.632 248.857C226.356 238.439 233.409 233.871 239.499 216.801L239.74 216.16ZM284.516 259.115C280.428 260.237 277.543 261.118 273.536 262.721L273.216 262.561V255.909L269.77 259.355C267.606 261.519 264.481 262.801 261.515 262.801C255.665 262.801 251.818 258.714 251.818 252.383V232.188C251.738 228.341 250.616 227.219 246.85 227.059V225.937H258.55V252.063C258.55 255.429 261.115 258.153 264.24 258.153C266.644 258.153 269.129 257.192 271.293 255.429C272.414 254.547 272.815 253.425 272.815 251.181V232.348C272.815 228.341 271.853 227.54 266.885 227.299V225.937H279.547V253.425C279.627 257.192 280.188 257.833 284.115 257.993H284.516V259.115ZM286.92 260.798C290.927 260.557 291.808 259.516 291.889 254.787V234.913C291.889 230.986 291.167 229.784 288.923 229.784C288.042 229.784 287.24 229.864 286.76 230.104V228.742C291.167 227.46 293.892 226.578 297.819 225.136L298.38 225.296V231.627C303.829 226.498 306.314 225.136 310 225.136C315.931 225.136 319.457 229.623 319.457 237.157V255.509C319.537 259.436 320.418 260.397 324.345 260.798V262H307.676V260.798C311.603 260.557 312.565 259.275 312.725 254.066V237.317C312.725 232.028 310.802 229.543 306.875 229.543C304.23 229.543 302.387 230.505 298.62 234.111V256.631C298.62 259.516 299.903 260.557 303.91 260.798V262H286.92V260.798ZM359.527 216V252.864C359.527 256.55 360.168 257.432 363.053 257.432C363.374 257.432 363.854 257.432 364.896 257.352V258.634L353.116 262.801L352.795 262.561V257.432C350.07 261.199 346.945 262.801 342.457 262.801C333.561 262.801 327.631 255.829 327.631 245.571C327.631 234.191 335.084 225.055 344.3 225.055C347.506 225.055 349.75 226.017 352.795 228.582V210.871C352.795 205.822 352.795 197.407 346.865 191.076L347.826 190.675C356.962 198.529 357.123 210.71 364.576 210.71V211.993H363.694C360.248 211.993 359.527 212.554 359.527 216ZM345.582 258.634C347.906 258.634 350.07 257.833 351.433 256.23C352.234 255.348 352.795 254.387 352.795 253.826V235.393C352.795 231.146 348.948 227.379 344.541 227.379C338.45 227.379 334.523 233.31 334.523 242.366C334.523 252.223 338.931 258.634 345.582 258.634ZM396.632 254.467C396.632 259.996 398.795 260.878 400.879 260.878V262H390.301L390.22 257.031C388.057 259.996 383.409 262.801 378.841 262.801C373.07 262.801 368.342 259.115 368.342 252.063C368.342 247.094 372.109 243.327 376.517 241.164C373.07 240.843 369.624 238.439 369.624 234.272C369.624 228.501 375.074 225.136 380.203 225.136C387.816 225.136 389.018 228.982 399.517 228.982V230.345C397.113 230.425 396.632 230.825 396.632 237.076V254.467ZM386.855 236.916C388.778 236.035 390.22 234.993 390.22 233.47C390.22 229.784 386.053 227.219 381.806 227.219C378.039 227.219 374.834 229.543 374.834 233.871C374.834 236.996 376.837 239.561 378.841 240.042C381.325 238.92 384.45 238.038 386.855 236.916ZM390.22 254.146V236.996C382.527 241.965 375.074 241.564 375.074 250.941C375.074 256.15 378.36 259.115 381.806 259.115C385.733 259.115 388.858 256.711 390.22 254.146ZM439.751 227.78V230.906H433.1C434.222 233.47 434.622 235.313 434.622 237.637C434.622 241.083 433.26 244.289 430.936 246.613C432.779 247.014 435.344 249.258 435.344 253.024C435.344 257.512 432.138 261.439 421.8 262.801C414.347 263.763 408.096 265.686 408.096 270.735C408.096 273.3 409.859 275.223 412.183 275.223C416.831 275.223 424.365 268.571 430.696 268.571C435.905 268.571 438.149 272.018 438.149 274.662C438.149 280.993 431.176 283.478 426.448 283.478V282.275C429.974 282.275 433.741 280.593 433.741 277.707C433.741 276.025 432.298 274.822 430.055 274.822C424.044 274.822 421.88 280.512 413.706 280.512C408.176 280.512 405.211 276.345 405.211 270.896C405.211 264.084 408.577 259.195 418.354 257.672C429.974 255.829 432.94 254.066 432.94 251.502C432.94 249.258 431.337 247.735 430.215 247.334C427.65 249.498 424.284 250.861 420.518 250.861C412.183 250.861 407.615 245.812 407.615 238.198C407.615 230.825 413.546 225.136 420.999 225.136C426.368 225.136 428.372 227.78 433.581 227.78H439.751ZM421.56 248.296C425.647 248.296 428.452 245.331 428.452 240.763C428.452 234.672 425.727 227.379 420.197 227.379C416.431 227.379 414.267 230.184 414.267 235.153C414.267 242.847 415.95 248.296 421.56 248.296ZM459.766 225.136C470.024 225.136 477.397 232.669 477.397 243.247C477.397 254.387 469.704 262.801 459.606 262.801C449.509 262.801 442.055 254.787 442.055 243.888C442.055 232.829 449.268 225.136 459.766 225.136ZM458.725 227.379C452.955 227.379 449.268 232.348 449.268 239.961C449.268 245.651 450.55 251.261 452.794 255.429C454.477 258.634 457.442 260.557 460.568 260.557C466.578 260.557 470.185 255.188 470.185 246.052C470.185 235.073 465.456 227.379 458.725 227.379ZM504.805 233.069C504.805 230.906 503.523 229.543 501.119 229.543C497.593 229.543 493.505 233.47 493.505 237.557V254.787C493.505 259.516 494.948 260.638 500.317 260.798V262H481.084V260.798C486.133 259.916 486.774 259.436 486.774 255.268V235.233C486.774 231.707 486.052 230.425 484.049 230.425C483.087 230.425 482.366 230.505 481.244 230.745V229.463C485.972 227.94 488.857 226.899 493.105 225.136L493.505 225.296V232.669C496.631 226.899 500.157 225.136 504.244 225.136C507.61 225.136 510.495 227.219 510.495 230.745C510.495 235.954 505.366 237.397 505.366 240.923C505.366 242.526 506.007 243.568 507.45 244.289L506.969 244.69C504.965 244.049 503.283 242.286 503.283 239.881C503.283 237.076 504.805 235.714 504.805 233.069ZM544.828 248.857L546.03 249.498C542.665 258.073 536.894 262.801 529.121 262.801C519.905 262.801 514.135 255.909 514.135 244.85C514.135 233.15 521.427 225.136 530.964 225.136C538.016 224.655 541.222 230.184 541.943 233.951C542.504 236.836 543.226 237.958 544.828 238.279V239.561C540.501 239.08 536.013 240.923 531.445 242.847C527.919 244.369 524.312 245.892 520.706 246.293C521.027 247.735 521.508 249.097 522.149 250.38C524.312 254.948 527.758 257.352 532.407 257.352C537.536 257.352 540.982 254.948 544.828 248.857ZM524.633 228.902C521.267 230.665 519.664 235.474 519.905 239.881C519.985 241.404 520.065 242.847 520.305 244.129C523.832 243.728 526.957 242.526 529.602 241.244C532.086 240.122 534.17 239.24 535.692 238.759C534.971 230.585 530.724 226.257 524.633 228.902Z" fill="#D81F38"/>
<mask id="path-5-inside-1_114_108" fill="white">
<path d="M326 357.006C326 339.33 340.33 325 358.006 325H360.994C378.67 325 393 339.33 393 357.006V357.006C393 374.683 378.67 389.013 360.994 389.013H358.006C340.33 389.013 326 374.683 326 357.006V357.006Z"/>
</mask>
<path d="M326 357.006C326 339.33 340.33 325 358.006 325H360.994C378.67 325 393 339.33 393 357.006V357.006C393 374.683 378.67 389.013 360.994 389.013H358.006C340.33 389.013 326 374.683 326 357.006V357.006Z" fill="#1F0506"/>
<path d="M323 357.006C323 338.777 337.777 324 356.006 324H362.994C381.223 324 396 338.777 396 357.006H390C390 339.882 377.013 326 360.994 326H358.006C341.987 326 329 339.882 329 357.006H323ZM396 357.006C396 375.235 381.223 390.013 362.994 390.013H356.006C337.777 390.013 323 375.235 323 357.006H329C329 374.131 341.987 388.013 358.006 388.013H360.994C377.013 388.013 390 374.131 390 357.006H396ZM356.006 390.013C337.777 390.013 323 375.235 323 357.006C323 338.777 337.777 324 356.006 324L358.006 326C341.987 326 329 339.882 329 357.006C329 374.131 341.987 388.013 358.006 388.013L356.006 390.013ZM362.994 324C381.223 324 396 338.777 396 357.006C396 375.235 381.223 390.013 362.994 390.013L360.994 388.013C377.013 388.013 390 374.131 390 357.006C390 339.882 377.013 326 360.994 326L362.994 324Z" fill="#D81F38" mask="url(#path-5-inside-1_114_108)"/>
<path d="M346.421 341.007C346.445 341.007 346.469 341.007 346.494 341.007C346.499 341.085 346.499 341.085 346.504 341.165C346.585 342.583 346.585 342.583 346.855 343.974C346.873 344.04 346.873 344.04 346.891 344.108C347.483 346.286 348.903 347.833 350.86 348.965C351.766 349.475 352.713 349.915 353.677 350.311C354.557 350.673 355.27 351.169 355.959 351.815C356.037 351.884 356.037 351.884 356.116 351.954C357.366 353.107 359.073 355.239 359.428 356.901C359.475 356.901 359.523 356.901 359.572 356.901C359.589 356.844 359.606 356.787 359.623 356.729C359.74 356.414 359.895 356.13 360.06 355.837C360.095 355.776 360.129 355.714 360.165 355.651C360.962 354.265 361.906 352.956 363.041 351.815C363.132 351.723 363.132 351.723 363.224 351.63C364.076 350.822 365.114 350.367 366.192 349.915C368.578 348.911 370.727 347.524 371.784 345.104C372.308 343.766 372.404 342.427 372.434 341.007C372.482 341.007 372.53 341.007 372.579 341.007C372.715 341.175 372.842 341.343 372.967 341.519C373.006 341.573 373.044 341.627 373.084 341.683C375.598 345.261 377.006 349.56 377 353.907C377 353.958 377 354.009 377 354.061C376.998 355.386 376.932 356.709 376.658 358.01C376.621 358.193 376.589 358.377 376.556 358.561C375.636 363.634 372.799 368.313 369.472 372.23C369.349 372.375 369.228 372.521 369.106 372.667C369.011 372.78 368.916 372.894 368.821 373.007C368.718 372.766 368.775 372.607 368.871 372.371C368.891 372.325 368.91 372.28 368.93 372.232C368.96 372.159 368.96 372.159 368.991 372.084C369.034 371.978 369.078 371.871 369.122 371.765C369.241 371.48 369.357 371.193 369.472 370.906C369.496 370.847 369.52 370.787 369.545 370.726C369.801 370.088 370.036 369.442 370.266 368.795C370.285 368.742 370.304 368.69 370.323 368.636C370.451 368.28 370.576 367.924 370.7 367.568C370.728 367.488 370.728 367.488 370.756 367.407C371.002 366.704 371.23 366.001 371.418 365.281C371.43 365.235 371.442 365.19 371.454 365.144C371.74 364.051 371.963 362.947 372.167 361.837C372.197 361.673 372.228 361.509 372.26 361.345C372.641 359.402 372.753 356.837 371.585 355.135C371.273 354.75 371.003 354.484 370.492 354.408C368.632 354.222 366.895 355.373 365.437 356.37C365.281 356.477 365.124 356.582 364.967 356.687C364.291 357.142 363.651 357.631 363.02 358.144C362.857 358.275 362.692 358.402 362.526 358.53C361.885 359.031 361.266 359.556 360.665 360.102C360.626 360.137 360.587 360.172 360.547 360.209C360.38 360.361 360.212 360.513 360.046 360.667C359.995 360.712 359.945 360.757 359.893 360.804C359.851 360.842 359.809 360.88 359.766 360.92C359.645 360.998 359.645 360.998 359.356 360.998C359.181 360.85 359.181 360.85 358.99 360.649C358.667 360.319 358.33 360.028 357.964 359.743C357.762 359.582 357.572 359.414 357.382 359.241C357.011 358.907 356.622 358.604 356.223 358.302C356.048 358.17 355.876 358.036 355.705 357.899C353.749 356.334 351.053 354.202 348.372 354.428C348.131 354.505 347.976 354.611 347.794 354.782C347.75 354.823 347.706 354.864 347.661 354.906C346.553 356.042 346.523 357.696 346.551 359.17C346.625 361.794 347.25 364.478 348.095 366.961C348.158 367.151 348.218 367.341 348.279 367.532C348.479 368.165 348.694 368.792 348.919 369.417C348.937 369.468 348.955 369.519 348.974 369.571C349.282 370.428 349.622 371.267 349.993 372.099C350.028 372.179 350.063 372.258 350.099 372.34C350.13 372.409 350.161 372.479 350.193 372.55C350.251 372.724 350.251 372.724 350.179 372.936C349.702 372.506 349.31 372.023 348.917 371.522C348.805 371.381 348.691 371.242 348.576 371.103C347.041 369.233 345.787 367.162 344.687 365.024C344.658 364.969 344.629 364.913 344.599 364.856C343.872 363.453 343.294 361.953 342.881 360.433C342.856 360.349 342.831 360.266 342.806 360.18C342.43 358.886 342.256 357.557 342.109 356.223C342.09 356.058 342.09 356.058 342.049 355.918C341.991 355.675 342.002 355.428 342.002 355.18C342.001 355.121 342.001 355.063 342.001 355.004C342 354.815 342 354.626 342 354.437C342 354.373 342 354.309 342 354.242C342.003 353.285 342.02 352.34 342.158 351.391C342.169 351.312 342.181 351.233 342.192 351.151C342.536 348.805 343.193 346.534 344.254 344.398C344.282 344.34 344.311 344.283 344.34 344.223C344.906 343.094 345.559 341.949 346.421 341.007Z" fill="#D81F38"/>
</svg>
