<svg width="171" height="133" viewBox="0 0 171 133" fill="none" xmlns="http://www.w3.org/2000/svg">
<path d="M0.0886206 19.5082C0.165298 26.8455 0.261154 29.9763 0.414509 30.13C0.529525 30.2452 0.874563 30.322 1.18127 30.2836C1.66051 30.226 1.83305 29.9955 2.69567 28.3052C3.84584 26.0003 4.76595 25.0207 6.33784 24.4061C6.97043 24.1564 7.64136 23.8683 7.85223 23.7722C8.19727 23.5802 9.36661 23.3305 10.996 23.0808C12.357 22.8887 16.5743 23.7722 17.2644 24.3869C17.3602 24.4829 17.5328 24.5598 17.667 24.5598C17.8778 24.5598 19.1622 25.136 20.0056 25.597C21.6925 26.5573 23.552 28.7854 24.0312 30.4181C24.3571 31.5705 24.8363 35.0471 24.8363 36.2764C24.8363 37.4288 24.3954 40.7518 24.0312 42.3268C23.5136 44.5741 21.7884 47.4936 20.044 49.0879C17.782 51.1239 15.7309 52.0843 12.4337 52.6029C8.88738 53.1791 5.89695 51.7001 4.32506 48.5885C3.65413 47.2247 2.59981 44.6701 2.59981 44.3436C2.59981 44.1899 2.46563 43.6713 2.29311 43.2103C2.13975 42.7494 1.90972 41.3664 1.7947 40.1371C1.67969 38.9078 1.52633 37.8322 1.44965 37.7554C1.37297 37.6593 1.1046 37.6785 0.874568 37.813L0.452839 38.0435L0.587028 65.0494C0.644537 79.8969 0.759555 92.1321 0.797894 92.2089C0.855402 92.2858 1.04709 92.3626 1.23879 92.3626C1.62218 92.3626 1.94806 91.7672 2.21643 90.4802C2.54231 89.0205 4.05669 86.1393 5.0535 85.1213C5.5519 84.6027 6.52954 83.9112 7.21963 83.5655C8.31229 83.0277 8.79153 82.9124 10.6701 82.7588C11.8778 82.6627 13.7756 82.6435 14.8874 82.7396C16.8043 82.874 16.9769 82.9317 17.7053 83.5079C19.6989 85.0829 21.06 87.311 21.6734 89.9808C22.0951 91.7672 22.2101 91.9784 22.9385 91.9784C23.3986 91.9784 23.6095 91.8056 24.1462 90.9604C24.5104 90.4226 25.0663 89.6927 25.4114 89.3854C26.0056 88.8476 27.0791 87.4647 28.0376 86.0625C28.2868 85.7168 28.5552 85.3326 28.6702 85.1982C28.9769 84.8332 30.8555 82.4323 32.2357 80.646C32.9258 79.7432 34.1143 78.3602 34.8811 77.5727C35.6479 76.7852 36.5105 75.7864 36.8364 75.3639C38.1207 73.616 39.3475 72.233 41.092 70.562C41.8779 69.8321 42.9131 68.6988 43.4115 68.065C44.5808 66.586 46.7469 64.3579 47.8396 63.532C48.3188 63.167 49.5648 62.0146 50.6192 60.9582C52.862 58.6917 57.4051 54.4852 59.8588 52.3724C60.8173 51.5656 61.6416 50.7205 61.6991 50.49C61.8332 49.9522 61.3157 49.4528 60.7981 49.6257C59.6479 50.0098 56.0249 50.8934 55.0473 51.0662C52.2102 51.5272 49.5073 49.8177 48.683 47.0134C48.2613 45.5729 48.4338 44.2667 49.3731 41.8274C50.4466 39.1191 50.5041 38.9847 52.3061 36.4493C55.4115 32.0315 56.7725 30.6486 61.8332 26.6726C63.3476 25.4817 64.1336 25.0399 66.5297 24.0219C70.862 22.1588 73.7566 21.3329 77.3029 20.9103C79.9483 20.603 80.4659 20.4685 80.6959 20.0844C80.8685 19.7963 80.8109 19.6426 80.3317 19.2392L79.7566 18.7591L66.4339 18.8551C52.191 18.9703 51.1367 19.028 50.6 19.8731C50.3316 20.2765 50.3508 20.4301 50.8875 21.717C51.6351 23.4457 51.9035 25.0399 51.9035 27.5369C51.8843 30.3028 51.6735 31.0711 50.0057 34.4901C49.2006 36.1419 47.8779 37.5057 45.5201 39.1383C42.3571 41.3088 40.5744 41.9234 37.6223 41.8082C35.8395 41.7506 35.5328 41.6737 34.1718 41.0399C32.3124 40.1563 31.0089 39.0807 29.9354 37.5441C27.2517 33.7026 26.6191 27.5177 28.3827 22.1588C30.0312 17.1456 32.3507 13.8995 36.6255 10.7111C42.1463 6.58144 45.9035 5.00641 53.3029 3.79633C56.7342 3.22011 63.0217 3.22011 66.9131 3.79633C71.648 4.48781 75.156 5.19849 78.0314 6.02442C80.2359 6.65827 81.1368 6.92717 81.6736 7.17687C85.2391 8.71348 86.1784 9.17446 87.0985 9.86594C87.7119 10.2885 88.8621 11.0952 89.6672 11.6522C91.2966 12.7471 92.6001 14.2261 93.3477 15.8011C94.7663 18.7975 94.4787 22.2933 92.6385 24.7134C91.2774 26.5189 89.1496 28.3244 87.7311 28.8815C84.6832 30.13 83.3988 30.4949 81.4244 30.687C79.5841 30.8791 76.402 30.6294 75.6352 30.226C74.8301 29.8226 74.4659 29.8611 73.7183 30.4949C72.9707 31.1288 73.1073 31.9067 73.1073 31.9067L72.9323 33.5105C72.8557 35.2584 72.7215 36.238 72.4531 36.8526C71.8588 38.3124 70.2678 40.867 69.0026 42.442C67.6032 44.1515 67.3924 44.9198 68.3125 44.9198C68.8301 44.9198 69.5585 44.4588 71.8972 42.7109C72.5298 42.25 73.5649 41.4816 74.1975 41.0399C74.8301 40.5981 75.9994 39.753 76.7854 39.1767C77.5713 38.5813 78.3764 38.0051 78.549 37.909C79.0665 37.6017 80.4467 36.6413 81.6161 35.7578C82.2103 35.2968 83.2838 34.5477 84.0122 34.0675C84.7215 33.5873 85.4116 33.1263 85.5458 33.0303C85.8525 32.7614 88.2679 31.2824 88.3829 31.2824C88.4979 31.2824 91.9867 29.1312 94.2104 27.6714C95.1113 27.0952 96.9899 26.0195 98.4085 25.3088C99.8462 24.579 101.092 23.9067 101.207 23.8107C101.763 23.3881 112.153 18.0292 112.44 18.0292C112.728 18.0292 117.194 16.0508 119.821 14.7639C120.875 14.2453 121.968 13.7651 122.255 13.6882C122.543 13.6306 123.003 13.3617 123.271 13.112C123.789 12.6318 123.75 12.2477 123.079 11.6907C122.83 11.4794 122.677 11.4986 122.159 11.7483C121.833 11.9211 119.782 12.459 117.616 12.9392C115.45 13.4193 113.15 13.9572 112.498 14.1108C110.811 14.495 105.904 14.4758 104.236 14.0724C99.7311 12.9776 98.0826 12.4013 96.319 11.2681C94.9196 10.3653 94.5362 9.57782 94.6704 7.92597C94.8238 5.986 95.3605 5.4866 98.2551 4.50702C100.019 3.91158 101.859 3.4698 104.006 3.14327C104.907 2.98961 106.019 2.79754 106.498 2.68229C110.313 1.81795 124.383 1.4338 126.664 2.12527C127.258 2.31735 127.891 2.471 128.102 2.471C128.504 2.471 130.172 3.33535 130.651 3.79633C131.533 4.62226 131.878 6.46619 131.437 7.96438C131.246 8.63665 131.437 9.07842 132.032 9.40495C132.338 9.55861 132.607 9.53941 133.22 9.28971C135.463 8.34854 141.118 6.12045 141.693 5.92837C142 5.85154 142.977 5.54423 143.878 5.25611C146.734 4.37256 149.303 3.66187 150.875 3.33535C151.719 3.18168 152.658 2.9512 152.984 2.85516C153.29 2.75912 154.211 2.56705 154.996 2.4518C155.782 2.33655 156.952 2.16368 157.584 2.06765C158.217 1.97161 161.131 1.79874 164.044 1.7027C166.958 1.58746 169.565 1.43379 169.834 1.31855C170.179 1.18409 170.332 0.992019 170.332 0.665489C170.332 0.242922 170.217 0.166092 169.45 0.0508467C168.473 -0.0836065 68.4275 0.0700599 48.3188 0.262137C41.4562 0.31976 28.2676 0.396593 18.9705 0.435008C2.21643 0.511839 2.10141 0.511836 1.2963 0.915196C0.855399 1.14569 0.395341 1.51064 0.261155 1.76034C-0.026386 2.27894 -0.0647352 4.92958 0.0886206 19.5082ZM3.76914 64.1466C4.30589 62.3987 5.01517 61.1886 6.14616 60.113C7.3155 58.999 9.23243 57.981 10.1334 57.981C10.4976 57.981 11.0727 57.8849 11.4177 57.7697C11.8778 57.5968 12.5104 57.5968 13.9289 57.7697C15.4817 57.9618 16.1142 58.1538 17.3986 58.7877C19.3155 59.7289 20.274 60.6893 21.1366 62.5332C21.8651 64.1274 22.1909 64.5116 22.8427 64.5116C23.5136 64.5116 23.8012 63.7241 24.2421 60.6316C24.6638 57.7505 25.0472 56.598 26.4849 54.005C27.1558 52.8141 27.8651 51.873 28.9194 50.8357C30.8172 48.9726 31.7181 48.3772 34.0185 47.4744C35.7629 46.8022 35.9737 46.7637 38.0632 46.7637C40.076 46.7829 40.3635 46.8214 41.3795 47.3208C42.683 47.9546 43.8715 49.2031 44.6766 50.7781C45.2134 51.8538 45.2326 52.0074 45.2326 54.5044C45.2517 57.4432 45.0792 58.1346 43.3731 61.6304C42.6063 63.2054 42.1655 63.7817 40.2677 65.7985C38.3891 67.7961 35.8395 70.0818 35.5137 70.0818C35.4562 70.0818 34.651 70.562 33.7309 71.1574C27.9801 74.7684 21.1941 76.67 13.9098 76.6892C11.3986 76.6892 10.9768 76.6316 9.53914 76.1706C7.60304 75.5367 7.33466 75.4023 6.26117 74.5379C4.91931 73.4431 3.76915 71.2919 3.3666 69.1214C3.13656 67.9113 3.32825 65.5872 3.76914 64.1466ZM4.93849 9.53941C6.14616 7.33054 6.97044 6.4662 8.61901 5.67869C10.7468 4.64148 11.7436 4.37257 13.8139 4.21891C16.5551 4.02683 17.8778 4.21891 21.6734 5.37136C22.5168 5.62106 23.3794 6.31253 24.1654 7.33053C24.5296 7.81072 24.8363 8.2525 24.8363 8.32933C24.8363 8.38695 25.0472 8.77111 25.2964 9.15526C25.9481 10.1925 26.1207 12.0556 25.6989 13.3233C25.3155 14.4181 24.0695 16.3389 23.2453 17.088C22.9385 17.3761 22.3251 17.7603 21.8842 17.9331C21.4625 18.106 20.9641 18.3365 20.7916 18.4133C20.6382 18.4902 19.8139 18.7591 18.9896 18.9895C17.3219 19.4697 14.159 19.5658 12.5296 19.2008C11.0152 18.8551 8.29313 17.7987 7.44968 17.2225C6.24201 16.4157 5.07268 14.7255 4.70846 13.2657C4.47842 12.3437 4.61261 10.1348 4.93849 9.53941Z" fill="#D81F38"/>
<path d="M1.44964 132.891C1.75635 132.891 1.83303 132.756 1.83303 132.257C1.8522 130.509 3.84582 123.959 5.30269 120.886C5.68608 120.041 6.22282 118.869 6.49119 118.274C6.75956 117.678 7.488 116.411 8.12059 115.489C8.75318 114.547 9.74999 112.819 10.3634 111.666C10.9768 110.495 11.7628 109.188 12.127 108.747C12.472 108.305 13.4689 106.845 14.3123 105.481C15.1749 104.137 16.2292 102.523 16.651 101.928C17.5136 100.679 18.242 98.7395 17.9545 98.4514C17.7053 98.2017 17.1685 98.6819 13.5264 102.427C10.4784 105.558 9.07906 106.691 7.44966 107.306C6.01196 107.882 5.18767 107.978 4.45924 107.652C3.38575 107.21 3.00236 106.48 1.94804 102.869C1.73718 102.197 1.52632 101.774 1.33462 101.774C1.10459 101.774 1.06625 103.868 1.06625 117.332C1.06625 132.756 1.06625 132.891 1.44964 132.891Z" fill="#D81F38"/>
</svg>
