<svg width="671" height="556" viewBox="0 0 671 556" fill="none" xmlns="http://www.w3.org/2000/svg">
<path d="M540.743 47.2383C540.092 47.2383 539.766 114.132 539.766 227.287C539.777 246.077 539.788 262.908 539.794 278L543.239 278C542.696 191.885 543.89 172.447 550.185 165.497C552.79 162.565 555.395 162.891 559.737 166.691C564.729 171.144 565.489 169.298 561.365 162.891C550.945 146.384 545.627 131.073 544.433 114.132C542.696 87.7437 557.023 64.2875 575.04 64.1789C581.878 64.1789 586.545 66.7852 589.801 72.6492C592.84 78.0789 593.057 86.9836 590.344 91.2187C586.437 97.0828 577.645 100.015 572.218 97.1914C570.265 96.1055 570.156 96.5398 570.156 116.195C570.156 127.272 570.482 136.285 571.024 136.285C571.459 136.285 572.435 133.353 573.087 129.661C575.04 119.127 579.382 111.743 588.499 102.621C594.468 96.6484 598.918 93.3906 604.562 90.6758C612.702 86.7664 614.656 84.1602 609.663 84.1602C598.484 84.1602 591.755 70.6945 599.352 63.6359C604.671 58.6406 609.012 57.8805 634.518 57.3375C649.062 57.0117 658.071 56.3602 657.854 55.7086C657.636 55.1656 654.923 53.7539 651.775 52.7766C644.938 50.3875 642.224 48.107 640.596 43.2203C638.317 36.1617 641.899 30.6234 649.822 29.2117C652.21 28.7773 661.11 28.1258 669.358 27.8C669.922 27.777 670.469 27.7533 671 27.7291V24.4988C667.461 24.4532 663.124 24.4336 657.854 24.4336C627.355 24.4336 622.471 23.6734 611.291 17.7008C604.888 14.3344 598.701 9.12187 594.251 3.25781L591.755 0L592.406 3.25781C592.732 5.10391 593.274 8.25312 593.6 10.425C594.902 18.0266 588.933 24.4336 580.467 24.4336C577.862 24.4336 576.668 24.868 576.668 26.0625C576.668 27.4742 580.359 27.6914 603.043 27.6914C631.479 27.6914 632.022 27.8 632.022 33.3383C632.022 40.5055 624.316 48.7586 614.005 52.668C606.299 55.6 591.755 55.9258 584.483 53.3195C573.521 49.4102 564.729 40.3969 564.729 33.0125C564.729 29.6461 565.163 28.8859 567.985 27.6914C569.831 26.9312 571.241 25.9539 571.241 25.4109C571.241 24.868 495.375 24.4336 394.544 24.4336L334.456 24.4336V27.847L379.892 27.9086C534.773 28.2344 540.526 28.343 545.193 30.2976C555.178 34.5328 560.062 39.6367 561.582 47.5641C563.21 56.2516 558.651 64.6133 552.248 64.6133C548.774 64.6133 544.324 60.7039 543.673 57.0117C543.348 55.1656 542.696 52.2336 542.371 50.4961C542.045 48.65 541.285 47.2383 540.743 47.2383Z" fill="white"/>
<path d="M130.234 227.287C130.223 246.077 130.212 262.908 130.206 278H126.761C127.304 191.885 126.11 172.447 119.815 165.497C117.21 162.565 114.605 162.891 110.263 166.691C105.271 171.144 104.511 169.298 108.635 162.891C119.055 146.384 124.373 131.073 125.567 114.132C127.304 87.7438 112.977 64.2875 94.9598 64.1789C88.122 64.1789 83.4549 66.7852 80.1988 72.6492C77.1598 78.0789 76.9427 86.9836 79.6561 91.2188C83.5634 97.0828 92.3549 100.015 97.7817 97.1914C99.7354 96.1055 99.8439 96.5399 99.8439 116.195C99.8439 127.272 99.5183 136.285 98.9756 136.285C98.5415 136.285 97.5646 133.353 96.9134 129.661C94.9598 119.127 90.6183 111.743 81.5013 102.621C75.5318 96.6484 71.0818 93.3906 65.4379 90.6758C57.2976 86.7664 55.344 84.1602 60.3367 84.1602C71.5159 84.1602 78.2452 70.6945 70.6476 63.6359C65.3293 58.6406 60.9879 57.8805 35.4819 57.3375C20.938 57.0117 11.9295 56.3602 12.1466 55.7086C12.3636 55.1656 15.077 53.7539 18.2246 52.7766C25.0624 50.3875 27.7758 48.107 29.4038 43.2203C31.6831 36.1617 28.1014 30.6234 20.1782 29.2117C17.7904 28.7774 8.89047 28.1258 0.641706 27.8C0.425338 27.7912 0.211441 27.7822 0 27.7732V24.4868C3.34752 24.4497 7.36244 24.4336 12.1466 24.4336C42.6453 24.4336 47.5294 23.6734 58.7086 17.7008C65.1123 14.3344 71.2988 9.12189 75.7488 3.25783L78.2452 1.63056e-05L77.5939 3.25783C77.2683 5.10392 76.7257 8.25314 76.4001 10.425C75.0976 18.0266 81.0671 24.4336 89.5329 24.4336C92.1378 24.4336 93.3317 24.868 93.3317 26.0625C93.3317 27.4742 89.6415 27.6914 66.9574 27.6914C38.5209 27.6914 37.9782 27.8 37.9782 33.3383C37.9782 40.5055 45.6843 48.7586 55.9952 52.668C63.7013 55.6 78.2452 55.9258 85.5171 53.3195C96.4793 49.4102 105.271 40.3969 105.271 33.0125C105.271 29.6461 104.837 28.886 102.015 27.6914C100.17 26.9313 98.7585 25.9539 98.7585 25.411C98.7585 24.868 174.625 24.4336 275.456 24.4336L335.544 24.4336V27.8471L290.108 27.9086C135.227 28.2344 129.474 28.343 124.807 30.2977C114.822 34.5328 109.938 39.6367 108.418 47.5641C106.79 56.2516 111.349 64.6133 117.752 64.6133C121.226 64.6133 125.676 60.7039 126.327 57.0117C126.652 55.1656 127.304 52.2336 127.629 50.4961C127.955 48.65 128.715 47.2383 129.257 47.2383C129.908 47.2383 130.234 114.132 130.234 227.287Z" fill="white"/>
<path d="M540.743 508.762C540.092 508.762 539.766 441.868 539.766 328.713C539.777 309.923 539.788 293.092 539.794 278L543.239 278C542.696 364.115 543.89 383.553 550.185 390.503C552.79 393.435 555.395 393.109 559.737 389.309C564.729 384.856 565.489 386.702 561.365 393.109C550.945 409.616 545.627 424.927 544.433 441.868C542.696 468.256 557.023 491.713 575.04 491.821C581.878 491.821 586.545 489.215 589.801 483.351C592.84 477.921 593.057 469.016 590.344 464.781C586.437 458.917 577.645 455.985 572.218 458.809C570.265 459.895 570.156 459.46 570.156 439.805C570.156 428.728 570.482 419.715 571.024 419.715C571.459 419.715 572.435 422.647 573.087 426.339C575.04 436.873 579.382 444.257 588.499 453.379C594.468 459.352 598.918 462.609 604.562 465.324C612.702 469.234 614.656 471.84 609.663 471.84C598.484 471.84 591.755 485.305 599.352 492.364C604.671 497.359 609.012 498.12 634.518 498.662C649.062 498.988 658.071 499.64 657.854 500.291C657.636 500.834 654.923 502.246 651.775 503.223C644.938 505.613 642.224 507.893 640.596 512.78C638.317 519.838 641.899 525.377 649.822 526.788C652.21 527.223 661.11 527.874 669.358 528.2C669.922 528.223 670.469 528.247 671 528.271V531.501C667.461 531.547 663.124 531.566 657.854 531.566C627.355 531.566 622.471 532.327 611.291 538.299C604.888 541.666 598.701 546.878 594.251 552.742L591.755 556L592.406 552.742C592.732 550.896 593.274 547.747 593.6 545.575C594.902 537.973 588.933 531.566 580.467 531.566C577.862 531.566 576.668 531.132 576.668 529.938C576.668 528.526 580.359 528.309 603.043 528.309C631.479 528.309 632.022 528.2 632.022 522.662C632.022 515.495 624.316 507.241 614.005 503.332C606.299 500.4 591.755 500.074 584.483 502.68C573.521 506.59 564.729 515.603 564.729 522.988C564.729 526.354 565.163 527.114 567.985 528.309C569.831 529.069 571.241 530.046 571.241 530.589C571.241 531.132 495.375 531.566 394.544 531.566L334.456 531.566V528.153L379.892 528.091C534.773 527.766 540.526 527.657 545.193 525.702C555.178 521.467 560.062 516.363 561.582 508.436C563.21 499.748 558.651 491.387 552.248 491.387C548.774 491.387 544.324 495.296 543.673 498.988C543.348 500.834 542.696 503.766 542.371 505.504C542.045 507.35 541.285 508.762 540.743 508.762Z" fill="white"/>
<path d="M130.234 328.713C130.223 309.923 130.212 293.092 130.206 278H126.761C127.304 364.115 126.11 383.553 119.815 390.503C117.21 393.435 114.605 393.109 110.263 389.309C105.271 384.856 104.511 386.702 108.635 393.109C119.055 409.616 124.373 424.927 125.567 441.868C127.304 468.256 112.977 491.712 94.9598 491.821C88.122 491.821 83.4549 489.215 80.1988 483.351C77.1598 477.921 76.9427 469.016 79.6561 464.781C83.5634 458.917 92.3549 455.985 97.7817 458.809C99.7354 459.895 99.8439 459.46 99.8439 439.805C99.8439 428.728 99.5183 419.715 98.9756 419.715C98.5415 419.715 97.5646 422.647 96.9134 426.339C94.9598 436.873 90.6183 444.257 81.5013 453.379C75.5318 459.352 71.0818 462.609 65.4379 465.324C57.2976 469.234 55.344 471.84 60.3367 471.84C71.5159 471.84 78.2452 485.305 70.6476 492.364C65.3293 497.359 60.9879 498.12 35.4819 498.662C20.938 498.988 11.9295 499.64 12.1466 500.291C12.3636 500.834 15.077 502.246 18.2246 503.223C25.0624 505.612 27.7758 507.893 29.4038 512.78C31.6831 519.838 28.1014 525.377 20.1782 526.788C17.7904 527.223 8.89047 527.874 0.641706 528.2C0.425338 528.209 0.211441 528.218 0 528.227V531.513C3.34752 531.55 7.36244 531.566 12.1466 531.566C42.6453 531.566 47.5294 532.327 58.7086 538.299C65.1123 541.666 71.2988 546.878 75.7488 552.742L78.2452 556L77.5939 552.742C77.2683 550.896 76.7257 547.747 76.4001 545.575C75.0976 537.973 81.0671 531.566 89.5329 531.566C92.1378 531.566 93.3317 531.132 93.3317 529.937C93.3317 528.526 89.6415 528.309 66.9574 528.309C38.5209 528.309 37.9782 528.2 37.9782 522.662C37.9782 515.495 45.6843 507.241 55.9952 503.332C63.7013 500.4 78.2452 500.074 85.5171 502.68C96.4793 506.59 105.271 515.603 105.271 522.987C105.271 526.354 104.837 527.114 102.015 528.309C100.17 529.069 98.7585 530.046 98.7585 530.589C98.7585 531.132 174.625 531.566 275.456 531.566L335.544 531.566V528.153L290.108 528.091C135.227 527.766 129.474 527.657 124.807 525.702C114.822 521.467 109.938 516.363 108.418 508.436C106.79 499.748 111.349 491.387 117.752 491.387C121.226 491.387 125.676 495.296 126.327 498.988C126.652 500.834 127.304 503.766 127.629 505.504C127.955 507.35 128.715 508.762 129.257 508.762C129.908 508.762 130.234 441.868 130.234 328.713Z" fill="white"/>
</svg>
